<?xml version="1.0" standalone="no"?>
<!DOCTYPE svg PUBLIC "-//W3C//DTD SVG 1.1//EN" "http://www.w3.org/Graphics/SVG/1.1/DTD/svg11.dtd" >
<svg>
<metadata>
Created by FontForge 20090622 at Sun May 24 06:15:42 2020
 By deploy user
Copyright (c) 2008 by Prinya R. nont. All rights reserved.
</metadata>
<defs>
<font id="DBOzoneX-Light" horiz-adv-x="0" >
  <font-face 
    font-family="DB Ozone X Light"
    font-weight="300"
    font-stretch="normal"
    units-per-em="4096"
    panose-1="2 0 5 6 9 0 0 2 0 4"
    ascent="3276"
    descent="-820"
    x-height="1556"
    cap-height="2068"
    bbox="-1999 -1102 3379 3240"
    underline-thickness="82"
    underline-position="-463"
    unicode-range="U+000D-U+F882"
  />
<missing-glyph horiz-adv-x="1421" 
d="M1446 1372v-49h20q25 0 25 29q0 4 -4 12t-21 8h-20zM1458 1319h-12v-45h-16v115h36q41 0 41 -37q0 -21 -10 -27t-22 -6l32 -45h-16zM1466 1253q45 0 59.5 25t14.5 45q0 37 -18.5 59.5t-55.5 22.5q-36 0 -56.5 -22.5t-20.5 -59.5q0 -29 20.5 -49.5t56.5 -20.5zM1466 1417
q45 0 65.5 -28.5t20.5 -65.5q0 -29 -20.5 -53.5t-65.5 -24.5q-36 0 -61 24.5t-25 53.5q0 37 25 65.5t61 28.5zM688 1085q53 -4 129 -14t149.5 -24.5t133 -33t96.5 -42.5q-74 135 -217 208.5t-295 73.5q-115 0 -221.5 -45t-175.5 -135q65 8 126.5 10t123.5 2h75h76z
M1286 1352v-484q-164 50 -377 86.5t-446 36.5q-164 0 -324 -20q25 78 68 147.5t112.5 122.5t159.5 82t201 29q102 0 190 -22.5t151.5 -55.5t106.5 -76t68 -76l-2 24.5t-2 63.5v80v62h94zM524 438q0 25 -18.5 39.5t-38.5 14.5q-25 0 -43 -14.5t-18 -39.5q0 -32 18 -42.5
t43 -10.5q20 0 38.5 10.5t18.5 42.5zM111 475q0 78 28.5 141.5t81.5 104.5t116.5 61.5t137.5 20.5q66 0 129.5 -18.5t114.5 -57.5t77.5 -96.5t26.5 -138.5v-398h369v688h94v-778h-651v90h102v406q0 102 -73.5 153.5t-188.5 51.5q-102 0 -182 -57.5t-80 -155.5v-369l193 201
q-13 4 -41.5 32.5t-28.5 81.5q0 58 37 94.5t102 36.5q57 0 92 -38.5t35 -92.5q0 -49 -18.5 -75.5t-30.5 -38.5q-8 -9 -59.5 -60t-112.5 -104l-164 -156h-106v471z" />
    <glyph glyph-name="ellipsis" unicode="&#x2e;&#x2e;&#x2e;" horiz-adv-x="2335" 
d="M1032 119q0 29 10.5 54t28.5 43t42.5 28t53.5 10t54 -10t43 -28t28.5 -43t10.5 -54t-10.5 -54t-28.5 -43t-43 -28t-54 -10t-53.5 10t-42.5 28t-28.5 43t-10.5 54zM1769 119q0 29 10.5 54t28.5 43t43 28t54 10t53.5 -10t42.5 -28t28.5 -43t10.5 -54t-10.5 -54t-28.5 -43
t-42.5 -28t-53.5 -10t-54 10t-43 28t-28.5 43t-10.5 54zM287 119q0 29 10.5 54t29 43t43 28t52.5 10q29 0 54 -10t43 -28t28 -43t10 -54t-10 -54t-28 -43t-43 -28t-54 -10q-28 0 -52.5 10t-43 28t-29 43t-10.5 54z" />
    <glyph glyph-name="dochadaphinthuthai" unicode="&#xe0e;&#xe3a;" horiz-adv-x="1851" 
d="M344 -209l447 229q21 11 37.5 16t31.5 4.5t31.5 -6t38.5 -14.5l409 -184q15 -8 30.5 -7t28 8.5t20 22t7.5 34.5v1114q0 139 -34 236.5t-99 159t-160.5 89t-218.5 27.5q-71 0 -142.5 -12t-139 -43.5t-128.5 -86.5t-110 -141l127 -188v-672q0 -85 -18 -146t-47 -103
t-66.5 -67t-77.5 -38.5t-78 -18t-69 -4.5l-29 156q80 -3 122 21.5t60.5 64.5t20.5 87t2 89v606l-152 217q126 215 305 322.5t425 107.5q172 0 300 -42t213.5 -123t128 -199.5t42.5 -270.5v-1147q0 -54 -26.5 -102t-71.5 -77.5t-104.5 -34t-125.5 29.5l-377 180
q-22 10 -37 10t-37 -10l-393 -204zM1339 -635q0 28 11 52.5t29.5 43t43 29t52.5 10.5q27 0 51.5 -10.5t43 -29t29.5 -43t11 -52.5t-11 -52.5t-29.5 -43t-43 -29t-51.5 -10.5q-28 0 -52.5 10.5t-43 29t-29.5 43t-11 52.5z" />
    <glyph glyph-name="topatakphintuthai" unicode="&#xe0f;&#xe3a;" horiz-adv-x="1851" 
d="M1430 1008q0 139 -34 236.5t-99.5 159t-160.5 89t-218 27.5q-71 0 -143 -12t-139.5 -43.5t-128.5 -86.5t-110 -141l127 -188v-672q0 -85 -18 -146t-47 -103t-66.5 -67t-77.5 -38.5t-78 -18t-69 -4.5l-29 152q80 -3 122 21.5t60.5 64.5t20.5 87t2 89v610l-151 217
q125 215 304 322.5t425 107.5q172 0 300 -42t213.5 -123t128 -199.5t42.5 -270.5v-1134q0 -72 -34.5 -124.5t-85 -79.5t-107 -25.5t-101.5 36.5l-213 172q-12 10 -26.5 11.5t-26.5 -11.5l-197 -172q-46 -28 -77 -26.5t-62 26.5l-242 180l139 82l156 -114q22 -18 45 0
l197 172q20 10 36 15.5t31.5 5.5t31.5 -5.5t36 -15.5l229 -176q15 -12 32 -15t31 3.5t23 22t9 38.5v1106zM1339 -635q0 28 11 52.5t29.5 43t43 29t52.5 10.5q27 0 51.5 -10.5t43 -29t29.5 -43t11 -52.5t-11 -52.5t-29.5 -43t-43 -29t-51.5 -10.5q-28 0 -52.5 10.5t-43 29
t-29.5 43t-11 52.5z" />
    <glyph glyph-name="dochadasarauthai" unicode="&#xe0e;&#xe38;" horiz-adv-x="1851" 
d="M1430 -770q0 48 -6 76t-20 43t-36.5 19.5t-56.5 4.5h-54v152h74q77 0 129.5 -11t85 -42.5t46.5 -88.5t14 -149v-225h-176v221zM344 -209l447 229q21 11 37.5 16t31.5 4.5t31.5 -6t38.5 -14.5l409 -184q17 -3 32.5 3t27.5 19t19 30.5t7 37.5v1082q0 139 -34 236.5t-99 159
t-160.5 89t-218.5 27.5q-71 0 -142.5 -12t-139 -43.5t-128.5 -86.5t-110 -141l127 -188v-672q0 -85 -18 -146t-47 -103t-66.5 -67t-77.5 -38.5t-78 -18t-69 -4.5l-29 156q80 -3 122 21.5t60.5 64.5t20.5 87t2 89v606l-152 217q126 215 305 322.5t425 107.5q172 0 300 -42
t213.5 -123t128 -199.5t42.5 -270.5v-1069q0 -62 -19 -108t-44.5 -78.5t-51 -51t-37.5 -24.5q-37 -18 -85 -20t-91 20l-377 180q-22 10 -37 10t-37 -10l-393 -204z" />
    <glyph glyph-name="topataksarauthai" unicode="&#xe0f;&#xe38;" horiz-adv-x="1851" 
d="M1430 -770q0 48 -6 76t-20 43t-36.5 19.5t-56.5 4.5h-54v152h74q77 0 129.5 -11t85 -42.5t46.5 -88.5t14 -149v-225h-176v221zM1430 1008q0 139 -34 236.5t-99.5 159t-160.5 89t-218 27.5q-71 0 -143 -12t-139.5 -43.5t-128.5 -86.5t-110 -141l127 -188v-672
q0 -85 -18 -146t-47 -103t-66.5 -67t-77.5 -38.5t-78 -18t-69 -4.5l-29 152q80 -3 122 21.5t60.5 64.5t20.5 87t2 89v610l-151 217q125 215 304 322.5t425 107.5q172 0 300 -42t213.5 -123t128 -199.5t42.5 -270.5v-1056q0 -36 -10 -73t-31 -72t-54.5 -67.5t-80.5 -58.5
q-23 -12 -42.5 -18.5t-37 -6.5t-35 6.5t-37.5 18.5l-213 172q-12 10 -26.5 11.5t-26.5 -11.5l-197 -172q-46 -28 -77 -26.5t-62 26.5l-242 180l139 82l156 -114q22 -18 45 0l197 172q20 10 36 15.5t31.5 5.5t31.5 -5.5t36 -15.5l229 -176q20 0 37.5 9.5t30 25t20 34.5
t7.5 37v1049z" />
    <glyph glyph-name="fongmanfunnuthai" unicode="&#xe4f;&#x22;" horiz-adv-x="2093" 
d="M213 819q0 116 29.5 223t84 199.5t130 169t167.5 130.5t197 84t219 30q116 0 223 -30t199.5 -84t169 -130.5t130.5 -169t84 -199.5t30 -223q0 -113 -30 -218.5t-84 -197.5t-130.5 -167.5t-169 -130t-199.5 -84t-223 -29.5q-113 0 -218.5 29.5t-197.5 84t-167.5 130
t-130 167.5t-84 197t-29.5 219zM377 819q0 -91 24 -175.5t67 -158t104 -134.5t134.5 -104t158 -67t175.5 -24q93 0 179 24t161 67t136 104t104.5 134.5t67.5 158t24 175.5q0 140 -52.5 262.5t-143.5 213.5t-213.5 143.5t-262.5 52.5q-91 0 -175.5 -24t-158 -67.5
t-134.5 -104.5t-104 -136t-67 -161t-24 -179zM598 819q0 92 35 173.5t95.5 142t141 96t170.5 35.5q92 0 173.5 -35.5t142 -96t96 -142t35.5 -173.5q0 -90 -35.5 -170.5t-96 -141t-142 -95.5t-173.5 -35q-90 0 -170.5 35t-141 95.5t-95.5 141t-35 170.5zM762 819
q0 -57 22 -107.5t60 -88.5t88.5 -60t107.5 -22q58 0 110 22t90 60t60.5 88.5t22.5 107.5q0 58 -22.5 110t-60.5 90t-90 60.5t-110 22.5q-57 0 -107.5 -22.5t-88.5 -60.5t-60 -90t-22 -110zM741 1868l-24 532h217l-25 -532h-168zM1167 1868l-24 532h217l-25 -532h-168z" />
    <glyph glyph-name="lessequal" unicode="&#x3c;&#x3d;" horiz-adv-x="1696" 
d="M1507 360l-1319 508v152l1319 512v-168l-1122 -418l1122 -418v-168zM1507 70v155h-1319v-155h1319z" />
    <glyph glyph-name="greaterequal" unicode="&#x3e;&#x3d;" horiz-adv-x="1692" 
d="M188 528l1123 418l-1123 418v168l1319 -512v-152l-1319 -508v168zM188 70v155h1319v-155h-1319z" />
    <glyph glyph-name="plusminus" unicode="&#x2b;&#x2d;" horiz-adv-x="1692" 
d="M930 868v-581h-156v581h-586v152h586v586h156v-586h577v-152h-577zM188 147h1319v-147h-1319v147z" />
    <glyph glyph-name="dochadasarauuthai" unicode="&#xe0e;&#xe39;" horiz-adv-x="1851" 
d="M979 -700q0 49 -17.5 65.5t-60.5 16.5h-53l-4 147h102q58 0 97 -11.5t62 -36t32.5 -64.5t9.5 -97v-20q0 -23 7 -48.5t23.5 -46.5t44 -35t68.5 -14q43 0 70.5 14t43 35t21 46.5t5.5 48.5v229h172v-229q0 -65 -23.5 -117.5t-65 -90.5t-99 -58.5t-124.5 -20.5
q-72 0 -129.5 20.5t-98 58.5t-62 90.5t-21.5 117.5zM344 -209l447 229q21 11 37.5 16t31.5 4.5t31.5 -6t38.5 -14.5l409 -184q17 -3 32.5 3t27.5 19t19 30.5t7 37.5v1082q0 139 -34 236.5t-99 159t-160.5 89t-218.5 27.5q-71 0 -142.5 -12t-139 -43.5t-128.5 -86.5
t-110 -141l127 -188v-672q0 -85 -18 -146t-47 -103t-66.5 -67t-77.5 -38.5t-78 -18t-69 -4.5l-29 156q80 -3 122 21.5t60.5 64.5t20.5 87t2 89v606l-152 217q126 215 305 322.5t425 107.5q172 0 300 -42t213.5 -123t128 -199.5t42.5 -270.5v-1069q0 -62 -19 -108
t-44.5 -78.5t-51 -51t-37.5 -24.5q-37 -18 -85 -20t-91 20l-377 180q-22 10 -37 10t-37 -10l-393 -204z" />
    <glyph glyph-name="topataksarauuthai" unicode="&#xe0f;&#xe39;" horiz-adv-x="1851" 
d="M979 -700q0 49 -17.5 65.5t-60.5 16.5h-53l-4 147h102q58 0 97 -11.5t62 -36t32.5 -64.5t9.5 -97v-20q0 -23 7 -48.5t23.5 -46.5t44 -35t68.5 -14q43 0 70.5 14t43 35t21 46.5t5.5 48.5v229h172v-229q0 -65 -23.5 -117.5t-65 -90.5t-99 -58.5t-124.5 -20.5
q-72 0 -129.5 20.5t-98 58.5t-62 90.5t-21.5 117.5zM1430 1008q0 139 -34 236.5t-99.5 159t-160.5 89t-218 27.5q-71 0 -143 -12t-139.5 -43.5t-128.5 -86.5t-110 -141l127 -188v-672q0 -85 -18 -146t-47 -103t-66.5 -67t-77.5 -38.5t-78 -18t-69 -4.5l-29 152
q80 -3 122 21.5t60.5 64.5t20.5 87t2 89v610l-151 217q125 215 304 322.5t425 107.5q172 0 300 -42t213.5 -123t128 -199.5t42.5 -270.5v-1056q0 -36 -10 -73t-31 -72t-54.5 -67.5t-80.5 -58.5q-23 -12 -42.5 -18.5t-37 -6.5t-35 6.5t-37.5 18.5l-213 172q-12 10 -26.5 11.5
t-26.5 -11.5l-197 -172q-46 -28 -77 -26.5t-62 26.5l-242 180l139 82l156 -114q22 -18 45 0l197 172q20 10 36 15.5t31.5 5.5t31.5 -5.5t36 -15.5l229 -176q20 0 37.5 9.5t30 25t20 34.5t7.5 37v1049z" />
    <glyph glyph-name=".notdef" horiz-adv-x="1421" 
d="M1446 1372v-49h20q25 0 25 29q0 4 -4 12t-21 8h-20zM1458 1319h-12v-45h-16v115h36q41 0 41 -37q0 -21 -10 -27t-22 -6l32 -45h-16zM1466 1253q45 0 59.5 25t14.5 45q0 37 -18.5 59.5t-55.5 22.5q-36 0 -56.5 -22.5t-20.5 -59.5q0 -29 20.5 -49.5t56.5 -20.5zM1466 1417
q45 0 65.5 -28.5t20.5 -65.5q0 -29 -20.5 -53.5t-65.5 -24.5q-36 0 -61 24.5t-25 53.5q0 37 25 65.5t61 28.5zM688 1085q53 -4 129 -14t149.5 -24.5t133 -33t96.5 -42.5q-74 135 -217 208.5t-295 73.5q-115 0 -221.5 -45t-175.5 -135q65 8 126.5 10t123.5 2h75h76z
M1286 1352v-484q-164 50 -377 86.5t-446 36.5q-164 0 -324 -20q25 78 68 147.5t112.5 122.5t159.5 82t201 29q102 0 190 -22.5t151.5 -55.5t106.5 -76t68 -76l-2 24.5t-2 63.5v80v62h94zM524 438q0 25 -18.5 39.5t-38.5 14.5q-25 0 -43 -14.5t-18 -39.5q0 -32 18 -42.5
t43 -10.5q20 0 38.5 10.5t18.5 42.5zM111 475q0 78 28.5 141.5t81.5 104.5t116.5 61.5t137.5 20.5q66 0 129.5 -18.5t114.5 -57.5t77.5 -96.5t26.5 -138.5v-398h369v688h94v-778h-651v90h102v406q0 102 -73.5 153.5t-188.5 51.5q-102 0 -182 -57.5t-80 -155.5v-369l193 201
q-13 4 -41.5 32.5t-28.5 81.5q0 58 37 94.5t102 36.5q57 0 92 -38.5t35 -92.5q0 -49 -18.5 -75.5t-30.5 -38.5q-8 -9 -59.5 -60t-112.5 -104l-164 -156h-106v471z" />
    <glyph glyph-name=".null" 
 />
    <glyph glyph-name=".null" 
 />
    <glyph glyph-name="nonmarkingreturn" unicode="&#xd;" horiz-adv-x="971" 
 />
    <glyph glyph-name="space" unicode=" " horiz-adv-x="856" 
 />
    <glyph glyph-name="yoyingnobasethai" unicode="&#xf70f;" horiz-adv-x="2753" 
d="M266 1024l-151 217q123 215 303 322.5t426 107.5q172 0 300 -42t212.5 -123t126 -199.5t41.5 -270.5v-405q0 -105 16.5 -196t61.5 -158.5t123.5 -106.5t203.5 -39q123 0 201 39t123 106.5t61.5 158.5t16.5 196v1024h176v-1061q0 -150 -38.5 -265t-112 -192.5t-181.5 -117
t-246 -39.5t-245.5 39.5t-181 117t-112 192.5t-38.5 265v414q0 139 -34 236.5t-99.5 159t-160.5 89t-218 27.5q-71 0 -142.5 -12t-139 -43.5t-129 -86.5t-110.5 -141l119 -188v-668q0 -51 6 -92.5t24.5 -71t54 -45.5t95.5 -16h119v-156h-151q-86 0 -147 26t-99.5 74.5
t-56 118.5t-17.5 158v647z" />
    <glyph glyph-name="quoteleft" unicode="&#x2018;" horiz-adv-x="840" 
d="M303 1876v246l229 209v-455h-229z" />
    <glyph glyph-name="quoteright" unicode="&#x2019;" horiz-adv-x="840" 
d="M303 1729v450h229v-246z" />
    <glyph glyph-name="quotedblleft" unicode="&#x201c;" horiz-adv-x="1343" 
d="M807 1876v246l229 209v-455h-229zM303 1876v246l229 209v-455h-229z" />
    <glyph glyph-name="quotedblright" unicode="&#x201d;" horiz-adv-x="1343" 
d="M807 1729v450h229v-246zM303 1729v450h229v-246z" />
    <glyph glyph-name="bullet" unicode="&#x2022;" horiz-adv-x="1839" 
d="M549 836q0 76 29.5 144t80 118.5t118.5 80t145 29.5q76 0 144 -29.5t118.5 -80t80 -118.5t29.5 -144q0 -77 -29.5 -145t-80 -118.5t-118.5 -80t-144 -29.5q-77 0 -145 29.5t-118.5 80t-80 118.5t-29.5 145z" />
    <glyph glyph-name="endash" unicode="&#x2013;" horiz-adv-x="1659" 
d="M168 774v152h1319v-152h-1319z" />
    <glyph glyph-name="emdash" unicode="&#x2014;" horiz-adv-x="2810" 
d="M266 774v152h2282v-152h-2282z" />
    <glyph glyph-name="uni00A0" unicode="&#xa0;" horiz-adv-x="856" 
 />
    <glyph glyph-name="kokaithai" unicode="&#xe01;" horiz-adv-x="1778" 
d="M446 1049v-1049h-172v1024l-151 217q123 215 303 322.5t426 107.5q172 0 300 -43.5t212.5 -126t126 -202t41.5 -271.5v-1028h-172v1028q0 132 -36.5 225.5t-103 152.5t-161 86.5t-211.5 27.5q-69 0 -140.5 -14t-141 -46t-133.5 -84t-118 -127z" />
    <glyph glyph-name="khokhaithai" unicode="&#xe02;" horiz-adv-x="1528" 
d="M147 1516q25 34 58 61t71.5 46t80.5 29.5t85 10.5q77 0 138 -22t103 -63.5t64.5 -99.5t22.5 -130q0 -53 -19 -101.5t-49.5 -93.5t-68.5 -86.5l-75.5 -81t-70.5 -78t-53 -76.5q-14 -26 -21 -51.5t-9.5 -47t-2.5 -38.5v-26v-156q0 -87 22 -158.5t66.5 -121.5t110.5 -77.5
t154 -27.5q87 0 151 27.5t106 77.5t62.5 121.5t20.5 158.5v1143h180v-1151q0 -117 -38 -214t-107 -167t-164.5 -109t-210.5 -39q-120 0 -216.5 39t-165 109t-106.5 167t-41 214v192q0 72 20 128.5t42 84.5q21 32 53 65.5l67 68.5l70 71.5t62.5 75t45 78t17.5 80.5
q0 37 -12.5 66.5t-35 50t-53 31.5t-67.5 11q-46 0 -86.5 -21.5t-64.5 -55.5z" />
    <glyph glyph-name="khokhuatthai" unicode="&#xe03;" horiz-adv-x="1528" 
d="M37 1565l102 106l168 -127l37 33q88 71 172.5 88.5t153 -4.5t115 -77.5t58 -130.5t-17.5 -163t-112 -176l-258 -274q-20 -20 -31 -43t-16 -46.5t-6 -48t-1 -47.5v-143q0 -84 20.5 -155t63.5 -122t110 -79.5t159 -28.5q89 0 153 27.5t105.5 77.5t61.5 121.5t20 158.5v1143
h180v-1151q0 -122 -38 -219.5t-107 -166.5t-164.5 -106t-210.5 -37q-132 0 -231.5 41.5t-165.5 113.5t-99 168.5t-33 205.5v180q0 71 16.5 128t53.5 97l336 340q41 42 56.5 86.5t10.5 82.5t-28 66.5t-59 38t-82.5 -3.5t-98.5 -57l-94 -78q-9 -12 -29 -12t-33 12z" />
    <glyph glyph-name="khokhwaithai" unicode="&#xe04;" horiz-adv-x="1802" 
d="M418 0h-172v1057q0 157 49.5 272.5t137 191.5t208.5 113t264 37q151 0 273 -39.5t208 -117t132.5 -192.5t46.5 -265v-1057h-172v1057q0 121 -33 208.5t-96 144t-153.5 83.5t-205.5 27t-205.5 -27t-153 -83.5t-95.5 -144t-33 -208.5v-164q15 15 35 28.5t46.5 23.5t60.5 16
t79 6h291v-140h-258q-74 0 -123 -17.5t-78 -52.5t-41 -87t-12 -121v-549z" />
    <glyph glyph-name="khokhonthai" unicode="&#xe05;" horiz-adv-x="1839" 
d="M246 1077q0 103 27 196.5t80 171t133 134.5t186 88l246 -250l249 250q102 -23 181 -77.5t133.5 -132.5t83 -175t28.5 -205v-1077h-172v1077q0 77 -13 139t-38.5 111.5t-63.5 88t-89 67.5l-230 -213q-31 -28 -65.5 -28t-65.5 28l-229 213q-101 -59 -153 -157t-52 -249
v-180q15 15 35 28t46.5 22.5t60.5 14.5t79 5h291v-140h-258q-74 0 -123 -17.5t-78 -52.5t-41 -87t-12 -121v-549h-176v1077z" />
    <glyph glyph-name="khorakhangthai" unicode="&#xe06;" horiz-adv-x="1749" 
d="M418 631q0 -108 37.5 -199.5t102.5 -158t152 -104.5t187 -38q109 0 189.5 32.5t133 93t78 146t25.5 191.5v1065h180v-1065q0 -138 -41 -251.5t-119 -194t-190.5 -124.5t-255.5 -44q-72 0 -141 15t-130.5 42.5t-113.5 68t-90 91.5v-197h-176v651v33q0 71 16.5 128t56.5 97
l332 340q41 42 57 86.5t11.5 82.5t-27 66.5t-58.5 38t-83 -3.5t-100 -57l-91 -78q-15 -12 -34 -12t-31 12l-238 181l99 106l176 -127l37 33q86 71 170.5 87.5t154 -6.5t117 -79t59.5 -131t-19 -162t-118 -172l-258 -274q-23 -25 -34.5 -54.5t-16.5 -57.5t-5.5 -51t-0.5 -34
v-12z" />
    <glyph glyph-name="ngonguthai" unicode="&#xe07;" horiz-adv-x="1289" 
d="M183 377q15 -57 45 -103t73 -79t98.5 -50.5t123.5 -17.5q89 0 154 26.5t107 75.5t62.5 119t20.5 156v1007h-237v144h414v-1151q0 -126 -34.5 -224.5t-101.5 -166t-164 -103t-221 -35.5q-100 0 -178.5 23t-139 65.5t-103 103.5t-70.5 136z" />
    <glyph glyph-name="chochanthai" unicode="&#xe08;" horiz-adv-x="1491" 
d="M1069 549q0 69 -11.5 121t-40 87t-76.5 52.5t-122 17.5h-282v144h315q45 0 78.5 -6t59 -16t45 -23.5t34.5 -28.5v160q0 107 -32 193t-92 146t-145.5 92t-193.5 32q-74 0 -143 -17t-127.5 -50.5t-103 -83.5t-68.5 -116l-152 78q35 83 92 146.5t132.5 106.5t168.5 65
t201 22q140 0 257.5 -38.5t202 -115t132 -192t47.5 -268.5v-1057h-176v549z" />
    <glyph glyph-name="chochingthai" unicode="&#xe09;" horiz-adv-x="1749" 
d="M233 1331q36 83 95.5 146.5t138 106.5t174 65t203.5 22q140 0 260 -36.5t207.5 -111t137.5 -187.5t50 -267v-1069h-176v201q-93 -109 -218 -165t-274 -56q-132 0 -242.5 41.5t-190.5 119.5t-124.5 189.5t-44.5 251.5v401h177v-401q0 -105 29 -188.5t83.5 -142
t133.5 -89.5t179 -31q112 0 203 38.5t155 105.5t99 158.5t35 197.5v438q0 112 -33.5 196.5t-95.5 141t-150.5 85t-199.5 28.5q-74 0 -145 -17t-131 -50.5t-106 -84.5t-69 -119z" />
    <glyph glyph-name="chochangthai" unicode="&#xe0a;" horiz-adv-x="1536" 
d="M557 1176q45 45 63.5 86.5t18.5 85.5q0 48 -14.5 81.5t-39.5 54.5t-58.5 30.5t-71.5 9.5q-23 0 -47.5 -7.5t-47.5 -20t-45 -28t-41 -30.5l-127 94q65 68 143.5 99.5t168.5 31.5q77 0 139 -22t106 -63.5t67.5 -99.5t23.5 -130q0 -80 -29 -143.5t-90 -127.5l-221 -233
q-20 -23 -31 -52t-16 -56.5t-6 -49.5t-1 -31v-155q0 -83 18.5 -151.5t60 -118t107 -76.5t158.5 -27q172 0 260.5 94.5t88.5 270.5v643q0 40 -14 74t-35.5 62t-48 49.5t-50.5 35.5l-26.5 16t-15 17t3.5 25.5t30 39.5l446 451l119 -115l-385 -381q43 -32 76 -73
q29 -35 52.5 -85.5t23.5 -115.5v-652q0 -117 -36.5 -211t-104.5 -160t-165.5 -101.5t-218.5 -35.5q-129 0 -225.5 37t-161 104.5t-97.5 163t-36 212.5v192q0 71 16.5 131.5t53.5 97.5z" />
    <glyph glyph-name="sosothai" unicode="&#xe0b;" horiz-adv-x="1589" 
d="M1327 483q0 -117 -36.5 -211t-104.5 -160t-165 -101.5t-218 -35.5q-129 0 -225.5 37t-161 104.5t-97.5 163t-36 212.5v192q0 71 16.5 130t56.5 99l287 295q47 47 64 95.5t11.5 90.5t-31 73.5t-63 44t-84 2t-94.5 -51.5l-94 -78q-12 -12 -32.5 -12t-32.5 12l-234 181
l94 106l177 -127l36 33q68 56 133.5 78.5t124.5 18t107.5 -32.5t82.5 -73t49.5 -104t7.5 -125t-41.5 -136.5t-98.5 -137.5l-213 -221q-21 -23 -33 -52t-17 -56.5t-6 -49.5t-1 -31v-155q0 -83 19 -151.5t61 -118t108 -76.5t160 -27q173 0 260.5 94t87.5 271v643q0 40 -15 74
t-38 61.5t-50.5 49t-52.5 36.5q-14 8 -24.5 15.5t-13.5 18t4 26t30 38.5l434 451l115 -115l-364 -381q42 -32 75 -73q29 -35 52.5 -85.5t23.5 -115.5v-652z" />
    <glyph glyph-name="chochoethai" unicode="&#xe0c;" horiz-adv-x="2757" 
d="M446 381q0 -51 6 -92.5t24.5 -71t54.5 -45.5t96 -16h118v-156h-151q-86 0 -146.5 26t-99 74.5t-56.5 118.5t-18 158v647l-151 217q123 215 303 322.5t426 107.5q172 0 300 -42t212.5 -123t126 -199.5t41.5 -270.5v-422q0 -106 33.5 -194.5t92.5 -152.5t140 -100t176 -36
q86 0 154 29.5t115 87.5t71.5 144t24.5 198v1065h172v-1061q0 -152 -39 -267t-109.5 -192t-169.5 -116t-219 -39q-69 0 -135 16t-124 45.5t-105 70t-78 89.5v-201h-172v1036q0 127 -34.5 219t-100.5 150.5t-161 86.5t-216 28q-69 0 -140.5 -14t-141 -46t-133.5 -84
t-118 -127l131 -200v-668z" />
    <glyph glyph-name="dochadathai" unicode="&#xe0e;" horiz-adv-x="1847" 
d="M520 377q0 -85 -17.5 -146t-46.5 -103t-66 -67t-76 -38.5t-77 -18t-69 -4.5l-29 156q80 -3 122 21.5t60.5 64.5t20.5 87t2 89v606l-151 217q122 215 302.5 322.5t426.5 107.5q172 0 299.5 -42t212.5 -123t127.5 -199.5t44.5 -270.5v-1433q0 -57 -26.5 -108t-71.5 -83
t-104.5 -38t-125.5 28l-377 180q-22 9 -37 9t-37 -9l-393 -205l-86 111l447 229q21 11 37.5 16t32 4.5t32 -6t37.5 -14.5l409 -184q15 -8 30.5 -5.5t28 12.5t20.5 26.5t8 36.5v1433q0 130 -37 222t-104 150.5t-161.5 85t-209.5 26.5q-69 0 -140 -14t-139 -46t-132.5 -84
t-121.5 -127l135 -200v-672z" />
    <glyph glyph-name="topatakthai" unicode="&#xe0f;" horiz-adv-x="1851" 
d="M1430 1036q0 130 -37 222t-104 150.5t-161.5 85t-209.5 26.5q-69 0 -139 -13.5t-138 -45t-133 -83.5t-123 -129l135 -200v-672q0 -85 -17.5 -146t-46.5 -103t-66 -67t-76 -38.5t-77 -18t-69 -4.5l-29 156q80 -3 122 21.5t60.5 64.5t20.5 87t2 89v606l-151 217
q122 215 302.5 322.5t426.5 107.5q172 0 300 -42t213.5 -123t128 -199.5t42.5 -270.5v-1425q0 -60 -27.5 -113.5t-73.5 -86t-105 -37.5t-122 32l-291 172q-24 18 -53 0l-270 -172q-47 -28 -78 -26.5t-62 26.5l-336 250l131 78l259 -189q12 -9 22 -9t23 9l270 172
q37 25 66 23.5t69 -23.5l295 -172q17 -11 36 -11.5t34.5 8t26 26t10.5 43.5v1425z" />
    <glyph glyph-name="thothanthai" unicode="&#xe10;" horiz-adv-x="1491" 
d="M1069 -160h176v-229q0 -56 -29.5 -104t-76.5 -74.5t-106.5 -22.5t-119.5 53l-176 152q-9 9 -20 9t-21 -9l-155 -147q-34 -31 -77 -31t-83 31l-266 213l106 77l230 -180q12 -6 24 0l152 143q21 19 45.5 27.5t49.5 8.5t48 -9.5t41 -26.5l168 -143q6 -6 20 -13.5t29 -7
t27 13.5t14 48v221zM1069 549q0 69 -11.5 121t-40 87t-76.5 52.5t-122 17.5h-282v144h315q45 0 78.5 -6t59 -16t45 -23.5t34.5 -28.5v160q0 107 -32 193t-92 146t-145.5 92t-193.5 32q-74 0 -143 -17t-127.5 -50.5t-103 -83.5t-68.5 -116l-152 78q35 83 92 146.5
t132.5 106.5t168.5 65t201 22q109 0 204.5 -24t172.5 -70l328 332l119 -115l-324 -319q68 -78 103.5 -181.5t35.5 -236.5v-1057h-176v549z" />
    <glyph glyph-name="thonangmonthothai" unicode="&#xe11;" horiz-adv-x="1798" 
d="M492 848q-22 -21 -33 -50.5t-15.5 -58t-5 -52t-0.5 -32.5v-655h-180v684q0 71 18.5 128t55.5 97l336 340q40 42 55 86.5t10 82.5t-27.5 66.5t-58 38t-82 -3.5t-98.5 -57l-94 -78q-13 -12 -31.5 -12t-34.5 12l-237 181l102 106l172 -127l37 33q86 70 169.5 89t152.5 -1.5
t116.5 -73.5t61.5 -125l217 209q104 -2 188 -34t143 -93.5t91 -152.5t32 -211v-1184h-172v1171q0 72 -12 131.5t-39.5 104.5t-71 73.5t-106.5 39.5z" />
    <glyph glyph-name="thophuthaothai" unicode="&#xe12;" horiz-adv-x="2740" 
d="M1516 614q0 -106 33.5 -194.5t92.5 -152.5t140 -100t176 -36q172 0 268 109t96 333v1082h172v-1077q0 -152 -39 -264.5t-109.5 -186.5t-169 -110.5t-218.5 -36.5q-69 0 -135.5 16t-124.5 45.5t-105 70t-77 89.5v-201h-173v1077q0 151 -53.5 249t-154.5 157l-209 -213
q-14 -15 -31 -23t-35 -8t-35 8t-30 23l-209 213q-51 -29 -90 -67.5t-65.5 -88t-40 -111.5t-13.5 -139v-643q0 -69 12 -121t40.5 -87t77 -52.5t120.5 -17.5h123v-156h-152q-100 0 -174.5 30.5t-124 86.5t-74 135.5t-24.5 177.5v647q0 103 27 196.5t80 171t133 134.5t186 88
l229 -250l234 250q101 -23 180.5 -77.5t134 -132.5t83 -175t28.5 -205v-463z" />
    <glyph glyph-name="nonenthai" unicode="&#xe13;" horiz-adv-x="2757" 
d="M274 1024l-151 217q123 215 303 322.5t426 107.5q172 0 300 -42t212.5 -123t126 -199.5t41.5 -270.5v-463q0 -224 96 -333t268 -109q95 0 176 36t140.5 100t93 152.5t33.5 194.5v1037h172v-1651h-172v201q-31 -49 -78 -89.5t-105 -70t-124.5 -45.5t-135.5 -16
q-120 0 -218.5 36.5t-169 110.5t-109.5 186.5t-39 264.5v458q0 127 -34.5 219t-100.5 150.5t-161 86.5t-216 28q-69 0 -140.5 -14t-141 -46t-133.5 -84t-118 -127l131 -200v-668q0 -51 6 -92.5t24.5 -71t54.5 -45.5t96 -16h118v-156h-151q-86 0 -146.5 26t-99 74.5
t-56.5 118.5t-18 158v647z" />
    <glyph glyph-name="dodekthai" unicode="&#xe14;" horiz-adv-x="1806" 
d="M246 1057q4 158 52.5 274t134 191.5t205.5 112t267 36.5q151 0 273 -39.5t208 -117t132.5 -192.5t46.5 -265v-1057h-172v1057q0 123 -36 210.5t-100.5 143.5t-154 82.5t-197.5 26.5q-109 0 -199 -27t-154 -83.5t-99 -144t-35 -208.5v-623q0 -65 12.5 -116.5t40 -87.5
t70 -55t102.5 -19h152v-156h-152q-100 0 -174.5 30.5t-124 86.5t-74 135.5t-24.5 177.5v627z" />
    <glyph glyph-name="totaothai" unicode="&#xe15;" horiz-adv-x="1806" 
d="M418 434q0 -65 12.5 -116.5t40 -87.5t70 -55t102.5 -19h152v-156h-152q-100 0 -174.5 30.5t-124 86.5t-74 135.5t-24.5 177.5v647q0 103 27 196.5t80 171t133 134.5t186 88l229 -250l234 250q101 -23 180.5 -77.5t134 -132.5t83 -175t28.5 -205v-1077h-172v1077
q0 151 -54 249t-155 157l-209 -213q-28 -31 -65.5 -31t-65.5 31l-209 213q-51 -29 -90.5 -67.5t-66.5 -88t-41.5 -111.5t-14.5 -139v-643z" />
    <glyph glyph-name="thothungthai" unicode="&#xe16;" horiz-adv-x="1778" 
d="M274 1024l-151 217q123 215 303 322.5t426 107.5q172 0 300 -42t212.5 -123t126 -199.5t41.5 -270.5v-1036h-172v1036q0 127 -34.5 219t-100.5 150.5t-161 86.5t-216 28q-69 0 -140.5 -14t-141 -46t-133.5 -84t-118 -127l131 -200v-668q0 -51 6 -92.5t24.5 -71
t54.5 -45.5t96 -16h118v-156h-151q-86 0 -146.5 26t-99 74.5t-56.5 118.5t-18 158v647z" />
    <glyph glyph-name="thothahanthai" unicode="&#xe17;" horiz-adv-x="1761" 
d="M1343 0v1057q0 111 -30.5 197t-86.5 145t-136.5 90t-180.5 31q-104 0 -193.5 -34t-154.5 -97.5t-102 -154t-37 -202.5v-1032h-176v1655h176v-197q93 109 214.5 161t272.5 52q141 0 253.5 -42.5t191 -122t120.5 -193t42 -256.5v-1057h-173z" />
    <glyph glyph-name="thothongthai" unicode="&#xe18;" horiz-adv-x="1589" 
d="M221 713h172v-336q0 -54 31.5 -99t83.5 -78t117 -51t133 -18q121 0 213.5 28t155 78t94.5 120.5t32 154.5q0 64 -18.5 119.5t-57 96.5t-97 67t-138.5 32l-278 29q-246 19 -371 120.5t-125 276.5q0 95 44.5 172.5t123 132t186.5 84t236 29.5q173 0 323 -44t258 -128
l-114 -115q-99 69 -212 104.5t-255 35.5q-95 0 -173 -17.5t-133.5 -51.5t-85.5 -85t-30 -117q0 -113 82 -171.5t258 -73.5l270 -25q102 -9 189.5 -39t152 -86t101 -141t36.5 -205q0 -112 -46 -209t-132 -169t-209 -113t-276 -41q-61 0 -125 10.5t-124.5 31.5t-113.5 53
t-92.5 75.5t-62.5 99t-23 123.5v340z" />
    <glyph glyph-name="nonuthai" unicode="&#xe19;" horiz-adv-x="1761" 
d="M418 1655v-1057q0 -111 30.5 -197t87 -145t136.5 -90t180 -31q104 0 193 34t154.5 97.5t102.5 154t37 202.5v1032h177v-1655h-177v197q-92 -109 -213.5 -161t-273.5 -52q-141 0 -253.5 42.5t-191 122t-120 193t-41.5 256.5v1057h172z" />
    <glyph glyph-name="bobaimaithai" unicode="&#xe1a;" horiz-adv-x="1761" 
d="M881 -20q-141 0 -258 42t-201 121t-130 193t-46 258v1061h176v-1065q0 -117 33.5 -203t94.5 -143t145 -85t186 -28q101 0 185.5 28.5t145 86t94 143.5t33.5 201v1065h177v-1061q0 -150 -49 -265t-135 -192.5t-202 -117t-249 -39.5z" />
    <glyph glyph-name="poplathai" unicode="&#xe1b;" horiz-adv-x="1761" 
d="M881 -20q-141 0 -258 42t-201 121t-130 193t-46 258v1061h176v-1065q0 -117 33.5 -203t94.5 -143t145 -85t186 -28q101 0 185.5 28.5t145 86t94 143.5t33.5 201v1859h177v-1855q0 -150 -49 -265t-135 -192.5t-202 -117t-249 -39.5z" />
    <glyph glyph-name="phophungthai" unicode="&#xe1c;" horiz-adv-x="1806" 
d="M418 578q0 -77 14.5 -139t41.5 -111.5t66.5 -88t90.5 -67.5l209 213q28 31 65.5 31t65.5 -31l209 -213q101 58 155 156.5t54 249.5v1077h172v-1077q0 -108 -28.5 -205t-83 -175t-134 -132.5t-180.5 -77.5l-234 250l-229 -250q-106 31 -186 88t-133 134.5t-80 171
t-27 196.5v647q0 98 24.5 177.5t74 135.5t124 86.5t174.5 30.5h152v-156h-152q-60 0 -102.5 -19.5t-70 -55.5t-40 -87.5t-12.5 -115.5v-643z" />
    <glyph glyph-name="fofathai" unicode="&#xe1d;" horiz-adv-x="1806" 
d="M418 578q0 -77 14.5 -139t41.5 -111.5t66.5 -88t90.5 -67.5l209 213q28 31 65.5 31t65.5 -31l209 -213q101 58 152.5 156.5t51.5 249.5v1871h177v-1871q0 -108 -28.5 -205t-83 -175t-134 -132.5t-180.5 -77.5l-234 250l-229 -250q-106 31 -186 88t-133 134.5t-80 171
t-27 196.5v647q0 98 24.5 177.5t74 135.5t124 86.5t174.5 30.5h152v-156h-152q-60 0 -102.5 -19.5t-70 -55.5t-40 -87.5t-12.5 -115.5v-643z" />
    <glyph glyph-name="phophanthai" unicode="&#xe1e;" horiz-adv-x="2179" 
d="M1159 1655l488 -1401l208 1401h177l-271 -1655h-176l-495 1368l-496 -1368h-180l-267 1655h181l204 -1401l488 1401h139z" />
    <glyph glyph-name="fofanthai" unicode="&#xe1f;" horiz-adv-x="2179" 
d="M1159 1655l488 -1401l335 2195h177l-398 -2449h-176l-495 1368l-496 -1368h-180l-267 1655h181l204 -1401l488 1401h139z" />
    <glyph glyph-name="phosamphaothai" unicode="&#xe20;" horiz-adv-x="1851" 
d="M1430 1036q0 130 -37 222t-104 150.5t-161.5 85t-209.5 26.5q-69 0 -140 -13.5t-139 -44.5t-132.5 -82.5t-121.5 -126.5l135 -204v-672q0 -85 -17.5 -146t-46.5 -103t-66 -67t-76 -38.5t-77 -18t-69 -4.5l-29 156q80 -3 122 21.5t60.5 64.5t20.5 87t2 89v606l-151 217
q122 215 302.5 322.5t426.5 107.5q172 0 299.5 -42t212.5 -123t127.5 -199.5t44.5 -270.5v-1036h-176v1036z" />
    <glyph glyph-name="momathai" unicode="&#xe21;" horiz-adv-x="1761" 
d="M1516 1655v-1057q0 -143 -42 -256.5t-120.5 -193t-191 -122t-253.5 -42.5q-151 0 -272.5 52t-214.5 161v-197h-176v1655h176v-1032q0 -112 37 -202.5t102 -154t154.5 -97.5t193.5 -34q100 0 180.5 31t136.5 90t86.5 145t30.5 197v1057h173z" />
    <glyph glyph-name="yoyakthai" unicode="&#xe22;" horiz-adv-x="1749" 
d="M172 1233q0 89 25 166t75 134t124.5 89.5t172.5 32.5h222v-156h-189q-74 0 -123.5 -17.5t-79.5 -50.5t-42.5 -82t-12.5 -112q0 -65 26 -117t80.5 -89t139 -57t201.5 -20v-139q-117 0 -201.5 -23t-139 -67t-80.5 -107t-26 -143q0 -72 35.5 -135t100 -109.5t155 -73
t201.5 -26.5q144 0 238.5 40t149.5 112.5t77 172.5t22 220v979h180v-979q0 -161 -35 -291t-114 -221t-206.5 -140t-311.5 -49q-144 0 -249.5 28.5t-179.5 74.5t-120 103t-71.5 114.5t-34.5 109.5t-9 87q0 64 15 123.5t48 110t85 91t126 68.5q-71 20 -121.5 54.5t-83.5 79.5
t-49.5 99.5t-19.5 114.5z" />
    <glyph glyph-name="roruathai" unicode="&#xe23;" horiz-adv-x="1405" 
d="M1278 463q0 -97 -36.5 -184.5t-110 -154t-184 -105.5t-259.5 -39q-108 0 -190.5 14.5t-150.5 43.5t-128 72.5t-121 102.5l119 123q48 -51 93 -89t98 -64t118.5 -39t153.5 -13q118 0 199 26.5t130.5 72t71 105.5t21.5 128q0 77 -25 130t-68.5 88.5t-101 57t-121.5 35.5
l-135 29q-115 24 -205 58.5t-151.5 84.5t-94 118.5t-32.5 160.5t32 173t96.5 142t161.5 96t226 35q84 0 154 -11.5t130.5 -33t115 -53.5t108.5 -74l-119 -115q-48 34 -89 60t-85.5 44t-96 27t-118.5 9q-92 0 -158 -23t-108 -63.5t-62 -95t-20 -117.5q0 -60 20 -101.5
t60.5 -71.5t102.5 -52t145 -42l159 -36q97 -22 180 -55t144 -86t96 -130t35 -188z" />
    <glyph glyph-name="ruthai" unicode="&#xe24;" horiz-adv-x="1778" 
d="M274 1024l-151 217q123 215 303 322.5t426 107.5q172 0 300 -42t212.5 -123t126 -199.5t41.5 -270.5v-1654h-172v1654q0 127 -34.5 219t-100.5 150.5t-161 86.5t-216 28q-69 0 -140.5 -14t-141 -46t-133.5 -84t-118 -127l131 -200v-668q0 -51 6 -92.5t24.5 -71
t54.5 -45.5t96 -16h118v-156h-151q-86 0 -146.5 26t-99 74.5t-56.5 118.5t-18 158v647z" />
    <glyph glyph-name="lolingthai" unicode="&#xe25;" horiz-adv-x="1701" 
d="M775 -20q-125 3 -235 26t-192.5 77.5t-130.5 147.5t-48 236q0 114 39 207t113 159t181 102t244 36h533v143q0 100 -25.5 176t-82 127t-145 77t-214.5 26q-84 0 -150 -12t-121.5 -37.5t-104 -65t-99.5 -94.5l-131 114q58 58 118 104t131 77.5t158 48t199 16.5
q328 0 485.5 -139.5t157.5 -401.5v-1130h-176v819h-516q-212 0 -317 -91t-105 -257q0 -163 105 -251.5t329 -88.5v-151z" />
    <glyph glyph-name="luthai" unicode="&#xe26;" horiz-adv-x="1851" 
d="M1430 1036q0 130 -37 222t-104 150.5t-161.5 85t-209.5 26.5q-69 0 -140 -13.5t-139 -44.5t-132.5 -82.5t-121.5 -126.5l135 -204v-672q0 -85 -17.5 -146t-46.5 -103t-66 -67t-76 -38.5t-77 -18t-69 -4.5l-29 156q80 -3 122 21.5t60.5 64.5t20.5 87t2 89v606l-151 217
q122 215 302.5 322.5t426.5 107.5q172 0 299.5 -42t212.5 -123t127.5 -199.5t44.5 -270.5v-1650h-176v1650z" />
    <glyph glyph-name="wowaenthai" unicode="&#xe27;" horiz-adv-x="1393" 
d="M266 299q29 -38 69 -68t86 -50.5t96 -31t101 -10.5q111 0 191 39.5t132.5 108.5t77.5 161.5t25 198.5v369q0 101 -23.5 192t-74.5 159.5t-132 108.5t-196 40q-63 0 -123 -16.5t-112 -48t-94 -76t-68 -101.5l-143 78q38 75 95 134t127.5 100.5t151 63t166.5 21.5
q141 0 252.5 -47t188.5 -133t117.5 -207t40.5 -268v-373q0 -134 -35 -253.5t-108 -209.5t-186 -143t-270 -53q-69 0 -136 13.5t-128 40t-114 65.5t-93 90z" />
    <glyph glyph-name="sosalathai" unicode="&#xe28;" horiz-adv-x="1823" 
d="M418 0h-172v1057q0 157 49.5 272.5t137 191.5t208.5 113t264 37q118 0 217.5 -24.5t180.5 -73.5l311 315l119 -114l-308 -304q69 -74 104.5 -178.5t35.5 -234.5v-1057h-172v1057q0 121 -33 208.5t-96 144t-153.5 83.5t-205.5 27t-205.5 -27t-153 -83.5t-95.5 -144
t-33 -208.5v-164q15 15 35 28.5t46.5 23.5t60.5 16t79 6h291v-140h-258q-74 0 -123 -17.5t-78 -52.5t-41 -87t-12 -121v-549z" />
    <glyph glyph-name="sorusithai" unicode="&#xe29;" horiz-adv-x="1810" 
d="M881 -20q-141 0 -258 42t-201 121t-130 193t-46 258v1061h176v-1065q0 -117 33.5 -203t94.5 -143t145 -85t186 -28q101 0 185.5 28.5t145 86t94 143.5t33.5 201v237h-290q-43 0 -87.5 12t-80.5 43.5t-59 86.5t-23 141h159q0 -74 29 -108.5t94 -34.5h258v688h177v-688h213
v-140h-213v-233q0 -150 -49 -265t-135 -192.5t-202 -117t-249 -39.5z" />
    <glyph glyph-name="sosuathai" unicode="&#xe2a;" horiz-adv-x="1701" 
d="M775 -20q-125 3 -235 26t-192.5 77.5t-130.5 147.5t-48 236q0 114 39 207t113 159t181 102t244 36h533v143q0 100 -25.5 176t-82 127t-145 77t-214.5 26q-84 0 -150 -12t-121.5 -37.5t-104 -65t-99.5 -94.5l-131 114q58 58 118 104t131 77.5t158 48t199 16.5
q130 0 231 -23.5t178 -66.5l304 307l118 -114l-299 -295q56 -65 83.5 -152.5t27.5 -196.5v-1130h-176v819h-516q-212 0 -317 -91t-105 -257q0 -163 105 -251.5t329 -88.5v-151z" />
    <glyph glyph-name="hohipthai" unicode="&#xe2b;" horiz-adv-x="1761" 
d="M1208 1270q77 -37 134.5 -96t96 -132.5t58 -157.5t19.5 -171v-713h-173v713q0 170 -67.5 287.5t-194.5 166.5l-659 -536v-631h-176v1655h176v-811l1016 831l106 -131z" />
    <glyph glyph-name="lochulathai" unicode="&#xe2c;" horiz-adv-x="2200" 
d="M1761 0h-176l-495 1368l-496 -1368h-180l-267 1655h181l204 -1401l488 1401h139l488 -1401l151 1024q16 111 -40 166.5t-189 58.5v152h139q57 0 99 14t72 39.5t49 60.5t30 78l37 135h180l-53 -188q-15 -55 -39.5 -97t-56.5 -73.5t-70.5 -54t-83.5 -37.5
q62 -50 86.5 -114.5t11.5 -135.5z" />
    <glyph glyph-name="oangthai" unicode="&#xe2d;" horiz-adv-x="1663" 
d="M795 827h-443q0 -41 0.5 -88t3 -93.5t8.5 -89.5t17 -77q20 -66 58.5 -128t95.5 -110t132 -77t169 -29q98 0 172.5 26t128.5 72.5t90 111t57 141.5t30 163.5t9 177.5q0 82 -9 165t-32 160t-61.5 144.5t-98.5 117t-142.5 78t-193.5 28.5q-74 0 -134.5 -11.5t-114 -35.5
t-103.5 -62t-102 -92l-135 106q64 61 127.5 108t134 78.5t152.5 47.5t184 16q170 0 301.5 -54t221 -161t135.5 -265.5t46 -367.5q0 -198 -45.5 -355t-131 -266.5t-208.5 -167.5t-278 -58q-117 0 -215.5 31.5t-176.5 91.5t-134.5 146.5t-88.5 196.5q-12 39 -19.5 101.5
t-11.5 134.5t-5 147t-1 138h611v-140z" />
    <glyph glyph-name="honokhukthai" unicode="&#xe2e;" horiz-adv-x="1647" 
d="M213 446q-12 39 -19.5 101.5t-11.5 134.5t-5 147t-1 138h610v-140h-442q0 -41 0.5 -88t3 -93.5t8.5 -89.5t17 -77q20 -66 58.5 -128t95 -110t132 -77t168.5 -29q98 0 172.5 26t129 72.5t90.5 111t57 141.5t30 163.5t9 177.5q0 82 -9 165t-32 160t-61.5 144.5t-98.5 117
t-142.5 78t-193.5 28.5q-74 0 -134.5 -11.5t-114 -35.5t-103.5 -62t-102 -92l-136 106q64 61 128 108t134.5 78.5t152.5 47.5t183 16q109 0 202.5 -23.5t170.5 -66.5l320 324l118 -115l-311 -307q102 -109 153.5 -273t51.5 -387q0 -198 -45.5 -355t-131 -266.5t-209 -167.5
t-278.5 -58q-117 0 -215 31.5t-176 91.5t-134.5 146.5t-88.5 196.5z" />
    <glyph glyph-name="paiyannoithai" unicode="&#xe2f;" horiz-adv-x="1675" 
d="M1249 831q-31 -44 -83.5 -81t-115.5 -63.5t-130.5 -41t-128.5 -14.5q-143 0 -259.5 39t-199 112t-127.5 178.5t-45 239.5q0 97 24.5 180t74 144t124 96t174.5 35h152v-156h-123q-72 0 -121 -21.5t-78.5 -60.5t-42 -94.5t-12.5 -122.5q0 -100 30 -177.5t88.5 -131
t144 -81.5t196.5 -28q226 0 342 121t116 359v393h181v-1655h-181v831z" />
    <glyph glyph-name="saraathai" unicode="&#xe30;" horiz-adv-x="979" 
d="M311 1376q0 -74 27 -108.5t92 -34.5h356v-139h-389q-43 0 -87.5 12t-80.5 43.5t-59 86t-23 140.5h164zM311 578q0 -75 27 -109.5t92 -34.5h356v-139h-389q-43 0 -87.5 12t-80.5 43.5t-59 86.5t-23 141h164z" />
    <glyph glyph-name="maihanakatthai" unicode="&#xe31;" 
d="M-766 2306q0 -74 25 -108.5t90 -34.5h717v-140h-750q-43 0 -87.5 12t-80.5 43.5t-59 86.5t-23 141h168z" />
    <glyph glyph-name="saraaathai" unicode="&#xe32;" horiz-adv-x="1217" 
d="M8 1450q65 105 182 163t281 58q124 0 218 -35.5t156.5 -103t94 -165.5t31.5 -224v-1143h-172v1135q0 87 -17 158.5t-56 121.5t-101.5 77.5t-153.5 27.5q-115 0 -201 -41.5t-127 -118.5z" />
    <glyph glyph-name="saraamthai" unicode="&#xe33;" horiz-adv-x="1217" 
d="M-602 2245q0 55 21 103.5t57 84.5t84.5 57t103.5 21q54 0 101.5 -21t83 -57t56.5 -84.5t21 -103.5q0 -54 -21 -102t-56.5 -83.5t-83 -56.5t-101.5 -21q-55 0 -103.5 21t-84.5 56.5t-57 83.5t-21 102zM-471 2245q0 -28 10.5 -52t29 -41.5t43 -27.5t52.5 -10t52.5 10
t43 27.5t29 41.5t10.5 52q0 29 -10.5 53.5t-29 42.5t-43 28.5t-52.5 10.5t-52.5 -10.5t-43 -28.5t-29 -42.5t-10.5 -53.5zM8 1450q65 105 182 163t281 58q124 0 218 -35.5t156.5 -103t94 -165.5t31.5 -224v-1143h-172v1135q0 87 -17 158.5t-56 121.5t-101.5 77.5
t-153.5 27.5q-115 0 -201 -41.5t-127 -118.5z" />
    <glyph glyph-name="saraithai" unicode="&#xe34;" 
d="M-1516 2163h1270v-140h-1270v140z" />
    <glyph glyph-name="saraiithai" unicode="&#xe35;" 
d="M-1516 2163h1094v286h176v-426h-1270v140z" />
    <glyph glyph-name="sarauethai" unicode="&#xe36;" 
d="M-1511 2023v140h819q-13 15 -23 46.5t-10 59.5q0 52 19.5 97.5t53 79.5t78 53.5t95.5 19.5q52 0 97.5 -19.5t79.5 -53.5t53.5 -79.5t19.5 -97.5q0 -51 -19.5 -95.5t-53.5 -78t-79.5 -53t-97.5 -19.5h-1032zM-598 2269q0 -24 10 -46t26.5 -38t38 -25.5t44.5 -9.5
q26 0 49 9.5t40.5 25.5t27.5 38t10 46q0 26 -10 48.5t-27.5 39t-40.5 26t-49 9.5q-23 0 -44.5 -9.5t-38 -26t-26.5 -39t-10 -48.5z" />
    <glyph glyph-name="saraueethai" unicode="&#xe37;" 
d="M-1524 2163h799v286h156v-286h168v286h155v-426h-1278v140z" />
    <glyph glyph-name="sarauthai" unicode="&#xe38;" 
d="M-422 -561q0 48 -6 76t-20 43t-36.5 19.5t-56.5 4.5h-49v152h70q77 0 129.5 -11t84.5 -42.5t46 -88.5t14 -149v-225h-176v221z" />
    <glyph glyph-name="sarauuthai" unicode="&#xe39;" 
d="M-868 -496q0 49 -17.5 65.5t-60.5 16.5h-53v148h98q58 0 97 -11.5t62 -36.5t32.5 -64.5t9.5 -96.5v-21q0 -23 6.5 -48t23 -46t44 -35t69.5 -14q43 0 70 14t42.5 35t21 46t5.5 48v230h172v-230q0 -65 -23.5 -117.5t-64.5 -90t-98.5 -58t-124.5 -20.5q-72 0 -130 20.5
t-98 58t-61.5 90t-21.5 117.5z" />
    <glyph glyph-name="phinthuthai" unicode="&#xe3a;" 
d="M-471 -401q0 27 10.5 51.5t29 43t43 29.5t52.5 11t52.5 -11t43 -29.5t29 -43t10.5 -51.5q0 -28 -10.5 -52.5t-29 -43t-43 -29.5t-52.5 -11t-52.5 11t-43 29.5t-29 43t-10.5 52.5z" />
    <glyph glyph-name="PUCR2005" unicode="&#xe3e;" 
 />
    <glyph glyph-name="bahtthai" unicode="&#xe3f;" horiz-adv-x="1954" 
d="M1757 565q0 -140 -45.5 -245.5t-129.5 -176.5t-202 -107t-262 -36h-86v-201h-172v201h-573v2068h573v193h172v-193h62q135 0 250.5 -36t199.5 -105t132 -169.5t48 -229.5q0 -80 -22 -153t-64 -134.5t-103.5 -107.5t-141.5 -72q86 -29 153.5 -77t114.5 -111t71.5 -141
t24.5 -167zM1585 565q0 97 -34.5 174.5t-98.5 131.5t-153.5 83t-200.5 29h-66v-836h66q111 0 200.5 29t153.5 83t98.5 131.5t34.5 174.5zM1552 1528q0 106 -38.5 181t-104.5 123t-154 70.5t-186 22.5h-37v-795h37q98 0 186 23t154 71.5t104.5 123.5t38.5 180zM463 147h397
v836h-397v-836zM463 1130h397v795h-397v-795z" />
    <glyph glyph-name="saraethai" unicode="&#xe40;" horiz-adv-x="766" 
d="M246 1655h176v-1274q0 -51 5.5 -92.5t24.5 -71t54.5 -45.5t95.5 -16h119v-156h-152q-86 0 -147 26t-100 74.5t-57.5 118.5t-18.5 158v1278z" />
    <glyph glyph-name="saraaethai" unicode="&#xe41;" horiz-adv-x="1548" 
d="M246 1655h176v-1274q0 -51 5.5 -92.5t24.5 -71t54.5 -45.5t95.5 -16h119v-156h-152q-86 0 -147 26t-100 74.5t-57.5 118.5t-18.5 158v1278zM1028 1655h176v-1274q0 -51 6 -92.5t24.5 -71t54 -45.5t95.5 -16h119v-156h-151q-86 0 -147.5 26t-100.5 74.5t-57.5 118.5
t-18.5 158v1278z" />
    <glyph glyph-name="saraothai" unicode="&#xe42;" horiz-adv-x="856" 
d="M336 1946q0 81 -20 146.5t-58.5 111.5t-96 71t-132.5 27l32 139h910v-135h-611q46 -40 75.5 -88.5t46.5 -98t23.5 -96t6.5 -81.5v-1549q0 -51 4.5 -94t22.5 -75t54 -50t99 -18h119v-156h-152q-90 0 -152 29t-100 81t-54.5 123.5t-16.5 155.5v1557z" />
    <glyph glyph-name="saraaimaimuanthai" unicode="&#xe43;" horiz-adv-x="856" 
d="M336 1491q0 38 0.5 70.5t9.5 66t30 71.5t62 87l168 196q34 42 53 73t28 54t11 39t2 27q0 60 -21 99.5t-56 63t-79.5 33t-92.5 9.5q-37 0 -77.5 -9t-77 -33.5t-65.5 -66.5t-43 -108l-163 28q12 85 54 149t101.5 107.5t130.5 65.5t140 22q103 0 180 -25t129 -72t78 -113.5
t26 -149.5q0 -37 -8.5 -71t-26.5 -69t-46 -74t-66 -85l-156 -184q-23 -26 -33.5 -49.5t-14 -47.5t-2.5 -51t1 -61v-1090q0 -51 4.5 -94t22.5 -75t54 -50t99 -18h119v-156h-152q-90 0 -152 29t-100 81t-54.5 123.5t-16.5 155.5v1102z" />
    <glyph glyph-name="saraaimaimalaithai" unicode="&#xe44;" horiz-adv-x="885" 
d="M541 393q0 -51 4.5 -94t22.5 -75t54 -50t99 -18h119v-156h-148q-90 0 -152.5 29t-101.5 81t-56 123.5t-17 155.5v1553q0 35 6.5 81.5t23 96t46 98t75.5 88.5h-577v135h876l33 -139q-75 -2 -132.5 -27t-96.5 -71t-58.5 -111.5t-19.5 -146.5v-1553z" />
    <glyph glyph-name="lakkhangyaothai" unicode="&#xe45;" horiz-adv-x="1217" 
d="M8 1450q65 105 182 163t281 58q124 0 218 -35.5t156.5 -103t94 -165.5t31.5 -224v-1761h-172v1753q0 87 -17 158.5t-56 121.5t-101.5 77.5t-153.5 27.5q-115 0 -201 -41.5t-127 -118.5z" />
    <glyph glyph-name="maiyamokthai" unicode="&#xe46;" horiz-adv-x="1704" 
d="M504 1487l-45 -24.5t-42 -39t-31.5 -72.5t-12.5 -126q0 -46 1.5 -93.5t16.5 -86t49.5 -63t100.5 -24.5h16v-127h-45q-69 0 -127 19t-99.5 64.5t-65 121t-23.5 189.5q0 92 16.5 162t54.5 122t100 88.5t152 61.5l320 -266l311 266q63 -18 119 -48t97.5 -73.5t66 -101.5
t24.5 -133v-1921h-176v1916q0 59 -28 110t-87 79l-278 -234q-22 -15 -49.5 -16.5t-48.5 16.5z" />
    <glyph glyph-name="maitaikhuthai" unicode="&#xe47;" 
d="M-1135 2540q-49 0 -86.5 -21t-62.5 -51.5t-38 -64.5t-13 -60q0 -29 7.5 -58.5t22.5 -55.5t37 -47.5t51 -35.5l254 152q22 15 49.5 15t49.5 -15l262 -152q29 12 50.5 29.5t33.5 42.5t13.5 58.5t-7.5 78.5h156q15 -71 1.5 -132.5t-49.5 -110t-91.5 -81t-122.5 -44.5
l-295 184l-287 -184q-63 18 -117 48t-93.5 73t-62 101.5t-22.5 133.5q0 60 23 117.5t66.5 103t106 75t140.5 32.5h913v-131h-889z" />
    <glyph glyph-name="maiekthai" unicode="&#xe48;" 
d="M-414 3006h168v-344h-168v344z" />
    <glyph glyph-name="maithothai" unicode="&#xe49;" 
d="M98 2806v-144h-823v131q21 1 41 4q17 2 37 5t37 8q17 3 35.5 11.5t34.5 24.5t26 41t10 62q0 56 -39 86.5t-116 24.5v147q72 0 130 -13.5t99.5 -42t63.5 -73.5t22 -108q0 -44 -19.5 -88.5t-50.5 -75.5h512z" />
    <glyph glyph-name="maitrithai" unicode="&#xe4a;" 
d="M21 2798v-136h-386v258q0 43 -11 73t-27 49t-32.5 29t-27.5 13l-123 -135q-12 -15 -29 -22t-32 -7q-13 0 -27 8.5t-26 20.5l-148 135q-14 -3 -32 -11.5t-34.5 -26t-28 -46t-11.5 -71.5q0 -26 10.5 -50.5t30.5 -43.5t50 -30.5t68 -11.5v-143h-24q-62 0 -115 22t-92 59.5
t-61.5 86t-22.5 102.5q0 61 16.5 107.5t42.5 81t58 59.5t63 43q14 6 30 12t33.5 6.5t36.5 -6t39 -24.5l144 -127l119 127q15 17 34 23.5t38 6t35.5 -6t27.5 -11.5q34 -20 67 -45.5t59 -60t42 -80t16 -105.5v-122h230z" />
    <glyph glyph-name="maichattawathai" unicode="&#xe4b;" 
d="M-647 2875v144h241v221h160v-221h242v-144h-242v-213h-160v213h-241z" />
    <glyph glyph-name="thanthakhatthai" unicode="&#xe4c;" 
d="M-418 2462q0 90 23 145.5t59 86t80.5 40.5t87.5 10h320v-139h-299q-34 0 -54 -8.5t-30 -26t-12.5 -44.5t-2.5 -64h-172z" />
    <glyph glyph-name="nikhahitthai" unicode="&#xe4d;" 
d="M-602 2245q0 55 21 103.5t57 84.5t84.5 57t103.5 21q54 0 101.5 -21t83 -57t56.5 -84.5t21 -103.5q0 -54 -21 -102t-56.5 -83.5t-83 -56.5t-101.5 -21q-55 0 -103.5 21t-84.5 56.5t-57 83.5t-21 102zM-471 2245q0 -28 10.5 -52t29 -41.5t43 -27.5t52.5 -10t52.5 10
t43 27.5t29 41.5t10.5 52q0 29 -10.5 53.5t-29 42.5t-43 28.5t-52.5 10.5t-52.5 -10.5t-43 -28.5t-29 -42.5t-10.5 -53.5z" />
    <glyph glyph-name="yamakkanthai" unicode="&#xe4e;" 
d="M-197 2175q-18 0 -29 -11.5t-16 -31.5t-6.5 -47t-1.5 -57h-172q0 80 13 132t36 83t54.5 43t68.5 12q0 58 23 89t58 45t76 15.5t77 1.5h147v-139h-127q-34 0 -53.5 -5t-29.5 -19.5t-12.5 -41t-2.5 -69.5h-103z" />
    <glyph glyph-name="fongmanthai" unicode="&#xe4f;" horiz-adv-x="2109" 
d="M213 819q0 116 29.5 223t84 199.5t130 169t167.5 130.5t197 84t219 30q116 0 223 -30t199.5 -84t169 -130.5t130.5 -169t84 -199.5t30 -223q0 -113 -30 -218.5t-84 -197.5t-130.5 -167.5t-169 -130t-199.5 -84t-223 -29.5q-113 0 -218.5 29.5t-197.5 84t-167.5 130
t-130 167.5t-84 197t-29.5 219zM377 819q0 -91 24 -175.5t67 -158t104 -134.5t134.5 -104t158 -67t175.5 -24q93 0 179 24t161 67t136 104t104.5 134.5t67.5 158t24 175.5q0 140 -52.5 262.5t-143.5 213.5t-213.5 143.5t-262.5 52.5q-91 0 -175.5 -24t-158 -67.5
t-134.5 -104.5t-104 -136t-67 -161t-24 -179zM598 819q0 92 35 173.5t95.5 142t141 96t170.5 35.5q92 0 173.5 -35.5t142 -96t96 -142t35.5 -173.5q0 -90 -35.5 -170.5t-96 -141t-142 -95.5t-173.5 -35q-90 0 -170.5 35t-141 95.5t-95.5 141t-35 170.5zM762 819
q0 -57 22 -107.5t60 -88.5t88.5 -60t107.5 -22q58 0 110 22t90 60t60.5 88.5t22.5 107.5q0 58 -22.5 110t-60.5 90t-90 60.5t-110 22.5q-57 0 -107.5 -22.5t-88.5 -60.5t-60 -90t-22 -110z" />
    <glyph glyph-name="zerothai" unicode="&#xe50;" horiz-adv-x="1868" 
d="M934 123q91 1 171.5 23t148.5 61.5t121.5 94t91 121.5t57.5 144.5t20 161.5q0 124 -44 232t-124.5 188t-193 126t-248.5 48q-137 -2 -249.5 -48t-192.5 -126t-124 -188t-44 -232q0 -126 44 -236t124 -191.5t192.5 -129.5t249.5 -49zM934 1475q189 0 335.5 -58.5
t246.5 -159.5t152 -237t52 -291q0 -157 -52 -293.5t-152 -238t-246.5 -159.5t-335.5 -58t-335.5 58t-247 159.5t-152.5 238t-52 293.5q0 155 52 291t152.5 237t247 159.5t335.5 58.5z" />
    <glyph glyph-name="onethai" unicode="&#xe51;" horiz-adv-x="1868" 
d="M147 721q0 167 59.5 305t165 236.5t249.5 153t313 54.5q178 0 322 -59t245 -166t156 -258.5t55 -335.5q0 -177 -44.5 -318t-124.5 -253t-190.5 -198t-242.5 -152l-82 118q115 64 209.5 142t161.5 175.5t104 218.5t37 271q0 152 -47.5 275.5t-129.5 211t-192.5 135.5
t-236.5 50q-79 -1 -154.5 -21.5t-143 -57.5t-124 -90.5t-97.5 -120.5t-64 -146.5t-23 -169.5q0 -261 119.5 -389t359.5 -131q-2 0 -2.5 -22.5t0.5 -49.5q0 -32 2 -72q-180 0 -305.5 50t-204 139t-114.5 210.5t-36 264.5z" />
    <glyph glyph-name="twothai" unicode="&#xe52;" horiz-adv-x="2028" 
d="M348 1892v-1261q0 -91 29.5 -163.5t80.5 -128.5t120.5 -95.5t148.5 -65t164.5 -38t169.5 -13.5q84 1 164.5 13.5t152.5 38t132.5 65t104.5 95.5t68.5 128.5t24.5 163.5v221q0 77 -14.5 146.5t-43 125.5t-70.5 97t-97 61l-221 -205q-28 -31 -66 -31t-66 31l-176 205
q-77 -28 -122.5 -89t-61.5 -144l-164 53q18 77 54 138t85.5 107t111 77.5t130.5 50.5l205 -250l254 250q112 -31 194 -88.5t135 -134.5t79 -170.5t26 -196.5v-254q0 -169 -61 -291.5t-170 -201.5t-259.5 -116.5t-328.5 -37.5q-119 0 -231 16t-210.5 49.5t-181 85.5
t-141.5 123.5t-92 163t-33 205.5v1265h176z" />
    <glyph glyph-name="threethai" unicode="&#xe53;" horiz-adv-x="1995" 
d="M1057 1004q-31 -28 -63 -28t-60 28l-328 274q-51 -32 -101 -88.5t-90.5 -129t-65.5 -157.5t-25 -174q0 -123 28.5 -231.5t86 -189.5t144 -128.5t203.5 -48.5q-2 0 -2.5 -22.5t0.5 -49.5q0 -32 2 -71q-118 0 -211 30.5t-164 83.5t-121 124.5t-82 154t-46.5 171.5
t-14.5 177q0 132 35.5 248.5t97.5 212.5t145.5 169.5t180.5 119.5l389 -320l389 320q97 -46 181.5 -119t147 -168t98.5 -211t36 -248q0 -125 -22.5 -233.5t-60 -202t-86.5 -171t-101 -138.5l-143 82q38 52 80 117t77 146t57.5 179.5t22.5 216.5q0 89 -21 173.5t-58.5 156.5
t-88 128.5t-110.5 90.5z" />
    <glyph glyph-name="fourthai" unicode="&#xe54;" horiz-adv-x="2089" 
d="M1208 143q-32 26 -63 65t-55 87t-39 103t-15 114q0 114 32.5 196t95.5 135t155.5 78t212.5 25h45v-143h-29q-77 0 -139.5 -14t-107 -47t-69 -88t-24.5 -138q0 -185 107 -277.5t307 -95.5h164v-143h-926q-178 0 -311.5 55t-223 152.5t-134 231t-44.5 290.5q0 155 44.5 288
t134 230t223 152t311.5 55h758l303 303l119 -115l-336 -331h-844q-126 -2 -225.5 -46t-168.5 -122t-105.5 -184t-36.5 -230q0 -126 36.5 -233.5t105.5 -185.5t168.5 -122.5t225.5 -44.5h348z" />
    <glyph glyph-name="fivethai" unicode="&#xe55;" horiz-adv-x="2089" 
d="M1618 1454l311 303l119 -110l-352 -336h-836q-126 -2 -225.5 -46t-168.5 -122t-105.5 -184t-36.5 -230q0 -126 36.5 -233.5t105.5 -185.5t168.5 -122.5t225.5 -44.5h340q-32 26 -63 65t-55 87t-39 103t-15 114q0 114 32.5 196t95.5 135t155.5 78t212.5 25h45v-143h-29
q-77 0 -139.5 -14t-107 -47t-69 -88t-24.5 -138q0 -185 107 -277.5t307 -95.5h172v-143h-926q-178 0 -311.5 55t-223 152.5t-134 231t-44.5 290.5q0 155 44.5 288t134 230t223 152t311.5 55h148q-37 55 -37 123q0 55 21 103.5t57 84.5t84.5 57t103.5 21q54 0 101.5 -21
t83 -57t56.5 -84.5t21 -103.5q0 -68 -37 -123h156zM1102 1577q0 -28 10.5 -52t29 -41.5t43 -27.5t52.5 -10t52.5 10t43 27.5t29 41.5t10.5 52q0 29 -10.5 54t-29 43t-43 28t-52.5 10t-52.5 -10t-43 -28t-29 -43t-10.5 -54z" />
    <glyph glyph-name="sixthai" unicode="&#xe56;" horiz-adv-x="2028" 
d="M369 496q-6 63 2 114t25 91.5t40.5 70.5t49 52t49.5 37t43 24l86 -140l-44.5 -29.5t-39.5 -42t-26.5 -68t-4.5 -105.5q4 -56 29 -104.5t65.5 -87.5t93 -69t111 -50.5t120.5 -31t122 -10.5q149 0 263.5 43.5t192.5 121.5t118 184.5t40 232.5q0 124 -40.5 232.5t-119 189.5
t-193 127.5t-261.5 48.5q-100 0 -177.5 -13.5t-140 -37t-114.5 -55t-101 -66.5l-487 492l118 114l394 -405q40 20 94.5 41.5t119.5 39.5t139.5 30t154.5 12q199 0 347.5 -59t247 -161t147 -238.5t48.5 -291.5q0 -157 -49 -292.5t-148 -235t-247 -156.5t-346 -57
q-162 0 -290.5 39.5t-221 108.5t-146 161.5t-63.5 198.5z" />
    <glyph glyph-name="seventhai" unicode="&#xe57;" horiz-adv-x="2073" 
d="M1901 692q0 -134 -32 -245.5t-79 -200t-100.5 -153.5t-96.5 -105l-143 82q38 41 85.5 97.5t89.5 131.5t70.5 171.5t28.5 217.5q0 98 -31 188t-80.5 166.5t-110 135.5t-118.5 96l-311 -275q-31 -27 -63 -27t-60 27l-311 275q-52 -43 -108 -96.5t-102 -123t-75.5 -159.5
t-29.5 -207q0 -134 36 -237.5t99.5 -174.5t149.5 -108t186 -37q-2 0 -2.5 -22.5t0.5 -49.5q0 -32 2 -71q-116 0 -209 28t-165 77t-123.5 116t-85 144.5t-49.5 163t-16 171.5q0 152 43 275t113.5 220t160 170t183.5 126l365 -320l364 320q27 -10 60 -29.5t68.5 -45t71 -55.5
t65.5 -62t53 -63.5t35 -60.5v594h172v-1065z" />
    <glyph glyph-name="eightthai" unicode="&#xe58;" horiz-adv-x="2019" 
d="M1774 512q0 -86 -23.5 -160t-71.5 -138.5t-121.5 -120.5t-173.5 -105l-376 319l-377 -319q-97 46 -184.5 119.5t-154 169.5t-106 212t-39.5 248q0 88 17 175.5t52.5 167t90 148t129 119t170 79t213.5 28.5h758l295 303l119 -115l-328 -331h-844q-117 -2 -208.5 -45.5
t-155.5 -120t-97.5 -181t-33.5 -227.5q0 -89 26.5 -168.5t68.5 -147.5t94.5 -124.5t104.5 -99.5l328 270q28 28 60 28t63 -28l328 -279q46 22 85 53t67.5 71.5t44.5 91t16 112.5q0 49 -13 88.5t-34.5 70t-49.5 53.5t-59 38l45 147q63 -21 114 -56t86.5 -84.5t55 -114.5
t19.5 -146z" />
    <glyph glyph-name="ninethai" unicode="&#xe59;" horiz-adv-x="2249" 
d="M889 -20q-178 0 -316.5 58t-233 159.5t-143.5 238t-49 293.5q0 155 49.5 291t144.5 237t233 159.5t315 58.5q95 0 176 -23.5t150.5 -67.5t129 -108t113.5 -146q8 75 31 136t67.5 103.5t113.5 65.5t169 23h320v-135h-291q-74 0 -123.5 -16t-81 -43.5t-47.5 -66t-23 -83
t-7.5 -93.5t-0.5 -99l451 -852l-152 -70l-495 926q-111 205 -233.5 301t-266.5 96q-126 0 -230 -46t-178.5 -126.5t-115.5 -189t-41 -232.5q0 -126 41 -235.5t115.5 -190.5t178.5 -128t230 -48v-147z" />
    <glyph glyph-name="angkhankhuthai" unicode="&#xe5a;" horiz-adv-x="2208" 
d="M1782 1655h180v-1655h-180v1655zM1249 831q-29 -46 -81.5 -83t-115.5 -63t-131.5 -40t-129.5 -14q-143 0 -259.5 39t-199 112t-127.5 178.5t-45 239.5q0 97 24.5 180t74 144t124 96t174.5 35h152v-156h-123q-72 0 -121 -21.5t-78.5 -60.5t-42 -94.5t-12.5 -122.5
q0 -100 30 -177.5t88.5 -131t144 -81.5t196.5 -28q226 0 342 121t116 359v393h181v-1655h-181v831z" />
    <glyph glyph-name="khomutthai" unicode="&#xe5b;" horiz-adv-x="3621" 
d="M3379 893v-131h-618l-131 176l-43.5 -89l-56 -108l-63 -116.5l-64.5 -115l-61.5 -103.5l-51.5 -82l-77.5 140l-97 165t-107 166t-107.5 143q-28 -183 -101.5 -335t-184 -261.5t-252.5 -170t-306 -60.5q-206 0 -360.5 56.5t-257.5 155t-154.5 232.5t-51.5 289
q0 113 25 207.5t68.5 169.5t102 131t125.5 93.5t139 56t143 18.5q73 0 127.5 -13t95 -32.5t69.5 -42.5t52 -43l-115 -127q-59 52 -117.5 75t-120.5 23q-80 0 -156.5 -33t-136.5 -97.5t-96.5 -161.5t-36.5 -224q0 -155 54.5 -265.5t145.5 -181t208.5 -103t243.5 -32.5
q91 0 177 29.5t161.5 81t138 122.5t108 154t70.5 174.5t25 184.5q0 55 -7 105t-22 99l119 86q35 -35 76 -85l85 -109l89 -123l86.5 -126.5l78 -120l64.5 -103.5l42.5 75.5l48 89.5l48.5 95l45.5 92l38.5 81t27 62l78 25l188 -258h561z" />
    <glyph glyph-name="saraulowthai" unicode="&#xf718;" 
d="M-422 -877q0 48 -6 76.5t-20 43.5t-36.5 19.5t-56.5 4.5h-49l-8 151h78q77 0 129.5 -11t84.5 -42.5t46 -88t14 -148.5v-226h-176v221z" />
    <glyph glyph-name="sarauulowthai" unicode="&#xf719;" 
d="M-868 -815q0 49 -17.5 65.5t-60.5 16.5h-53l-5 147h103q58 0 97 -11.5t62 -36t32.5 -64.5t9.5 -97v-20q0 -23 6.5 -48.5t23 -46.5t44 -34.5t69.5 -13.5q43 0 70 13.5t42.5 34.5t21 46.5t5.5 48.5v229h172v-229q0 -65 -23.5 -117.5t-64.5 -90.5t-98.5 -58.5t-124.5 -20.5
q-72 0 -130 20.5t-98 58.5t-61.5 90.5t-21.5 117.5z" />
    <glyph glyph-name="phinthulowthai" unicode="&#xf71a;" 
d="M-520 -709q0 28 10.5 52.5t29 43t43 29.5t52.5 11t52.5 -11t43 -29.5t29 -43t10.5 -52.5q0 -27 -10.5 -51.5t-29 -43t-43 -29.5t-52.5 -11t-52.5 11t-43 29.5t-29 43t-10.5 51.5z" />
    <glyph glyph-name="rulakkhangyao" unicode="&#xf881;" horiz-adv-x="2978" 
d="M1769 1450q65 105 182 163t281 58q124 0 218 -35.5t156.5 -103t94 -165.5t31.5 -224v-1761h-172v1753q0 87 -17 158.5t-56 121.5t-101.5 77.5t-153.5 27.5q-114 0 -200.5 -41.5t-126.5 -118.5zM274 377q0 -88 18 -158t56.5 -118.5t99 -74.5t146.5 -26h151v156h-118
q-60 0 -96 16t-54.5 45.5t-24.5 71t-6 92.5v668l-131 200q54 75 118 127t133.5 84t141 46t140.5 14q121 0 216 -28t161 -86.5t100.5 -150.5t34.5 -219v-1654h172v1654q0 152 -41.5 270.5t-126 199.5t-212.5 123t-300 42q-246 0 -426 -107.5t-303 -322.5l151 -217v-647z" />
    <glyph glyph-name="lulakkhangyao" unicode="&#xf882;" horiz-adv-x="3052" 
d="M1430 1036q0 130 -37 222t-104 150.5t-161.5 85t-209.5 26.5q-69 0 -140 -13.5t-139 -44.5t-132.5 -82.5t-121.5 -126.5l135 -204v-672q0 -85 -17.5 -146t-46.5 -103t-66 -67t-76 -38.5t-77 -18t-69 -4.5l-29 156q80 -3 122 21.5t60.5 64.5t20.5 87t2 89v606l-151 217
q122 215 302.5 322.5t426.5 107.5q172 0 299.5 -42t212.5 -123t127.5 -199.5t44.5 -270.5v-1650h-176v1650zM1843 1450q65 105 182 163t281 58q124 0 218 -35.5t156.5 -103t94 -165.5t31.5 -224v-1761h-172v1753q0 87 -17 158.5t-56 121.5t-101.5 77.5t-153.5 27.5
q-115 0 -201 -41.5t-127 -118.5z" />
    <glyph glyph-name="lochula.short" unicode="&#xf71d;" horiz-adv-x="2200" 
d="M1761 0h-176l-495 1368l-496 -1368h-180l-267 1655h181l204 -1401l488 1401h139l488 -1401l151 1024q16 111 -40 166.5t-189 58.5v152h139q57 0 99 14t72 39.5t49 60.5t30 78l37 135h180l-53 -188q-15 -55 -39.5 -97t-56.5 -73.5t-70.5 -54t-83.5 -37.5
q62 -50 86.5 -114.5t11.5 -135.5z" />
    <glyph glyph-name="uni25CC" unicode="&#x25cc;" horiz-adv-x="2298" 
d="M889 614l-164 -53l53 164q45 -66 111 -111zM1069 1417l82 156l74 -152q-37 4 -70 4q-45 0 -86 -8zM1217 537l-66 -144l-74 144q37 -9 78 -9q33 0 62 9zM1593 1053l144 -78l-144 -62q9 29 9 62q0 37 -9 78zM713 905l-156 78l156 78q-8 -45 -8 -86q0 -37 8 -70zM791 1245
l-46 156l156 -53q-65 -41 -110 -103zM1507 705l41 -144l-139 45q57 41 98 99zM1405 1348l172 53l-61 -160q-46 62 -111 107z" />
    <glyph glyph-name="yamakkanleftthai" 
d="M-864 2171q-18 0 -29 -11.5t-16.5 -31.5t-7 -47t-1.5 -58h-172q0 80 13 132.5t36 83t54.5 43t68.5 12.5q0 58 23.5 89t58.5 44.5t76 15.5t76 2h119v-139h-99q-34 0 -53.5 -5t-29.5 -19.5t-12.5 -41t-2.5 -69.5h-102z" />
    <glyph glyph-name="copyright" unicode="&#xa9;" horiz-adv-x="2630" 
d="M2421 1085q0 -152 -39 -294t-110.5 -265t-172 -224.5t-223 -174t-265 -112.5t-296.5 -40q-152 0 -293.5 40t-264.5 112.5t-224 174t-173 224.5t-111.5 264.5t-39.5 294.5q0 154 39.5 296t111.5 265t173 224.5t224 173.5t264 111.5t294 39.5q154 0 296.5 -39.5t265 -111.5
t223 -173.5t172 -224.5t110.5 -265t39 -296zM2277 1085q0 130 -35 252.5t-98.5 230t-152.5 196.5t-195.5 153t-228.5 99.5t-252 35.5q-129 0 -250 -35.5t-227 -99.5t-194 -153t-151 -196.5t-98 -230t-35 -252.5t35 -252t98 -229.5t151 -196.5t194 -153t227 -99.5t250 -35.5
q130 0 252 35.5t228.5 99.5t195.5 153t152.5 196.5t98.5 229.5t35 252zM1737 610q-48 -40 -93 -69.5t-93.5 -49.5t-103 -30t-120.5 -10q-141 0 -243.5 50t-168.5 136.5t-97.5 201.5t-31.5 246t31.5 246.5t97.5 202t168.5 136.5t243.5 50q66 0 120 -9.5t102.5 -29.5t94.5 -51
t97 -74l-107 -102q-41 40 -77.5 65.5t-72.5 40t-74 20t-83 5.5q-114 0 -190 -40.5t-122 -109.5t-65.5 -159.5t-19.5 -190.5t19.5 -190.5t65.5 -159t122 -109t190 -40.5q45 0 83 5.5t74 20t72.5 40t77.5 65.5l103 -99v-8z" />
    <glyph glyph-name="registered" unicode="&#xae;" horiz-adv-x="2630" 
d="M2421 1085q0 -152 -39 -294t-110.5 -265t-172 -224.5t-223 -174t-265 -112.5t-296.5 -40q-152 0 -293.5 40t-264.5 112.5t-224 174t-173 224.5t-111.5 264.5t-39.5 294.5q0 154 39.5 296t111.5 265t173 224.5t224 173.5t264 111.5t294 39.5q154 0 296.5 -39.5t265 -111.5
t223 -173.5t172 -224.5t110.5 -265t39 -296zM2277 1085q0 131 -35 254t-98 230t-151.5 196t-195.5 153t-229 99t-253 35q-130 0 -251.5 -35t-228 -99t-195 -153t-151.5 -196t-98 -230t-35 -254q0 -130 35 -252.5t98 -230t151.5 -197.5t195 -154.5t228 -100t251.5 -35.5
q131 0 253 35.5t229 100t195.5 154.5t151.5 197.5t98 230t35 252.5zM1602 475l-295 504h-197v-504h-143v1225h393q78 0 147.5 -27t121.5 -75.5t82 -115.5t30 -147q0 -66 -20.5 -120t-56.5 -96t-86 -73t-108 -51l304 -520h-172zM1597 1335q0 51 -19.5 94.5t-53.5 75.5
t-80.5 50t-100.5 18h-233v-459h233q54 0 100.5 16t80.5 45.5t53.5 70t19.5 89.5z" />
    <glyph glyph-name="trademark" unicode="&#x2122;" horiz-adv-x="2490" 
d="M2163 823v942l-332 -622h-135l-332 622v-942h-143v1245h139l405 -778l402 778h139v-1245h-143zM614 1950v-1127h-139v1127h-373v118h889v-118h-377z" />
    <glyph glyph-name="multiply" unicode="&#xd7;" horiz-adv-x="1659" 
d="M1327 250l-500 500l-495 -500l-103 102l504 500l-504 500l103 94l495 -496l500 496l103 -94l-500 -500l500 -500z" />
    <glyph glyph-name="divide" unicode="&#xf7;" horiz-adv-x="1659" 
d="M168 774v152h1319v-152h-1319zM692 1384q0 29 10.5 54t28.5 43t42.5 28.5t53.5 10.5t54 -10.5t43 -28.5t28.5 -43t10.5 -54q0 -27 -10.5 -51.5t-28.5 -43t-43 -29.5t-54 -11t-53.5 11t-42.5 29.5t-28.5 43t-10.5 51.5zM692 311q0 29 10.5 54t28.5 43t42.5 28t53.5 10
t54 -10t43 -28t28.5 -43t10.5 -54t-10.5 -54t-28.5 -43t-43 -28t-54 -10t-53.5 10t-42.5 28t-28.5 43t-10.5 54z" />
    <glyph glyph-name="ZWSP" unicode="&#x200b;" 
 />
    <glyph glyph-name="yoyingthai" unicode="&#xe0d;" horiz-adv-x="2728" 
d="M1503 0q0 -68 31 -105.5t96 -37.5h852v-140h-885q-43 0 -87 12t-80 43.5t-59 86.5t-23 141h155zM274 1024l-151 217q123 215 303 322.5t426 107.5q172 0 300 -42t212.5 -123t126 -199.5t41.5 -270.5v-295q0 -118 25 -211t74 -157t122 -97.5t168 -33.5t168 33.5t122 97.5
t74 157t25 211v914h172v-950q0 -125 -30.5 -236.5t-97 -195.5t-171.5 -133.5t-254 -49.5q-143 0 -249.5 41t-177.5 120t-106.5 193.5t-35.5 260.5v331q0 127 -34.5 219t-100.5 150.5t-161 86.5t-216 28q-69 0 -140.5 -14t-141 -46t-133.5 -84t-118 -127l131 -200v-668
q0 -51 6 -92.5t24.5 -71t54.5 -45.5t96 -16h118v-156h-151q-86 0 -146.5 26t-99 74.5t-56.5 118.5t-18 158v647z" />
    <glyph glyph-name="sterling" unicode="&#xa3;" horiz-adv-x="1544" 
d="M299 0v991h-201v119h201v344q0 144 45.5 261t129.5 199t203.5 126.5t268.5 44.5q151 0 270.5 -45.5t217.5 -130.5l-119 -119q-34 31 -69 59t-78 49.5t-97 34.5t-125 13q-114 0 -202 -34.5t-149 -100.5t-92.5 -162t-31.5 -219v-320h479v-119h-479v-844h959v-147h-1131z
" />
    <glyph glyph-name="yen" unicode="&#xa5;" horiz-adv-x="1634" 
d="M1073 1184h328v-119h-389l-107 -205v-123h496v-114h-496v-623h-172v623h-504v114h504v123l-115 205h-389v119h328l-467 884h184l553 -1040l541 1040h180z" />
    <glyph glyph-name="cent" unicode="&#xa2;" horiz-adv-x="1606" 
d="M1343 565q-54 -60 -106 -100.5t-106 -66.5t-112 -38.5t-122 -15.5v-278h-139v286q-128 15 -229.5 72t-172.5 150t-109 218t-38 277q0 154 38 280t109 219.5t172.5 151t229.5 74.5v225h139v-225q61 -2 119 -14t114 -37.5t110 -66.5t108 -99l-111 -102q-45 48 -85.5 81.5
t-81.5 55t-83 33t-90 14.5v-1176q46 3 89 15t84 34.5t82.5 56t84.5 79.5l106 -95v-8zM758 1647q-105 -19 -178.5 -72.5t-120.5 -131t-68.5 -173.5t-21.5 -201q0 -97 20 -191.5t65.5 -173.5t120 -135.5t183.5 -76.5v1155z" />
    <glyph glyph-name="Euro" unicode="&#x20ac;" horiz-adv-x="1851" 
d="M1679 590q-24 -141 -86 -254t-154 -192t-210 -121.5t-254 -42.5q-149 0 -283.5 55t-236.5 158q-59 57 -95 115.5t-57 128.5t-29.5 157t-11.5 201h-217v147h217v94q0 65 -1.5 123t1.5 111h-217v147h225q6 80 18 144t33 118t53.5 101.5t80.5 95.5q102 105 236.5 159
t283.5 54q138 0 256 -41.5t209.5 -120.5t153 -192t85.5 -256h-168q-21 107 -69 193t-117.5 146t-158 92t-191.5 32q-109 0 -208.5 -39.5t-176.5 -116.5q-37 -35 -63 -73t-43.5 -82.5t-28.5 -97t-17 -116.5h561v-147h-573v-234v-94h573v-147h-573q3 -99 12.5 -173t28 -133.5
t48.5 -107.5t75 -94q77 -78 176.5 -119t208.5 -41q103 0 192 33t160 94t120.5 147.5t72.5 192.5h155z" />
    <glyph glyph-name="onequarter" unicode="&#xbc;" horiz-adv-x="2335" 
d="M2040 193v-193h-144v193h-520v114l475 942h148l-467 -938h364v353h144v-353h160v-118h-160zM684 0h-168l1016 2068h164zM385 823v1094l-242 -209v160l242 200h143v-1245h-143z" />
    <glyph glyph-name="onehalf" unicode="&#xbd;" horiz-adv-x="2335" 
d="M1462 0v123l516 618q31 47 48.5 88t17.5 84q0 51 -15 92t-43 70t-68 44.5t-91 15.5q-43 0 -83.5 -12.5t-72 -39.5t-50.5 -70t-19 -104h-140q0 78 25.5 142.5t72.5 110t115 70.5t152 25q81 0 148 -24.5t115 -69.5t74.5 -108.5t26.5 -141.5q0 -37 -6 -69t-19 -63t-33 -61.5
t-48 -64.5l-447 -532h553v-123h-729zM635 0h-164l1012 2068h164zM385 823v1094l-242 -209v160l242 200h143v-1245h-143z" />
    <glyph glyph-name="threequarters" unicode="&#xbe;" horiz-adv-x="2335" 
d="M2114 193v-193h-140v193h-520v114l463 942h156l-467 -938h368v353h140v-353h155v-118h-155zM897 0h-160l1016 2068h164zM918 1176q0 -92 -29 -160t-80.5 -112.5t-122.5 -66.5t-154 -22q-78 0 -147.5 19.5t-122 61t-84.5 105t-35 150.5h144q4 -59 26.5 -100.5t56 -68.5
t76 -39.5t86.5 -12.5q52 0 97 16.5t78 48t52 77t19 104.5q0 104 -61 164.5t-193 60.5h-28v123h28q120 0 175 57.5t55 155.5q0 55 -18 96.5t-49 69t-72 41.5t-87 14q-99 0 -157.5 -52.5t-67.5 -148.5h-143q7 75 38 136t80 103.5t112.5 65.5t137.5 23q83 0 152 -24t118 -68.5
t76 -108t27 -143.5q0 -93 -42.5 -163.5t-129.5 -111.5q99 -34 144 -106.5t45 -183.5z" />
    <glyph glyph-name="saraamleft" horiz-adv-x="1225" 
d="M-1114 2245q0 55 21 103.5t57 84.5t84.5 57t103.5 21q54 0 101.5 -21t83 -57t56.5 -84.5t21 -103.5q0 -54 -21 -102t-56.5 -83.5t-83 -56.5t-101.5 -21q-55 0 -103.5 21t-84.5 56.5t-57 83.5t-21 102zM-983 2245q0 -28 10.5 -52t29 -41.5t43 -27.5t52.5 -10t52.5 10
t43 27.5t29 41.5t10.5 52q0 29 -10.5 53.5t-29 42.5t-43 28.5t-52.5 10.5t-52.5 -10.5t-43 -28.5t-29 -42.5t-10.5 -53.5zM16 1450q65 105 182 163t281 58q124 0 218 -35.5t156.5 -103t94 -165.5t31.5 -224v-1143h-172v1135q0 87 -17 158.5t-56 121.5t-101.5 77.5
t-153.5 27.5q-114 0 -200.5 -41.5t-126.5 -118.5z" />
    <glyph glyph-name="uni0E33.alt1" horiz-adv-x="1225" 
d="M-1114 2245q0 55 21 103.5t57 84.5t84.5 57t103.5 21q54 0 101.5 -21t83 -57t56.5 -84.5t21 -103.5q0 -54 -21 -102t-56.5 -83.5t-83 -56.5t-101.5 -21q-55 0 -103.5 21t-84.5 56.5t-57 83.5t-21 102zM-983 2245q0 -28 10.5 -52t29 -41.5t43 -27.5t52.5 -10t52.5 10
t43 27.5t29 41.5t10.5 52q0 29 -10.5 53.5t-29 42.5t-43 28.5t-52.5 10.5t-52.5 -10.5t-43 -28.5t-29 -42.5t-10.5 -53.5zM16 1450q65 105 182 163t281 58q124 0 218 -35.5t156.5 -103t94 -165.5t31.5 -224v-1143h-172v1135q0 87 -17 158.5t-56 121.5t-101.5 77.5
t-153.5 27.5q-114 0 -200.5 -41.5t-126.5 -118.5z" />
    <glyph glyph-name="guillemotleft" unicode="&#xab;" horiz-adv-x="1700" 
d="M803 856l635 631v-217l-422 -414l422 -422v-209zM135 856l635 631v-217l-422 -414l422 -422v-209z" />
    <glyph glyph-name="guillemotright" unicode="&#xbb;" horiz-adv-x="1700" 
d="M930 225v209l422 422l-422 414v217l635 -631zM266 225v209l418 422l-418 414v217l631 -631z" />
    <glyph glyph-name="thothannobasethai" unicode="&#xf700;" horiz-adv-x="1495" 
d="M1298 1909l119 -115l-327 -324q68 -74 105.5 -177t37.5 -236v-1057h-176v549q0 69 -11.5 121t-40 87t-76.5 52.5t-122 17.5h-283v144h316q44 0 78 -6t59.5 -16t45 -23.5t34.5 -28.5v115q0 248 -115 378t-348 130q-74 0 -142.5 -17t-125.5 -50.5t-100 -84.5t-66 -119
q-45 21 -80 39q-15 7 -29.5 14.5l-25.5 13.5l-18 10t-7 5q35 83 92 146.5t132.5 106.5t168.5 65t201 22q111 0 200 -24.5t173 -73.5z" />
    <glyph glyph-name="exclam" unicode="!" horiz-adv-x="983" 
d="M614 618h-155l-13 1450h181zM410 115q0 27 9.5 50.5t26.5 40.5t40 26.5t51 9.5q27 0 50.5 -9.5t40.5 -26.5t26.5 -40.5t9.5 -50.5q0 -28 -9.5 -51t-26.5 -40t-40.5 -26.5t-50.5 -9.5q-56 0 -91.5 35.5t-35.5 91.5z" />
    <glyph glyph-name="quotedbl" unicode="&#x22;" horiz-adv-x="1315" 
d="M803 1585v500h205v-500h-205zM303 1585v500h205v-500h-205z" />
    <glyph glyph-name="numbersign" unicode="#" horiz-adv-x="1995" 
d="M1507 1274q-18 -112 -38 -219.5t-35 -218.5h290v-136h-315l-115 -704h-168l123 704h-528l-111 -704h-164l115 704h-295v136h316l69 438h-295v143h316l114 668h164l-110 -668h528l107 668h159l-106 -668h282v-143h-303zM807 1282l-70 -455h537l78 455h-545z" />
    <glyph glyph-name="dollar" unicode="$" horiz-adv-x="1688" 
d="M1565 565q0 -126 -48 -228t-135.5 -177t-211 -121t-273.5 -59v-316h-143v316q-103 4 -192 24t-169 55.5t-153.5 86t-145.5 116.5l127 119q64 -62 126 -106t126.5 -74t133.5 -46t147 -20v856l-41 4q-125 12 -229 50.5t-179 105t-116.5 161.5t-41.5 220q0 123 44 223.5
t124 174t192 118.5t247 57v258h143v-258q86 -5 160.5 -20.5t142.5 -43t131.5 -67.5t126.5 -94l-115 -111q-46 39 -93 72.5t-100.5 60t-115.5 43t-137 21.5v-844l86 -12q136 -19 240 -57.5t176.5 -104t113.5 -159.5t52 -224zM754 1966q-102 -11 -183 -45.5t-138 -89
t-87.5 -128.5t-30.5 -163q0 -100 34.5 -169.5t94 -115t139.5 -72t171 -40.5v823zM1393 557q4 61 -11.5 112t-46 93.5t-72.5 75.5t-91 57t-102.5 40t-106.5 23l-66 9v-832q111 8 202 40.5t156.5 86.5t101.5 128.5t36 166.5z" />
    <glyph glyph-name="percent" unicode="%" horiz-adv-x="2425" 
d="M2273 377q0 -89 -30 -163t-84 -127t-129.5 -82.5t-165.5 -29.5q-91 0 -165.5 29.5t-128 82.5t-83 127t-29.5 163v311q0 89 29.5 162.5t83 125.5t128 80.5t165.5 28.5q90 0 165.5 -28.5t129.5 -80.5t84 -125.5t30 -162.5v-311zM786 0h-143l1008 2068h147zM967 1384
q0 -84 -30 -155.5t-84 -123.5t-128.5 -81t-163.5 -29q-91 0 -165 29t-126.5 81t-81 123.5t-28.5 155.5v316q0 89 28.5 162t81 125.5t126.5 81t165 28.5q89 0 163.5 -28.5t128.5 -81t84 -125.5t30 -162v-316zM2130 680q0 64 -15 117t-47.5 91t-83 58.5t-120.5 20.5
q-69 0 -119 -20t-81.5 -57.5t-46.5 -90.5t-15 -119v-299q0 -63 15 -115t46.5 -89.5t81.5 -58t119 -20.5q70 0 120.5 21t83 59t47.5 89.5t15 113.5v299zM823 1700q0 61 -15 111.5t-47 86.5t-81.5 56t-118.5 20t-118.5 -20t-81.5 -56t-47 -86.5t-15 -111.5v-307
q0 -65 15 -116.5t47 -87.5t81.5 -55.5t118.5 -19.5q67 0 116.5 20t82 56.5t48 88t15.5 114.5v307z" />
    <glyph glyph-name="ampersand" unicode="&#x26;" horiz-adv-x="2187" 
d="M1757 0l-209 238q-35 -29 -95.5 -73t-144.5 -85t-191 -70.5t-236 -29.5q-152 0 -277.5 43t-215 122t-138.5 189t-49 244q0 124 42 218t111.5 170t158.5 138.5l183 124.5l-83.5 100.5t-76.5 110.5t-55.5 121t-21.5 131q0 89 34.5 165t94.5 132t141.5 88t175.5 32
t175.5 -32.5t142 -89t95 -133.5t34.5 -166q0 -64 -17.5 -115.5t-48 -94.5t-71 -79t-86.5 -68.5t-95 -63.5l-96 -63l623 -712q32 52 55 101.5t38 108t22 131t7 171.5h168q0 -197 -41.5 -356.5t-142.5 -278.5l77 -90l80 -94.5l79.5 -94.5l74.5 -90h-221zM1184 1688
q0 57 -22 106.5t-60.5 87t-89 59t-107.5 21.5q-58 0 -108 -20.5t-87 -55.5t-58 -83t-21 -103q0 -39 11.5 -76.5t36.5 -82t65.5 -98.5t99.5 -124q48 34 106 69t108.5 78t86 96.5t39.5 125.5zM799 1114l-150.5 -100.5t-136 -113t-98 -138t-37.5 -176.5q0 -103 36.5 -187
t102.5 -143.5t158 -92t203 -32.5q64 0 131.5 10t138.5 35t146.5 68.5t156.5 111.5z" />
    <glyph glyph-name="quotesingle" unicode="'" horiz-adv-x="815" 
d="M303 1585v500h205v-500h-205z" />
    <glyph glyph-name="parenleft" unicode="(" horiz-adv-x="913" 
d="M590 -303l-72 69t-57.5 60t-46 60t-37.5 69q-40 74 -53 149.5t-13 149.5v1786q0 40 3 77t10.5 74t20 74.5t32.5 77.5q17 37 37.5 67.5t46 59.5t57.5 59.5l72 67.5l106 -111l-51 -52.5t-47 -50.5t-41 -51t-33 -55q-24 -52 -34.5 -116t-10.5 -142v-1745q0 -77 10.5 -139
t34.5 -115q14 -30 33 -57t41 -52.5t47 -50.5l51 -53z" />
    <glyph glyph-name="parenright" unicode=")" horiz-adv-x="913" 
d="M602 254q0 -37 -1.5 -74.5t-7 -75t-17 -75t-31.5 -74.5q-22 -38 -44.5 -69t-48.5 -60l-55.5 -60l-64.5 -69l-123 119l99.5 102.5t72.5 106.5q28 52 36.5 113.5t8.5 135.5v1745q0 75 -8.5 138.5t-36.5 115.5q-28 56 -72 104t-100 101l123 119l64.5 -67.5l55.5 -59.5
t48.5 -59.5t44.5 -67.5q20 -40 31.5 -77.5t17 -74.5t7 -74t1.5 -77v-1786v0z" />
    <glyph glyph-name="asterisk" unicode="*" horiz-adv-x="1507" 
d="M1200 1221l-385 233l8 -455h-143l8 455l-385 -233l-70 118l394 222l-394 217l70 123l385 -234l-8 455h143l-8 -455l385 234l70 -123l-393 -217l393 -222z" />
    <glyph glyph-name="plus" unicode="+" horiz-adv-x="1696" 
d="M930 774v-581h-156v581h-586v152h586v581h156v-581h577v-152h-577z" />
    <glyph glyph-name="comma" unicode="," horiz-adv-x="831" 
d="M303 -438v659h221v-442z" />
    <glyph glyph-name="hyphen" unicode="-" horiz-adv-x="1376" 
d="M266 774v152h844v-152h-844z" />
    <glyph glyph-name="period" unicode="." horiz-adv-x="852" 
d="M287 119q0 29 10.5 54t29 43t43 28t52.5 10q29 0 54 -10t43 -28t28 -43t10 -54t-10 -54t-28 -43t-43 -28t-54 -10q-28 0 -52.5 10t-43 28t-29 43t-10.5 54z" />
    <glyph glyph-name="slash" unicode="/" horiz-adv-x="1090" 
d="M168 -238h-168l918 2773h172z" />
    <glyph glyph-name="zero" unicode="0" horiz-adv-x="1495" 
d="M1327 541q0 -122 -43 -224t-121 -176t-185.5 -115.5t-236.5 -41.5q-128 0 -233 41.5t-181 115.5t-117.5 176t-41.5 224v999q0 121 41.5 221.5t117.5 172.5t181 111.5t233 39.5q129 0 236.5 -39.5t185.5 -111.5t121 -172.5t43 -221.5v-999zM1159 1524q0 90 -26.5 168.5
t-79 136.5t-131 91.5t-181.5 33.5q-100 0 -176.5 -33.5t-128 -91.5t-78 -136.5t-26.5 -168.5v-975q0 -86 26.5 -164t78 -137t128 -94t176.5 -35q103 0 181.5 35t131 94t79 137t26.5 164v975z" />
    <glyph glyph-name="one" unicode="1" horiz-adv-x="1495" 
d="M766 0v1892l-397 -336v189l397 323h168v-2068h-168z" />
    <glyph glyph-name="two" unicode="2" horiz-adv-x="1495" 
d="M176 0v139l881 1082q59 80 89 156t30 163q0 92 -28.5 167.5t-82.5 129.5t-131.5 83.5t-175.5 29.5q-83 0 -158.5 -24t-133.5 -74t-92 -128.5t-34 -187.5h-164q0 118 39.5 218.5t114.5 174t183 115t245 41.5q133 0 241.5 -38t184.5 -108.5t117.5 -171.5t41.5 -227
q0 -59 -9 -109.5t-27.5 -98.5t-48 -95t-70.5 -98l-815 -1000h970v-139h-1167z" />
    <glyph glyph-name="three" unicode="3" horiz-adv-x="1495" 
d="M1331 549q0 -140 -48 -247t-132 -180t-198.5 -110t-247.5 -37q-131 0 -242.5 32.5t-195 98.5t-134 166.5t-59.5 235.5h168q7 -106 49.5 -180.5t106.5 -122t144 -69t163 -21.5q97 0 180.5 30.5t145 87t97 136.5t35.5 180q0 104 -27 186t-84.5 139t-147.5 87t-216 30h-37
v139h37q224 0 331 106t107 300q0 103 -33.5 181t-91.5 130.5t-135.5 79.5t-165.5 27q-95 0 -170.5 -27t-130 -76.5t-87.5 -120t-42 -157.5h-172q15 123 66.5 218.5t130.5 160.5t182 99t223 34q132 0 239.5 -38t183.5 -109t117.5 -173t41.5 -229q0 -80 -16 -151t-51.5 -130.5
t-91.5 -106.5t-136 -79q175 -59 259.5 -191.5t84.5 -328.5z" />
    <glyph glyph-name="four" unicode="4" horiz-adv-x="1495" 
d="M1114 340v-340h-168v340h-868v131l811 1597h176l-807 -1593h688v655h168v-655h295v-135h-295z" />
    <glyph glyph-name="five" unicode="5" horiz-adv-x="1495" 
d="M1352 676q0 -74 -4.5 -147.5t-22 -144t-51.5 -135.5t-94 -122q-77 -71 -181 -111.5t-245 -40.5q-137 0 -246 37.5t-180 102.5q-62 59 -99.5 144.5t-44.5 203.5h164q11 -81 40 -145.5t78.5 -109.5t121 -69t166.5 -24q43 0 85.5 7.5t82.5 21.5t74.5 34.5t60.5 46.5
q48 46 74 101t39 113.5t15.5 119t2.5 117.5q0 63 -5.5 128.5t-21.5 126.5t-44 114.5t-73 93.5t-109.5 63t-152.5 23q-74 0 -138.5 -15t-116 -43t-87.5 -68t-51 -91h-147v1060h1056v-135h-909v-712q71 71 172 105t238 34q120 0 213.5 -31.5t158.5 -87.5q58 -55 94 -123
t55 -142.5t25.5 -151t6.5 -148.5z" />
    <glyph glyph-name="six" unicode="6" horiz-adv-x="1495" 
d="M1360 610q0 -131 -41.5 -245.5t-120 -200t-193 -135t-260.5 -49.5t-259.5 46t-191.5 127.5t-118.5 194t-40.5 246.5q0 54 6 106t20.5 107t39 114.5t61.5 127.5l541 1019h172l-475 -884q52 15 121 28t137 13q143 0 255 -47t189 -130t117.5 -195.5t40.5 -242.5zM1188 602
q0 97 -27 184t-81 152.5t-135.5 104t-190.5 38.5q-102 0 -185 -34t-142 -96.5t-91.5 -151t-32.5 -197.5q0 -104 31 -193.5t88.5 -154.5t139.5 -102t183 -37q102 0 183.5 37t139.5 102t89 154.5t31 193.5z" />
    <glyph glyph-name="seven" unicode="7" horiz-adv-x="1495" 
d="M602 0h-172l774 1933h-819v-323h-164v458h1159v-131z" />
    <glyph glyph-name="eight" unicode="8" horiz-adv-x="1495" 
d="M1376 561q0 -125 -48 -230.5t-132.5 -182.5t-201 -120.5t-253.5 -43.5q-132 0 -246.5 43.5t-198.5 120.5t-132.5 182.5t-48.5 230.5q0 91 25.5 169t71 143t109 116t138.5 88q-145 80 -220 194t-75 277q0 117 42 215.5t117.5 170t182 111.5t235.5 40q131 0 239.5 -40
t186.5 -111.5t121 -170t43 -215.5q0 -157 -78 -274t-217 -197q78 -37 141 -88t107.5 -116t68 -143t23.5 -169zM1163 1548q0 88 -30 162.5t-85.5 128.5t-133.5 84.5t-173 30.5q-92 0 -168 -30.5t-130.5 -84.5t-84.5 -128.5t-30 -162.5q0 -89 30 -162.5t84.5 -126.5
t130.5 -82.5t168 -29.5q95 0 173 29.5t133.5 82.5t85.5 126.5t30 162.5zM1208 569q0 94 -35.5 175t-98 140.5t-148 93.5t-185.5 34q-97 0 -180.5 -34t-145 -93.5t-97 -140.5t-35.5 -175q0 -90 35.5 -170.5t97 -141t145 -95.5t180.5 -35q100 0 185.5 35t148 95.5t98 141
t35.5 170.5z" />
    <glyph glyph-name="nine" unicode="9" horiz-adv-x="1495" 
d="M135 1454q0 132 40.5 247t118.5 200.5t191.5 134.5t259.5 49q148 0 262.5 -46t193 -127t119 -193t40.5 -244q0 -54 -6.5 -107t-21.5 -108.5t-39.5 -114.5t-59.5 -125l-545 -1020h-168l475 885q-52 -16 -121 -28.5t-137 -12.5q-143 0 -255 47t-189 129t-117.5 193.5
t-40.5 240.5zM303 1466q0 -97 27.5 -184t82.5 -152.5t137 -104t191 -38.5q102 0 184.5 34t141 96.5t90 151t31.5 197.5q0 105 -30.5 194t-88 154.5t-139.5 102.5t-185 37q-100 0 -181.5 -37t-139.5 -102.5t-89.5 -154.5t-31.5 -194z" />
    <glyph glyph-name="colon" unicode=":" horiz-adv-x="942" 
d="M381 1200q0 29 10 54t28 43t43 28t54 10t54 -10t43 -28t28 -43t10 -54t-10 -54t-28 -43t-43 -28t-54 -10t-54 10t-43 28t-28 43t-10 54zM381 119q0 29 10 54t28 43t43 28t54 10t54 -10t43 -28t28 -43t10 -54t-10 -54t-28 -43t-43 -28t-54 -10t-54 10t-43 28t-28 43
t-10 54z" />
    <glyph glyph-name="semicolon" unicode=";" horiz-adv-x="942" 
d="M406 -438v659h217v-446zM381 1200q0 29 10 54t28 43t43 28t54 10t54 -10t43 -28t28 -43t10 -54t-10 -54t-28 -43t-43 -28t-54 -10t-54 10t-43 28t-28 43t-10 54z" />
    <glyph glyph-name="less" unicode="&#x3c;" horiz-adv-x="1692" 
d="M1507 360l-1319 508v152l1319 512v-168l-1122 -418l1122 -418v-168z" />
    <glyph glyph-name="equal" unicode="=" horiz-adv-x="1696" 
d="M188 1020v151h1319v-151h-1319zM188 524v152h1319v-152h-1319z" />
    <glyph glyph-name="greater" unicode="&#x3e;" horiz-adv-x="1692" 
d="M188 528l1123 418l-1123 418v168l1319 -512v-152l-1319 -508v168z" />
    <glyph glyph-name="question" unicode="?" horiz-adv-x="1450" 
d="M1294 1589q0 -51 -10.5 -96.5t-29 -88t-43 -83t-52.5 -80.5l-129 -185l-129 -188q-15 -18 -25.5 -40.5t-16.5 -44.5t-8.5 -42.5t-2.5 -35.5v-144h-168v135q0 42 6 76t17.5 65t28.5 61.5t38 64.5l254 360l40.5 63.5t34 63.5t23 66.5t8.5 72.5q0 80 -29.5 149t-81.5 119.5
t-123.5 79.5t-154.5 29q-86 0 -157 -30.5t-121.5 -83t-78.5 -121.5t-28 -146h-163q0 108 40 203t112.5 166.5t173.5 113t222 41.5q120 0 221.5 -39t175 -108.5t115 -165t41.5 -207.5zM635 115q0 27 9.5 50.5t26.5 40.5t40 26.5t51 9.5t51 -9.5t40 -26.5t26.5 -40.5
t9.5 -50.5q0 -56 -35.5 -91.5t-91.5 -35.5t-91.5 35.5t-35.5 91.5z" />
    <glyph glyph-name="at" unicode="@" horiz-adv-x="2576" 
d="M1589 1049q10 55 17.5 105.5t7.5 102.5q0 65 -13 122t-45 99t-86 66.5t-135 24.5q-70 0 -126.5 -22t-101.5 -60t-79.5 -89t-60 -109t-43 -119.5t-27.5 -120.5q-9 -50 -14.5 -100.5t-5.5 -96.5q0 -65 13 -122t44.5 -100t84 -68t132.5 -25q75 0 133.5 21t103 57t77.5 85.5
t57 106.5t40 118.5t27 123.5zM1987 172q-149 -108 -332 -168.5t-381 -60.5q-152 0 -293 36.5t-263 105t-221 167t-167.5 221t-103.5 268t-29 308.5q7 153 51 295t119 264.5t177 223t225 172.5t264 111t294 39q158 0 299 -36t261 -102.5t215 -161.5t161 -213.5t99.5 -257.5
t29.5 -293q-5 -140 -44.5 -262.5t-112 -213.5t-178.5 -143.5t-242 -52.5q-60 0 -107 14.5t-81 40t-56 61t-31 76.5q-54 -62 -106 -99.5t-104 -58t-104 -27.5t-104 -7q-111 0 -188 37t-125 101t-70 149t-22 180q0 40 5 81.5t11 82.5q23 133 70 249t120.5 201.5t175.5 134.5
t236 49q51 0 97.5 -7t88.5 -25.5t78.5 -50t67.5 -80.5l29 135h147l-147 -840q-25 -148 10.5 -213t124.5 -65q63 0 117.5 23t99.5 63t80 93.5t59.5 115t38 127.5t15.5 131q4 129 -24.5 247.5t-85 221.5t-138.5 187t-185 144t-224.5 92.5t-256.5 32.5q-126 0 -245 -31
t-224.5 -90t-194.5 -144t-155.5 -192.5t-107 -235.5t-48.5 -273q-6 -134 23 -257.5t87 -230.5t142 -194.5t188.5 -150t226.5 -96.5t255 -34q81 0 164.5 14t163 41t153.5 66t137 88z" />
    <glyph glyph-name="A" unicode="A" horiz-adv-x="1765" 
d="M1577 0l-188 500h-1008l-188 -500h-185l799 2068h151l799 -2068h-180zM885 1835l-451 -1188h901z" />
    <glyph glyph-name="B" unicode="B" horiz-adv-x="1917" 
d="M1716 565q0 -140 -45.5 -245.5t-129.5 -176.5t-202 -107t-262 -36h-790v2068h770q135 0 250.5 -36t200 -105t132.5 -169.5t48 -229.5q0 -80 -22 -153t-64 -134.5t-104 -107.5t-142 -72q84 -29 151 -77t113.5 -111t71 -141t24.5 -167zM1511 1528q0 106 -38 181t-103.5 123
t-152.5 70.5t-185 22.5h-569v-795h569q98 0 185 23t152.5 71.5t103.5 123.5t38 180zM1548 565q0 97 -34.5 174.5t-98.5 131.5t-155 83t-203 29h-594v-836h594q112 0 203 29t155 83t98.5 131.5t34.5 174.5z" />
    <glyph glyph-name="C" unicode="C" horiz-adv-x="1798" 
d="M1622 590q-25 -141 -87 -254t-153.5 -192t-209.5 -121.5t-254 -42.5q-149 0 -284 55t-237 158q-47 47 -79.5 95t-54 102.5t-33 118t-17.5 141.5t-7 173t-1 213t1 213t7 173t17.5 141.5t33 117.5t54 101.5t79.5 93.5q102 105 237 159t284 54q138 0 256 -41.5t209.5 -120.5
t152.5 -192t86 -256h-168q-21 107 -69 193t-117.5 146t-158 92t-191.5 32q-109 0 -208.5 -39.5t-177.5 -116.5q-38 -38 -64.5 -78t-44.5 -86.5t-29 -103t-16.5 -127t-7 -158t-1.5 -197.5t1.5 -197.5t7 -158t16.5 -126.5t29 -103t44.5 -86.5t64.5 -77.5q78 -78 177.5 -119
t208.5 -41q103 0 192 33t159.5 94t120 147.5t72.5 192.5h156z" />
    <glyph glyph-name="D" unicode="D" horiz-adv-x="1978" 
d="M1778 1061q0 -135 -9 -266.5t-36.5 -249t-78 -217.5t-134.5 -173t-205.5 -114t-290.5 -41h-737v2068h737q163 0 282 -37.5t203 -105t136.5 -161.5t82 -205.5t40 -238t10.5 -259.5zM1606 1061q0 114 -8.5 222t-32 204t-66 176.5t-111.5 138.5t-167.5 90.5t-233.5 32.5
h-524v-1778h524q141 0 242 35.5t169.5 98.5t109.5 149.5t63 188t28.5 214t6.5 228.5z" />
    <glyph glyph-name="E" unicode="E" horiz-adv-x="1724" 
d="M287 0v2068h1327v-143h-1151v-803h979v-147h-979v-828h1151v-147h-1327z" />
    <glyph glyph-name="F" unicode="F" horiz-adv-x="1622" 
d="M463 1925v-840h942v-155h-942v-930h-176v2068h1286v-143h-1110z" />
    <glyph glyph-name="G" unicode="G" horiz-adv-x="1819" 
d="M1626 721q0 -161 -42.5 -282.5t-129.5 -217.5q-51 -54 -112.5 -98t-131 -76t-145.5 -49.5t-156 -17.5q-148 0 -283 55t-237 158q-47 47 -79.5 95t-54 102.5t-33 118t-17.5 141.5t-7 173t-1 213t1 213t7 173t17.5 141.5t33 117.5t54 101.5t79.5 93.5q102 105 237 159
t283 54q137 0 255.5 -43.5t211 -123.5t155 -192.5t87.5 -250.5h-164q-23 107 -72.5 193t-120 146t-160 92t-192.5 32q-51 0 -104.5 -11.5t-106 -34t-102 -55.5t-92.5 -76q-46 -52 -74.5 -115.5t-44 -149t-20.5 -199t-5 -265.5q0 -110 1.5 -197.5t7.5 -158t16.5 -126.5
t29 -103t45 -86.5t64.5 -77.5q78 -78 177.5 -119t207.5 -41q57 0 115.5 14.5t114 41t105 63.5t87.5 82q34 43 58.5 88t40.5 95t24 105.5t8 120.5v181h-557v143h721v-340v0z" />
    <glyph glyph-name="H" unicode="H" horiz-adv-x="2044" 
d="M1585 0v975h-1122v-975h-176v2068h176v-946h1122v946h172v-2068h-172z" />
    <glyph glyph-name="I" unicode="I" horiz-adv-x="791" 
d="M307 0v2068h172v-2068h-172z" />
    <glyph glyph-name="J" unicode="J" horiz-adv-x="1409" 
d="M1151 639q0 -150 -45.5 -272t-130 -208t-205 -132.5t-270.5 -46.5q-75 0 -141 11.5t-125 35.5t-112 60t-102 85l119 115q32 -32 66 -60t76 -48.5t95 -32t124 -11.5q115 0 204.5 35.5t150.5 104t92.5 168.5t31.5 229v1396h172v-1429v0z" />
    <glyph glyph-name="K" unicode="K" horiz-adv-x="1872" 
d="M1671 0l-692 1155l-516 -594v-561h-176v2068h176v-1277l1093 1277h209l-671 -794l786 -1274h-209z" />
    <glyph glyph-name="L" unicode="L" horiz-adv-x="1606" 
d="M287 0v2068h176v-1912h1110v-156h-1286z" />
    <glyph glyph-name="M" unicode="M" horiz-adv-x="2322" 
d="M1860 0v1540l12 229l-53 -188l-570 -1278h-168l-581 1294l-49 177l8 -234v-1540h-172v2068h159l725 -1605l705 1605h156v-2068h-172z" />
    <glyph glyph-name="N" unicode="N" horiz-adv-x="2093" 
d="M1647 0l-1188 1786v-1786h-172v2068h159l1188 -1785v1785h172v-2068h-159z" />
    <glyph glyph-name="O" unicode="O" horiz-adv-x="1827" 
d="M1626 1036q0 -118 -1 -213t-7 -173t-17.5 -141.5t-33 -118t-54 -102.5t-79.5 -95q-103 -103 -236 -158t-285 -55q-148 0 -283 55t-237 158q-47 47 -79.5 95t-54 102.5t-33 118t-17.5 141.5t-7 173t-1 213t1 213t7 173t17.5 141.5t33 117.5t54 101.5t79.5 93.5
q102 105 237 159t283 54q152 0 285 -54t236 -159q47 -46 79.5 -93.5t54 -101.5t33 -117.5t17.5 -141.5t7 -173t1 -213zM1462 1036q0 110 -1.5 197.5t-7 158t-16 127t-28 103t-43.5 86.5t-63 78q-81 77 -181 116.5t-209 39.5q-108 0 -207.5 -39.5t-177.5 -116.5
q-38 -38 -64.5 -78t-44.5 -86.5t-29 -103t-16.5 -127t-7 -158t-1.5 -197.5t1.5 -197.5t7 -158t16.5 -126.5t29 -103t44.5 -86.5t64.5 -77.5q78 -78 177.5 -119t207.5 -41q109 0 209 41t181 119q37 38 63 77.5t43.5 86.5t28 103t16 126.5t7 158t1.5 197.5z" />
    <glyph glyph-name="P" unicode="P" horiz-adv-x="1790" 
d="M1708 1470q0 -141 -49 -251.5t-136 -186t-207 -115.5t-263 -40h-590v-877h-176v2068h766q143 0 263 -38.5t207 -114t136 -187.5t49 -258zM1536 1470q0 115 -38 201t-105 142t-159.5 84t-201.5 28h-569v-905h569q109 0 201.5 28.5t159.5 84.5t105 140.5t38 196.5z" />
    <glyph glyph-name="Q" unicode="Q" horiz-adv-x="1827" 
d="M1626 1036q0 -146 -3 -260t-15 -204t-35.5 -160.5t-65.5 -128.5l295 -279l-119 -110l-282 266q-99 -87 -225 -133.5t-263 -46.5q-148 0 -283 55t-237 158q-47 47 -79.5 95t-54 102.5t-33 118t-17.5 141.5t-7 173t-1 213t1 213t7 173t17.5 141.5t33 117.5t54 101.5
t79.5 93.5q102 105 237 159t283 54q152 0 285 -54t236 -159q47 -46 79.5 -93.5t54 -101.5t33 -117.5t17.5 -141.5t7 -173t1 -213zM1462 1036q0 110 -1.5 197.5t-7 158t-16 127t-28 103t-43.5 86.5t-63 78q-81 77 -181 116.5t-209 39.5q-108 0 -207.5 -39.5t-177.5 -116.5
q-38 -38 -64.5 -78t-44.5 -86.5t-29 -103t-16.5 -127t-7 -158t-1.5 -197.5t1.5 -197.5t7 -158t16.5 -126.5t29 -103t44.5 -86.5t64.5 -77.5q78 -78 177.5 -119t207.5 -41q103 0 199 36t170 107l-278 271l118 110l262 -254q26 48 41.5 106t23.5 134t10.5 173.5t2.5 225.5z
" />
    <glyph glyph-name="R" unicode="R" horiz-adv-x="1913" 
d="M1569 0l-512 946h-594v-946h-176v2068h835q134 0 248 -35.5t197.5 -105.5t130.5 -173t47 -238q0 -112 -36.5 -206.5t-102.5 -167t-158 -121.5t-203 -71l266 -475l263 -475h-205zM1569 1511q0 103 -35 180.5t-97.5 129.5t-149 78t-189.5 26h-635v-827h635
q103 0 189.5 25.5t149 77t97.5 129t35 181.5z" />
    <glyph glyph-name="S" unicode="S" horiz-adv-x="1614" 
d="M1491 557q0 -131 -48.5 -237t-138.5 -182t-219 -117t-290 -41q-119 0 -215.5 16.5t-179.5 50.5t-157.5 86.5t-148.5 124.5l123 123q71 -74 136 -121.5t133.5 -75.5t144.5 -38.5t168 -10.5q121 0 218 28t165 81t104.5 130t36.5 175q0 97 -29.5 165t-82.5 114.5
t-126.5 74.5t-162.5 43l-242 37q-118 20 -216.5 60t-170 105t-111 157t-39.5 215q0 130 44.5 235t128.5 178t204 112.5t271 39.5q97 0 177 -13t151 -40t136.5 -69.5t133.5 -102.5l-107 -107q-49 43 -99.5 78.5t-109.5 61t-131 39.5t-164 14q-111 0 -198 -29.5t-148 -84.5
t-93 -133t-32 -175q0 -89 33 -154.5t89 -112t130.5 -76t157.5 -46.5l217 -33q120 -20 222 -60.5t176.5 -106t116.5 -159t42 -219.5z" />
    <glyph glyph-name="T" unicode="T" horiz-adv-x="1528" 
d="M848 1921v-1921h-176v1921h-643v147h1470v-147h-651z" />
    <glyph glyph-name="U" unicode="U" horiz-adv-x="1942" 
d="M1683 717q0 -158 -49 -293t-141 -233.5t-224 -154.5t-298 -56t-298 56t-224.5 154.5t-141.5 233.5t-49 293v1351h172v-1327q0 -134 35.5 -245t104.5 -191.5t169.5 -125t231.5 -44.5q129 0 229 44.5t168 125t103.5 191.5t35.5 245v1327h176v-1351v0z" />
    <glyph glyph-name="V" unicode="V" horiz-adv-x="1761" 
d="M954 0h-151l-709 2068h176l611 -1785l610 1785h180z" />
    <glyph glyph-name="W" unicode="W" horiz-adv-x="2630" 
d="M1999 0h-176l-508 1794l-512 -1794h-172l-541 2068h172l459 -1794l508 1794h168l508 -1794l454 1794h181z" />
    <glyph glyph-name="X" unicode="X" horiz-adv-x="1589" 
d="M1356 0l-565 909l-570 -909h-192l663 1057l-618 1011h196l521 -860l524 860h192l-614 -1011l333.5 -527l334.5 -530h-205z" />
    <glyph glyph-name="Y" unicode="Y" horiz-adv-x="1634" 
d="M905 860v-860h-172v860l-643 1208h184l553 -1040l541 1040h180z" />
    <glyph glyph-name="Z" unicode="Z" horiz-adv-x="1683" 
d="M176 0v176l1143 1749h-1098v143h1286v-143l-1155 -1778h1155v-147h-1331z" />
    <glyph glyph-name="bracketleft" unicode="[" horiz-adv-x="934" 
d="M311 -238v2773h480v-147h-312v-2482h312v-144h-480z" />
    <glyph glyph-name="backslash" unicode="\" horiz-adv-x="1090" 
d="M918 -238l-918 2773h168l922 -2773h-172z" />
    <glyph glyph-name="bracketright" unicode="]" horiz-adv-x="934" 
d="M147 -238v136h320v2502h-320v135h476v-2773h-476z" />
    <glyph glyph-name="asciicircum" unicode="^" horiz-adv-x="1659" 
d="M1249 1130l-422 783l-413 -783h-172l512 955h151l508 -955h-164z" />
    <glyph glyph-name="underscore" unicode="_" horiz-adv-x="1659" 
d="M0 -516v123h1659v-123h-1659z" />
    <glyph glyph-name="grave" unicode="`" horiz-adv-x="1614" 
d="M770 1671l-344 475h217l311 -475h-184z" />
    <glyph glyph-name="braceleft" unicode="{" horiz-adv-x="1020" 
d="M811 -238q-117 0 -191 18t-120 64q-23 25 -39 52t-25.5 63t-13.5 83.5t-4 113.5v663q0 141 -62 197q-21 25 -56 43t-79 18h-61v140h61q44 0 79 19.5t56 41.5q62 56 62 197v667q0 64 4 111t13.5 82.5t25.5 62.5t39 51q46 46 120 66t191 20h49v-147h-45q-45 0 -75.5 -2
t-51.5 -7t-35 -13.5t-26 -22.5q-12 -12 -21 -29t-14 -41t-7.5 -57t-2.5 -78v-668q0 -61 -12 -109.5t-36.5 -87t-62.5 -69.5t-90 -57q52 -25 90 -54.5t62.5 -68t36.5 -88t12 -113.5v-663q0 -46 2.5 -80.5t7.5 -60t14 -43t21 -29.5t26 -20t35 -12.5t51.5 -6.5t75.5 -2h45v-144
h-49z" />
    <glyph glyph-name="bar" unicode="|" horiz-adv-x="1020" 
d="M426 -238v2773h168v-2773h-168z" />
    <glyph glyph-name="braceright" unicode="}" horiz-adv-x="1020" 
d="M803 1077q-50 0 -84 -18t-55 -43q-62 -56 -62 -197v-663q0 -66 -4 -113.5t-13.5 -83.5t-25.5 -63t-39 -52q-24 -23 -54 -38.5t-68 -25.5t-85.5 -14t-107.5 -4h-45v144h41q44 0 75 2t53 6.5t37 12.5t27 20q11 12 19.5 29.5t14 43t8.5 60t3 80.5v663q0 64 12 113.5t36 88
t61 68t88 54.5q-51 26 -88 57t-61 69.5t-36 87t-12 109.5v668q0 45 -3 78t-8.5 57t-14 41t-19.5 29q-12 14 -27 22.5t-37 13.5t-53 7t-75 2h-41v147h45q60 0 107.5 -4.5t85.5 -15t68 -27t54 -39.5q23 -24 39 -51t25.5 -62.5t13.5 -82.5t4 -111v-667q0 -141 62 -197
q21 -22 55 -41.5t84 -19.5h57v-140h-57z" />
    <glyph glyph-name="asciitilde" unicode="~" horiz-adv-x="1659" 
d="M1487 893q-66 -65 -115 -104t-91 -61t-81.5 -29t-85.5 -7q-41 0 -81.5 8.5t-81 22.5t-82.5 33l-87 39l-64 25.5t-59.5 22.5t-58 15.5t-59.5 5.5q-36 0 -64 -4t-58 -18t-65 -41.5t-84 -75.5l-102 94q66 66 115.5 105.5t91.5 61t82 28t88 6.5q40 0 80 -8.5t80.5 -22
t82 -31.5l84.5 -36l65.5 -28.5t61.5 -23.5t60.5 -16t62.5 -6t59 4.5t56.5 20t64 44.5t82.5 78l103 -102v0z" />
    <glyph glyph-name="a" unicode="a" horiz-adv-x="1561" 
d="M1159 737h-487q-393 0 -393 -311q0 -151 98 -227t307 -76q54 0 106 4t100.5 17t93.5 36t85 62q46 43 68 117t22 186v192zM1323 0h-164v156q-51 -49 -100.5 -82.5t-105 -54.5t-121 -30t-148.5 -9q-125 0 -229 23t-180 75t-118 136.5t-42 207.5q0 108 36.5 192.5t106.5 143
t171 89t230 30.5h500v184q0 89 -24 157.5t-76.5 115.5t-136 71.5t-201.5 24.5q-80 0 -142.5 -11t-115 -35t-99 -61.5t-94.5 -89.5l-118 106q54 55 109.5 98.5t122.5 73.5t149 46t188 16q153 0 266.5 -34t188 -99t111 -160.5t36.5 -218.5v-1061z" />
    <glyph glyph-name="b" unicode="b" horiz-adv-x="1651" 
d="M1495 774q0 -99 -12 -196.5t-40.5 -186t-74.5 -163.5t-114 -130.5t-159 -86.5t-210 -31q-66 0 -129 9t-122 33.5t-114 67.5t-106 111v-201h-168v2257h168v-905q51 67 106 110t114 68t122 34t129 9q120 0 211.5 -31.5t159.5 -86.5t113.5 -130.5t73.5 -164.5t40 -187.5
t12 -198.5zM1319 774q0 81 -6.5 161t-25 153t-50.5 135.5t-83 108.5t-123.5 72t-170.5 26q-97 0 -168 -26t-120.5 -72t-80.5 -108.5t-48 -135.5t-23 -153t-6 -161q0 -80 6 -159t23 -151.5t48 -134.5t80.5 -108t120.5 -72t168 -26q98 0 170.5 26t123.5 72t83 108t50.5 134.5
t25 151.5t6.5 159z" />
    <glyph glyph-name="c" unicode="c" horiz-adv-x="1442" 
d="M1339 221q-63 -71 -120 -117t-116.5 -74t-124 -39t-142.5 -11q-160 0 -286 55.5t-213.5 159t-134 250t-46.5 329.5q0 186 46.5 334t134 251.5t213.5 158.5t286 55q78 0 142.5 -11t124 -38.5t116.5 -73.5t120 -115l-110 -102q-49 55 -95 92.5t-92.5 61t-97 33.5t-108.5 10
q-140 0 -239 -51.5t-161.5 -141t-91.5 -209t-29 -254.5q0 -134 29 -252t91.5 -207t161.5 -140.5t239 -51.5q58 0 108.5 10t97 33.5t92.5 62t95 95.5l110 -103v0z" />
    <glyph glyph-name="d" unicode="d" horiz-adv-x="1651" 
d="M160 774q0 100 11.5 198.5t39 187.5t73 164.5t112.5 130.5t158.5 86.5t211.5 31.5q66 0 129 -9t122.5 -34t115.5 -68t108 -110v905h164v-2257h-164v201q-52 -68 -108 -111t-115.5 -67.5t-122.5 -33.5t-129 -9q-119 0 -210 31t-158.5 86.5t-113 130.5t-73 163.5t-39.5 186
t-12 196.5zM332 774q0 -80 6.5 -159t25 -151.5t51 -134.5t84 -108t124.5 -72t172 -26q97 0 168 26t120.5 72t80.5 108t48 134.5t23 151.5t6 159q0 81 -6 161t-23 153t-48 135.5t-80.5 108.5t-120.5 72t-168 26q-100 0 -172.5 -26t-124 -72t-84 -108.5t-51 -135.5t-25 -153
t-6.5 -161z" />
    <glyph glyph-name="e" unicode="e" horiz-adv-x="1573" 
d="M324 737q0 -146 32.5 -259.5t97 -191.5t160.5 -118.5t222 -40.5q70 0 128 11t108.5 34t97.5 58.5t96 84.5l127 -94q-60 -60 -119.5 -105t-127 -75.5t-146.5 -45.5t-177 -15q-161 0 -284.5 51.5t-206.5 152t-125.5 248.5t-42.5 342q0 187 42 335.5t121.5 251.5
t195.5 157.5t263 54.5q148 0 265 -51.5t198.5 -149t124.5 -238.5t43 -319v-78h-1093zM1253 872q3 109 -26.5 210t-89.5 178t-148.5 123.5t-202.5 46.5t-202 -47t-147.5 -124.5t-88.5 -178t-24 -208.5h929z" />
    <glyph glyph-name="f" unicode="f" horiz-adv-x="852" 
d="M459 1434v-1434h-164v1434h-209v122h209v291q0 89 23.5 164.5t70.5 130t117 85t162 30.5h143v-148h-111q-126 0 -183.5 -66t-57.5 -192v-295h352v-122h-352z" />
    <glyph glyph-name="g" unicode="g" horiz-adv-x="1651" 
d="M1405 -90q0 -146 -43 -269t-126.5 -212.5t-205.5 -140t-280 -50.5q-91 0 -160.5 12.5t-130 38.5t-117.5 65t-121 93l111 107q48 -40 90 -71.5t89.5 -53t104.5 -32.5t134 -11q129 0 222 41t152.5 113t88 170t28.5 212v279q-52 -68 -108 -111t-116 -67.5t-124 -33.5
t-131 -9q-119 0 -209.5 30.5t-157.5 85t-112 129.5t-72.5 163t-39 186.5t-11.5 199.5q0 102 11.5 201.5t38.5 188t71.5 163.5t111.5 130t158 85.5t211 30.5q67 0 131 -9t124 -34t116 -68t108 -110v204h164v-1646zM1241 774q0 81 -6 161t-23.5 153t-49 135.5t-82 108.5
t-123 72t-171.5 26q-98 0 -171 -26t-125 -72t-85 -108.5t-52 -135.5t-26.5 -153t-7.5 -161q0 -80 7.5 -159t26.5 -151.5t52 -134.5t85 -108t125 -72t171 -26q99 0 171.5 26t123 72t82 108t49 134.5t23.5 151.5t6 159z" />
    <glyph glyph-name="h" unicode="h" horiz-adv-x="1671" 
d="M1278 0v963q0 112 -28 199t-82.5 146.5t-135 90.5t-184.5 31q-94 0 -173.5 -34.5t-137.5 -97.5t-90.5 -150.5t-32.5 -193.5v-954h-168v2257h168v-897q86 102 199 157.5t255 55.5q134 0 240.5 -40t180.5 -115t113.5 -182t39.5 -241v-995h-164z" />
    <glyph glyph-name="i" unicode="i" horiz-adv-x="762" 
d="M295 0v1556h168v-1556h-168zM254 2150q0 26 9.5 49t26 40.5t39 27.5t48.5 10t48.5 -10t39 -27.5t26 -40.5t9.5 -49q0 -24 -9.5 -46.5t-26 -39t-39 -26.5t-48.5 -10t-48.5 10t-39 26.5t-26 39t-9.5 46.5z" />
    <glyph glyph-name="j" unicode="j" horiz-adv-x="762" 
d="M467 -340q0 -91 -23 -164.5t-69.5 -125t-116.5 -79.5t-164 -28h-143v139h110q69 0 115 16.5t73.5 49.5t38.5 82t11 114v1892h168v-1896zM262 2150q0 26 9.5 49t26 40.5t39 27.5t48.5 10t48.5 -10t39 -27.5t26 -40.5t9.5 -49q0 -24 -9.5 -46.5t-26 -39t-39 -26.5
t-48.5 -10t-48.5 10t-39 26.5t-26 39t-9.5 46.5z" />
    <glyph glyph-name="k" unicode="k" horiz-adv-x="1569" 
d="M1303 0l-537 856l-352 -410v-446h-168v2257h168v-1581l770 880h205l-508 -581l626 -975h-204z" />
    <glyph glyph-name="l" unicode="l" horiz-adv-x="795" 
d="M623 0q-95 0 -166 29t-118 82t-70 128t-23 167v1851h168v-1847q0 -66 11 -115.5t38.5 -82.5t73 -49t114.5 -16h111v-147h-139z" />
    <glyph glyph-name="m" unicode="m" horiz-adv-x="2699" 
d="M2310 0v963q0 112 -28 199t-82 146.5t-133.5 90.5t-182.5 31q-95 0 -176 -32.5t-140 -90t-92.5 -137.5t-33.5 -175v-995h-164v963q0 112 -28 199t-82.5 146.5t-135 90.5t-184.5 31q-98 0 -178 -33.5t-137 -94.5t-88 -147t-31 -192v-963h-168v1556h168v-184q86 99 201 150
t257 51q174 0 302 -71.5t202 -211.5q87 140 219 211.5t306 71.5q133 0 239 -40.5t179 -116t112 -182.5t39 -239v-995h-160z" />
    <glyph glyph-name="n" unicode="n" horiz-adv-x="1671" 
d="M1278 0v963q0 112 -28 199t-82.5 146.5t-135 90.5t-184.5 31q-97 0 -177 -33.5t-137 -94.5t-88.5 -147t-31.5 -192v-963h-168v1556h168v-184q170 201 454 201q134 0 240.5 -40t180.5 -115t113.5 -182t39.5 -241v-995h-164z" />
    <glyph glyph-name="o" unicode="o" horiz-adv-x="1622" 
d="M1458 774q0 -98 -14.5 -195t-47 -185.5t-83 -164t-123 -131t-167.5 -87t-216 -31.5t-216 31.5t-166.5 87t-122 131t-82 164t-46 185.5t-14.5 195q0 100 14 198.5t45.5 187.5t81 164.5t121.5 130.5t167.5 86.5t217.5 31.5t217.5 -31.5t168 -87.5t123 -132t82 -164.5
t46 -186.5t14.5 -197zM1290 774q0 78 -9 156.5t-30 151.5t-56.5 136.5t-89.5 110.5t-127.5 74t-170.5 27q-95 0 -168.5 -27t-127.5 -74t-91 -110.5t-59.5 -136.5t-32 -151.5t-9.5 -156.5q0 -77 10 -155t33 -150.5t60 -135.5t91 -109.5t127 -73.5t167 -27q96 0 169.5 26.5
t127 73t89.5 109.5t57.5 135t30.5 150.5t9 156.5z" />
    <glyph glyph-name="p" unicode="p" horiz-adv-x="1651" 
d="M1495 782q0 -100 -12 -198t-40 -187t-73.5 -164.5t-113.5 -130.5t-159.5 -86.5t-211.5 -31.5q-66 0 -129 9t-122 34t-114 67.5t-106 110.5v-905h-168v2256h168v-200q51 67 106 109.5t114 66.5t122 32.5t129 8.5q119 0 210 -31t159 -85.5t114 -129.5t74.5 -163
t40.5 -185.5t12 -196.5zM1319 782q0 80 -6.5 159.5t-25 152t-50.5 134.5t-83 108t-123.5 72t-170.5 26q-97 0 -168 -26t-120.5 -72t-80.5 -108t-48 -134.5t-23 -152t-6 -159.5q0 -81 6 -161t23 -152.5t48 -135t80.5 -108.5t120.5 -72t168 -26q98 0 170.5 26t123.5 72
t83 108.5t50.5 135t25 152.5t6.5 161z" />
    <glyph glyph-name="q" unicode="q" horiz-adv-x="1651" 
d="M160 782q0 99 12 196.5t39.5 185.5t73 163t113 129.5t158.5 85.5t210 31q66 0 129 -8.5t122.5 -32.5t115.5 -66.5t108 -109.5v200h164v-2256h-164v905q-52 -68 -108 -110.5t-115.5 -67.5t-122.5 -34t-129 -9q-120 0 -211.5 31.5t-158.5 86.5t-112.5 130.5t-73 164.5
t-39 187t-11.5 198zM332 782q0 -81 6.5 -161t25 -152.5t51 -135t84 -108.5t124 -72t172.5 -26q97 0 168 26t120.5 72t80.5 108.5t48 135t23 152.5t6 161q0 80 -6 159.5t-23 152t-48 134.5t-80.5 108t-120.5 72t-168 26q-99 0 -172 -26t-124.5 -72t-84 -108t-51 -134.5
t-25 -152t-6.5 -159.5z" />
    <glyph glyph-name="r" unicode="r" horiz-adv-x="1069" 
d="M1024 1380q-43 25 -89 37.5t-108 12.5q-100 0 -177 -38.5t-129.5 -104t-79.5 -152t-27 -181.5v-954h-168v1556h168v-208q32 54 80.5 95.5t107.5 70.5t126 44t136 15q75 0 139 -14t119 -48z" />
    <glyph glyph-name="s" unicode="s" horiz-adv-x="1380" 
d="M1270 442q0 -107 -41 -193.5t-117 -147.5t-184.5 -93.5t-243.5 -32.5q-189 0 -333.5 55.5t-256.5 170.5l111 123q171 -197 471 -197q210 0 320.5 80.5t110.5 234.5q0 117 -65.5 177t-205.5 77l-238 29q-212 25 -327 125.5t-115 275.5q0 103 37 186t105 141t165 89t217 31
q149 0 283 -41.5t233 -122.5l-111 -118q-86 65 -186.5 100.5t-218.5 35.5q-86 0 -153.5 -20.5t-114 -59t-71 -94.5t-24.5 -127q0 -52 20.5 -94.5t58 -74t90 -51.5t116.5 -27l238 -27q90 -10 168.5 -33.5t136.5 -69.5t91.5 -120.5t33.5 -186.5z" />
    <glyph glyph-name="t" unicode="t" horiz-adv-x="918" 
d="M664 0q-94 0 -164.5 30t-118 84t-71 129.5t-23.5 166.5v1024h-213v122h213v496h164v-496h348v-122h-348v-1028q0 -123 58.5 -191t178.5 -68h111v-147h-135z" />
    <glyph glyph-name="u" unicode="u" horiz-adv-x="1675" 
d="M393 1556v-962q0 -229 110 -348t320 -119q97 0 177 33t137 94t88.5 147.5t31.5 192.5v962h168v-1556h-168v184q-86 -102 -199.5 -151t-258.5 -49q-132 0 -238.5 40t-181 115t-114.5 181.5t-40 240.5v995h168z" />
    <glyph glyph-name="v" unicode="v" horiz-adv-x="1491" 
d="M823 0h-159l-574 1556h184l471 -1359l472 1359h184z" />
    <glyph glyph-name="w" unicode="w" horiz-adv-x="2404" 
d="M1815 0h-168l-447 1298l-442 -1298h-164l-504 1556h184l402 -1359l446 1359h160l447 -1359l401 1359h184z" />
    <glyph glyph-name="x" unicode="x" horiz-adv-x="1352" 
d="M1090 0l-414 655l-410 -655h-205l529 795l-500 761h197l389 -626l385 626h205l-504 -761l524 -795h-196z" />
    <glyph glyph-name="y" unicode="y" horiz-adv-x="1491" 
d="M672 -418q-44 -136 -149 -209t-257 -73h-78v147h58q66 0 111 10.5t76.5 35.5t54.5 64.5t44 98.5l132 344l-574 1556h184l471 -1359l472 1359h184z" />
    <glyph glyph-name="z" unicode="z" horiz-adv-x="1417" 
d="M152 0v156l942 1253h-889v147h1061v-159l-947 -1250h947v-147h-1114z" />
    <glyph glyph-name="saraithai.alt1" 
d="M-1352 2163h1106v-140h-1106v140z" />
    <glyph glyph-name="saraiithai.alt1" 
d="M-1352 2163h930v286h176v-426h-1106v140z" />
    <glyph glyph-name="sarauethai.alt1" 
d="M-1352 2023v140h660q-13 15 -23 46.5t-10 59.5q0 52 19.5 97.5t53 79.5t78 53.5t95.5 19.5q52 0 97.5 -19.5t79.5 -53.5t53.5 -79.5t19.5 -97.5q0 -51 -19.5 -95.5t-53.5 -78t-79.5 -53t-97.5 -19.5h-873zM-598 2269q0 -24 10 -46t26.5 -38t38 -25.5t44.5 -9.5
q26 0 49 9.5t40.5 25.5t27.5 38t10 46q0 26 -10 48.5t-27.5 39t-40.5 26t-49 9.5q-23 0 -44.5 -9.5t-38 -26t-26.5 -39t-10 -48.5z" />
    <glyph glyph-name="saraueethai.alt1" 
d="M-1352 2163h627v286h156v-286h168v286h155v-426h-1106v140z" />
    <glyph glyph-name="saraithai.alt2" 
d="M-1999 2163h1528v-140h-1528v140z" />
    <glyph glyph-name="saraiithai.alt2" 
d="M-1999 2163h1352v286h176v-426h-1528v140z" />
    <glyph glyph-name="sarauethai.alt2" 
d="M-1999 2023v140h1077q-5 6 -10.5 18t-10 27t-8 31t-3.5 30q0 52 19.5 97.5t52.5 79.5t77.5 53.5t95.5 19.5q52 0 98 -19.5t79.5 -53.5t53 -79.5t19.5 -97.5q0 -51 -19.5 -95.5t-53 -78t-79.5 -53t-98 -19.5h-1290zM-827 2269q0 -24 10 -46t26.5 -38t37.5 -25.5t44 -9.5
q26 0 49 9.5t40.5 25.5t27.5 38t10 46q0 26 -10 48.5t-27.5 39t-40.5 26t-49 9.5q-23 0 -44 -9.5t-37.5 -26t-26.5 -39t-10 -48.5z" />
    <glyph glyph-name="saraueethai.alt2" 
d="M-1999 2163h1049v286h155v-286h168v286h156v-426h-1528v140z" />
    <glyph glyph-name="maiekthai.alt2" 
d="M-639 3006h168v-344h-168v344z" />
    <glyph glyph-name="maithothai.alt2" 
d="M-127 2806v-144h-823v131q20 1 40 4q17 2 37 5t37 8q17 3 36 11.5t34.5 24.5t26 41t10.5 62q0 56 -39 86.5t-117 24.5v147q72 0 130.5 -13.5t100 -42t63.5 -73.5t22 -108q0 -44 -19.5 -88.5t-50.5 -75.5h512z" />
    <glyph glyph-name="maitrithai.alt2" 
d="M-262 2797v-135h-331v258q0 43 -11.5 72.5t-27 49t-32.5 29.5t-28 13l-123 -136q-12 -15 -29 -21.5t-32 -6.5q-12 0 -26.5 8t-26.5 20l-148 136q-14 -3 -32 -12t-34.5 -26.5t-28 -46t-11.5 -71.5q0 -26 10.5 -50.5t31 -43.5t50 -30t68.5 -11v-144h-25q-62 0 -115 22
t-92 59.5t-61.5 86.5t-22.5 103q0 61 16.5 107.5t42.5 81t58 59t63 43.5q14 6 30 11.5t33.5 6.5t37 -6t39.5 -25l143 -127l119 127q15 17 34 23.5t38 6t35.5 -5.5t27.5 -11q34 -20 67 -46t59 -60.5t42 -79.5t16 -105v-123h176z" />
    <glyph glyph-name="maichattawathai.alt2" 
d="M-877 2875v144h242v221h160v-221h242v-144h-242v-213h-160v213h-242z" />
    <glyph glyph-name="saraithai.alt3" 
d="M-1974 2163h1728v-140h-1728v140z" />
    <glyph glyph-name="saraiithai.alt3" 
d="M-1974 2163h1552v286h176v-426h-1728v140z" />
    <glyph glyph-name="sarauethai.alt3" 
d="M-1974 2023v140h1282q-13 15 -23 46.5t-10 59.5q0 52 19.5 97.5t53 79.5t78 53.5t95.5 19.5q52 0 97.5 -19.5t79.5 -53.5t53.5 -79.5t19.5 -97.5q0 -51 -19.5 -95.5t-53.5 -78t-79.5 -53t-97.5 -19.5h-1495zM-598 2269q0 -24 10 -46t26.5 -38t38 -25.5t44.5 -9.5
q26 0 49 9.5t40.5 25.5t27.5 38t10 46q0 26 -10 48.5t-27.5 39t-40.5 26t-49 9.5q-23 0 -44.5 -9.5t-38 -26t-26.5 -39t-10 -48.5z" />
    <glyph glyph-name="saraueethai.alt3" 
d="M-1974 2163h1249v286h156v-286h168v286h155v-426h-1728v140z" />
    <glyph glyph-name="maiekthai.alt3" 
d="M-414 3006h168v-444h-168v444z" />
    <glyph glyph-name="maithothai.alt3" 
d="M98 2706v-144h-823v131q21 1 41 4q17 2 37 5t37 8q17 3 35.5 11.5t34.5 24.5t26 41t10 62q0 56 -39 86.5t-116 24.5v147q72 0 130 -13.5t99.5 -42t63.5 -73.5t22 -108q0 -44 -19.5 -88.5t-50.5 -75.5h512z" />
    <glyph glyph-name="maitrithai.alt3" 
d="M21 2698v-136h-386v258q0 43 -11 73t-27 49t-32.5 29t-27.5 13l-123 -135q-12 -15 -29 -22t-32 -7q-13 0 -27 8.5t-26 20.5l-148 135q-14 -3 -32 -11.5t-34.5 -26t-28 -46t-11.5 -71.5q0 -26 10.5 -50.5t30.5 -43.5t50 -30.5t68 -11.5v-143h-24q-62 0 -115 22t-92 59.5
t-61.5 86t-22.5 102.5q0 61 16.5 107.5t42.5 81t58 59.5t63 43q14 6 30 12t33.5 6.5t36.5 -6t39 -24.5l144 -127l119 127q15 17 34 23.5t38 6t35.5 -6t27.5 -11.5q34 -20 67 -45.5t59 -60t42 -80t16 -105.5v-122h230z" />
    <glyph glyph-name="maichattawathai.alt3" 
d="M-647 2775v144h241v221h160v-221h242v-144h-242v-213h-160v213h-241z" />
    <glyph glyph-name="saraithai.alt4" 
d="M-1565 2163h1270v-140h-1270v140z" />
    <glyph glyph-name="saraiithai.alt4" 
d="M-1565 2163h1094v286h176v-426h-1270v140z" />
    <glyph glyph-name="thanthakhatthai.alt4" 
d="M-692 1942q0 90 23 145.5t59 86t80.5 40.5t87.5 10h303v-139h-283q-34 0 -53.5 -8.5t-29.5 -26t-12.5 -44.5t-2.5 -64h-172z" />
    <glyph glyph-name="zero.alt1" horiz-adv-x="1487" 
d="M1266 512q0 -117 -38 -214.5t-107.5 -168t-166 -110t-213.5 -39.5t-213.5 39.5t-165.5 110t-107 168t-38 214.5v631q0 117 38 214.5t107 168t165.5 110t213.5 39.5t213.5 -39.5t166 -110t107.5 -168t38 -214.5v-631zM1102 1126q0 85 -23 158.5t-68.5 127.5t-113 85
t-156.5 31q-87 0 -154.5 -31t-113 -85t-69 -127.5t-23.5 -158.5v-598q0 -84 23.5 -157.5t69 -127.5t113 -85t154.5 -31q89 0 156.5 31t113 85t68.5 127.5t23 157.5v598z" />
    <glyph glyph-name="one.alt1" horiz-adv-x="1282" 
d="M639 0v1466l-356 -311v197l364 311h156v-1663h-164z" />
    <glyph glyph-name="two.alt1" horiz-adv-x="1487" 
d="M197 0v139l712 672q84 84 134.5 180.5t50.5 204.5q0 72 -28.5 136t-78 112t-117 76t-145.5 28q-74 0 -139.5 -27.5t-114.5 -76.5t-77.5 -116.5t-28.5 -147.5h-164q0 106 38.5 199t108 162.5t166 110t211.5 40.5q121 0 219 -39t166.5 -106.5t105.5 -157.5t37 -193
q0 -74 -16 -139t-45.5 -123.5t-71 -112t-92.5 -104.5l-610 -570h889v-147h-1110z" />
    <glyph glyph-name="three.alt1" horiz-adv-x="1487" 
d="M1315 213q0 -135 -43.5 -238.5t-119.5 -173t-179 -105.5t-223 -36q-119 0 -220 31t-177 95t-121.5 161t-51.5 229h164q8 -100 44.5 -170t92.5 -114.5t125.5 -64.5t143.5 -20q84 0 157.5 27.5t127.5 80t85 128t31 170.5t-24 169.5t-74 126t-128.5 78.5t-187.5 27h-45v152
h45q190 0 283.5 97.5t93.5 279.5q0 94 -29 165.5t-79 120.5t-117 74t-144 25q-83 0 -148.5 -25t-113 -71.5t-76.5 -112.5t-38 -148h-164q12 120 58 213.5t117 158t164.5 98.5t200.5 34q118 0 216.5 -37.5t168.5 -107t109 -168t39 -219.5q0 -148 -61 -261.5t-193 -181.5
q149 -62 220 -184.5t71 -302.5z" />
    <glyph glyph-name="four.alt1" horiz-adv-x="1487" 
d="M1118 0v-418h-164v418h-831v139l754 1520h172l-746 -1512h651v623h164v-623h262v-147h-262z" />
    <glyph glyph-name="five.alt1" horiz-adv-x="1487" 
d="M1278 328q0 -72 -4 -143t-20 -138.5t-47 -130t-85 -117.5q-71 -71 -164.5 -107t-220.5 -36q-124 0 -220.5 33.5t-164.5 101.5q-55 59 -90.5 142.5t-44.5 197.5h164q22 -157 107.5 -242.5t248.5 -85.5q78 0 147 26t115 73q42 41 65 92.5t34 107.5t13.5 114t2.5 112
q0 60 -5 121t-18.5 117.5t-37.5 105.5t-63 85.5t-95 57.5t-133 21q-66 0 -123 -13.5t-102 -40t-76.5 -64.5t-46.5 -87h-144v1024h963v-148h-815v-647q65 68 155.5 97.5t204.5 29.5q109 0 191.5 -33.5t144.5 -89.5q52 -54 84 -118t50 -133.5t24 -142t6 -142.5z" />
    <glyph glyph-name="six.alt1" horiz-adv-x="1487" 
d="M1356 610q0 -131 -41.5 -245.5t-120 -200t-193 -135t-260.5 -49.5t-259.5 46t-191.5 127.5t-118.5 194t-40.5 246.5q0 54 6 106t20.5 107t39 114.5t61.5 127.5l541 1019h172l-475 -884q52 15 121 28t137 13q143 0 255 -47t189 -130t117.5 -195.5t40.5 -242.5zM1184 602
q0 97 -27 184t-81 152.5t-135.5 104t-190.5 38.5q-102 0 -185 -34t-142 -96.5t-91.5 -151t-32.5 -197.5q0 -104 31 -193.5t88.5 -154.5t139.5 -102t183 -37q102 0 183.5 37t139.5 102t89 154.5t31 193.5z" />
    <glyph glyph-name="seven.alt1" horiz-adv-x="1487" 
d="M557 -414h-172l774 1934h-819v-324h-164v459h1159v-131z" />
    <glyph glyph-name="eight.alt1" horiz-adv-x="1487" 
d="M1372 561q0 -125 -48 -230.5t-132.5 -182.5t-201 -120.5t-253.5 -43.5q-132 0 -246.5 43.5t-198.5 120.5t-132.5 182.5t-48.5 230.5q0 91 25.5 169t71 143t109 116t138.5 88q-145 80 -220 194t-75 277q0 117 42 215.5t117.5 170t182 111.5t235.5 40q130 0 238.5 -40
t186.5 -111.5t121.5 -170t43.5 -215.5q0 -157 -78 -274t-217 -197q78 -37 141 -88t107.5 -116t68 -143t23.5 -169zM1159 1548q0 88 -30 162.5t-85.5 128.5t-133.5 84.5t-173 30.5q-92 0 -168 -30.5t-130.5 -84.5t-84.5 -128.5t-30 -162.5q0 -89 30 -162.5t84.5 -126.5
t130.5 -82.5t168 -29.5q95 0 173 29.5t133.5 82.5t85.5 126.5t30 162.5zM1204 569q0 94 -35.5 175t-98 140.5t-148 93.5t-185.5 34q-97 0 -180.5 -34t-145 -93.5t-97 -140.5t-35.5 -175q0 -90 35.5 -170.5t97 -141t145 -95.5t180.5 -35q100 0 185.5 35t148 95.5t98 141
t35.5 170.5z" />
    <glyph glyph-name="nine.alt1" horiz-adv-x="1487" 
d="M131 1044q0 132 40.5 247.5t118.5 200.5t191.5 134t259.5 49q148 0 262.5 -46t193 -127t119 -193t40.5 -244q0 -54 -6.5 -107t-21.5 -108.5t-39.5 -114.5t-59.5 -125l-545 -1020h-168l475 885q-52 -15 -121 -28t-137 -13q-143 0 -255 47t-189 129t-117.5 193.5
t-40.5 240.5zM299 1057q0 -97 27.5 -184t82.5 -152.5t137 -104t191 -38.5q102 0 184.5 34t141 96.5t90 151t31.5 197.5q0 104 -30.5 193t-88 154.5t-139.5 102.5t-185 37q-100 0 -181.5 -37t-139.5 -102.5t-89.5 -154.5t-31.5 -193z" />
    <glyph glyph-name="maitaikhuthai.alt1" 
d="M-909 2540q-49 0 -86.5 -21t-63 -51.5t-38.5 -64.5t-13 -60q0 -29 7.5 -58.5t22.5 -55.5t37.5 -47.5t51.5 -35.5l168 135q21 16 48.5 16t49.5 -16l176 -139q29 12 50.5 30.5t33.5 44t13.5 59.5t-7.5 79h156q15 -71 1.5 -132.5t-49.5 -110t-91.5 -81t-122.5 -44.5
l-209 167l-201 -167q-63 18 -117 48t-93.5 73t-62 101.5t-22.5 133.5q0 60 23 117.5t66.5 103t106 75t140.5 32.5h717v-131h-692z" />
    <glyph glyph-name="maiekthai.alt5" 
d="M-414 3006h168v-507h-168v507z" />
    <glyph glyph-name="maithothai.alt5" 
d="M98 2601v-143h-823v131q21 0 41 3q17 2 37 5t37 8q17 3 35.5 11.5t34.5 24.5t26 41t10 62q0 56 -39 86.5t-116 24.5v147q72 0 130 -13.5t99.5 -42t63.5 -73.5t22 -108q0 -44 -19.5 -88.5t-50.5 -75.5h512z" />
    <glyph glyph-name="maitrithai.alt5" 
d="M21 2594v-136h-386v258q0 43 -11 73t-27 49t-32.5 29t-27.5 13l-123 -135q-12 -15 -29 -22t-32 -7q-13 0 -27 8.5t-26 20.5l-148 135q-14 -3 -32 -11.5t-34.5 -26t-28 -46t-11.5 -71.5q0 -26 10.5 -50.5t30.5 -43.5t50 -30.5t68 -11.5v-143h-24q-62 0 -115 22t-92 59.5
t-61.5 86t-22.5 102.5q0 61 16.5 107.5t42.5 81t58 59.5t63 43q14 6 30 12t33.5 6.5t36.5 -6t39 -24.5l144 -127l119 127q15 17 34 23.5t38 6t35.5 -6t27.5 -11.5q34 -20 67 -45.5t59 -60t42 -80t16 -105.5v-122h230z" />
    <glyph glyph-name="maichattawathai.alt5" 
d="M-647 2671v143h241v221h160v-221h242v-143h-242v-213h-160v213h-241z" />
    <glyph glyph-name="maihanakatthai.alt2" 
d="M-971 2306q0 -37 3.5 -64t14 -44.5t30 -26t51.5 -8.5h1056v-140h-1089q-43 0 -87.5 12t-80.5 43.5t-59 86.5t-23 141h184z" />
    <glyph glyph-name="maiekthai.alt7" 
d="M-786 2970h176v-508h-176v508z" />
    <glyph glyph-name="maithothai.alt7" 
d="M-610 2646v-143h-848v131q20 0 40 3q17 2 37.5 5t37.5 8q17 3 35.5 11.5t34.5 24.5t26 41t10 62q0 56 -39 86.5t-117 24.5v147q72 0 130.5 -13.5t100 -42t63.5 -73.5t22 -108q0 -43 -19.5 -88t-50.5 -76h537z" />
    <glyph glyph-name="maitrithai.alt7" 
d="M-582 2597v-135h-331v258q0 43 -11.5 72.5t-27 49t-32.5 29.5t-28 13l-123 -136q-12 -15 -29 -21.5t-32 -6.5q-12 0 -26.5 8t-26.5 20l-148 136q-14 -3 -32 -12t-34.5 -26.5t-28 -46t-11.5 -71.5q0 -26 10.5 -50.5t31 -43.5t50 -30t68.5 -11v-144h-25q-62 0 -115 22
t-92 59.5t-61.5 86.5t-22.5 103q0 61 16.5 107.5t42.5 81t58 59t63 43.5q14 6 30 11.5t33.5 6.5t37 -6t39.5 -25l143 -127l119 127q15 17 34 23.5t38 6t35.5 -5.5t27.5 -11q34 -20 67 -46t59 -60.5t42 -79.5t16 -105v-123h176z" />
    <glyph glyph-name="maichattawathai.alt7" 
d="M-1032 2671v143h241v221h160v-221h242v-143h-242v-213h-160v213h-241z" />
    <glyph glyph-name="maiekupperleftthai.alt9" 
d="M-921 3006h168v-344h-168v344z" />
    <glyph glyph-name="maichattawaupperleftthai.alt9" 
d="M-1152 2875v144h242v221h160v-221h241v-144h-241v-213h-160v213h-242z" />
    <glyph glyph-name="saraileftthai" 
d="M-1675 2163h1065v-140h-1065v140z" />
    <glyph glyph-name="saraileftthai" unicode="&#xf701;" 
d="M-1675 2163h1065v-140h-1065v140z" />
    <glyph glyph-name="saraiileftthai" 
d="M-1675 2163h889v286h176v-426h-1065v140z" />
    <glyph glyph-name="saraiileftthai" unicode="&#xf702;" 
d="M-1675 2163h889v286h176v-426h-1065v140z" />
    <glyph glyph-name="saraueleftthai" 
d="M-1749 2023v140h717q-5 6 -10.5 18t-10.5 27t-8.5 31t-3.5 30q0 52 19.5 97.5t53 79.5t78 53.5t95.5 19.5q52 0 97.5 -19.5t79.5 -53.5t53.5 -79.5t19.5 -97.5q0 -51 -19.5 -95.5t-53.5 -78t-79.5 -53t-97.5 -19.5h-930zM-938 2269q0 -24 10 -46t26.5 -38t38 -25.5
t44.5 -9.5q26 0 49 9.5t40.5 25.5t27.5 38t10 46q0 26 -10 48.5t-27.5 39t-40.5 26t-49 9.5q-23 0 -44.5 -9.5t-38 -26t-26.5 -39t-10 -48.5z" />
    <glyph glyph-name="saraueleftthai" unicode="&#xf703;" 
d="M-1749 2023v140h717q-5 6 -10.5 18t-10.5 27t-8.5 31t-3.5 30q0 52 19.5 97.5t53 79.5t78 53.5t95.5 19.5q52 0 97.5 -19.5t79.5 -53.5t53.5 -79.5t19.5 -97.5q0 -51 -19.5 -95.5t-53.5 -78t-79.5 -53t-97.5 -19.5h-930zM-938 2269q0 -24 10 -46t26.5 -38t38 -25.5
t44.5 -9.5q26 0 49 9.5t40.5 25.5t27.5 38t10 46q0 26 -10 48.5t-27.5 39t-40.5 26t-49 9.5q-23 0 -44.5 -9.5t-38 -26t-26.5 -39t-10 -48.5z" />
    <glyph glyph-name="saraueeleftthai" 
d="M-1757 2163h667v286h156v-286h168v286h156v-426h-1147v140z" />
    <glyph glyph-name="saraueeleftthai" unicode="&#xf704;" 
d="M-1757 2163h667v286h156v-286h168v286h156v-426h-1147v140z" />
    <glyph glyph-name="maieklowleftthai" 
d="M-942 2531h176v-508h-176v508zM-942 2531h176v-508h-176v508z" />
    <glyph glyph-name="maieklowleftthai" unicode="&#xf705;" 
d="M-942 2531h176v-508h-176v508zM-942 2531h176v-508h-176v508z" />
    <glyph glyph-name="maitholowleftthai" 
d="M-553 2167v-144h-860v131q21 1 41 4q17 2 37 5t37 8q17 3 35.5 11.5t34.5 24.5t26 41t10 62q0 56 -39 86.5t-117 24.5v147q72 0 130.5 -13.5t100 -42t63.5 -73.5t22 -108q0 -44 -19.5 -88.5t-50.5 -75.5h549z" />
    <glyph glyph-name="maitholowleftthai" unicode="&#xf706;" 
d="M-553 2167v-144h-860v131q21 1 41 4q17 2 37 5t37 8q17 3 35.5 11.5t34.5 24.5t26 41t10 62q0 56 -39 86.5t-117 24.5v147q72 0 130.5 -13.5t100 -42t63.5 -73.5t22 -108q0 -44 -19.5 -88.5t-50.5 -75.5h549z" />
    <glyph glyph-name="maitrilowleftthai" 
d="M-422 2159v-136h-389v258q0 43 -11.5 73t-27 49t-32.5 29t-27 13l-123 -135q-13 -15 -29.5 -22t-32.5 -7q-12 0 -26 8.5t-27 20.5l-147 135q-14 -3 -32.5 -11.5t-35 -26t-28 -46t-11.5 -71.5q0 -26 10.5 -50.5t31 -43.5t50.5 -30.5t68 -11.5v-143h-25q-62 0 -115 22
t-92 59.5t-61 86t-22 102.5q0 61 16.5 107.5t42.5 81t58 59.5t63 43q14 6 30 12t33.5 6.5t36.5 -6t39 -24.5l143 -127l119 127q15 17 34.5 23.5t38 6t35 -6t27.5 -11.5q34 -20 67 -45.5t59 -60t42.5 -80t16.5 -105.5v-122h233z" />
    <glyph glyph-name="maitrilowleftthai" unicode="&#xf707;" 
d="M-422 2159v-136h-389v258q0 43 -11.5 73t-27 49t-32.5 29t-27 13l-123 -135q-13 -15 -29.5 -22t-32.5 -7q-12 0 -26 8.5t-27 20.5l-147 135q-14 -3 -32.5 -11.5t-35 -26t-28 -46t-11.5 -71.5q0 -26 10.5 -50.5t31 -43.5t50.5 -30.5t68 -11.5v-143h-25q-62 0 -115 22
t-92 59.5t-61 86t-22 102.5q0 61 16.5 107.5t42.5 81t58 59.5t63 43q14 6 30 12t33.5 6.5t36.5 -6t39 -24.5l143 -127l119 127q15 17 34.5 23.5t38 6t35 -6t27.5 -11.5q34 -20 67 -45.5t59 -60t42.5 -80t16.5 -105.5v-122h233z" />
    <glyph glyph-name="maichattawalowleftthai" 
d="M-1241 2220v143h242v222h159v-222h242v-143h-242v-213h-159v213h-242z" />
    <glyph glyph-name="maichattawalowleftthai" unicode="&#xf708;" 
d="M-1241 2220v143h242v222h159v-222h242v-143h-242v-213h-159v213h-242z" />
    <glyph glyph-name="thanthakhatlowleftthai" 
d="M-1090 2023q0 91 23 146.5t59 86t80.5 40.5t87.5 10h258v-139h-258q-31 0 -49.5 -8.5t-28.5 -26.5t-13 -45t-3 -64h-156z" />
    <glyph glyph-name="thanthakhatlowleftthai" unicode="&#xf709;" 
d="M-1090 2023q0 91 23 146.5t59 86t80.5 40.5t87.5 10h258v-139h-258q-31 0 -49.5 -8.5t-28.5 -26.5t-13 -45t-3 -64h-156z" />
    <glyph glyph-name="maieklowrightthai" 
d="M-422 2531h176v-508h-176v508z" />
    <glyph glyph-name="maieklowrightthai" unicode="&#xf70a;" 
d="M-422 2531h176v-508h-176v508z" />
    <glyph glyph-name="maitholowrightthai" 
d="M-102 2167v-144h-889v131q20 1 40 4q17 2 37 5t37 8q17 3 36 11.5t34.5 24.5t26 41t10.5 62q0 56 -39 86.5t-117 24.5v147q72 0 130.5 -13.5t100 -42t63.5 -73.5t22 -108q0 -44 -19.5 -88.5t-50.5 -75.5h578z" />
    <glyph glyph-name="maitholowrightthai" unicode="&#xf70b;" 
d="M-102 2167v-144h-889v131q20 1 40 4q17 2 37 5t37 8q17 3 36 11.5t34.5 24.5t26 41t10.5 62q0 56 -39 86.5t-117 24.5v147q72 0 130.5 -13.5t100 -42t63.5 -73.5t22 -108q0 -44 -19.5 -88.5t-50.5 -75.5h578z" />
    <glyph glyph-name="maitrilowrightthai" 
d="M-57 2159v-136h-496v258q0 43 -11.5 73t-27 49t-32.5 29t-27 13l-123 -135q-13 -15 -29.5 -22t-32.5 -7q-12 0 -26 8.5t-27 20.5l-147 135q-14 -3 -32.5 -11.5t-35 -26t-28 -46t-11.5 -71.5q0 -26 10.5 -50.5t31 -43.5t50.5 -30.5t68 -11.5v-143h-25q-61 0 -114 22
t-92 59.5t-61.5 86t-22.5 102.5q0 61 16.5 107.5t42.5 81t58 59.5t63 43q14 6 30 12t33.5 6.5t36.5 -6t39 -24.5l143 -127l119 127q15 17 34.5 23.5t38 6t35 -6t27.5 -11.5q34 -20 67 -45.5t59 -60t42.5 -80t16.5 -105.5v-122h340z" />
    <glyph glyph-name="maitrilowrightthai" unicode="&#xf70c;" 
d="M-57 2159v-136h-496v258q0 43 -11.5 73t-27 49t-32.5 29t-27 13l-123 -135q-13 -15 -29.5 -22t-32.5 -7q-12 0 -26 8.5t-27 20.5l-147 135q-14 -3 -32.5 -11.5t-35 -26t-28 -46t-11.5 -71.5q0 -26 10.5 -50.5t31 -43.5t50.5 -30.5t68 -11.5v-143h-25q-61 0 -114 22
t-92 59.5t-61.5 86t-22.5 102.5q0 61 16.5 107.5t42.5 81t58 59.5t63 43q14 6 30 12t33.5 6.5t36.5 -6t39 -24.5l143 -127l119 127q15 17 34.5 23.5t38 6t35 -6t27.5 -11.5q34 -20 67 -45.5t59 -60t42.5 -80t16.5 -105.5v-122h340z" />
    <glyph glyph-name="maichattawalowrightthai" 
d="M-651 2236v144h241v221h160v-221h242v-144h-242v-213h-160v213h-241z" />
    <glyph glyph-name="maichattawalowrightthai" unicode="&#xf70d;" 
d="M-651 2236v144h241v221h160v-221h242v-144h-242v-213h-160v213h-241z" />
    <glyph glyph-name="thanthakhatlowrightthai" 
d="M-692 2023q0 91 23 146.5t59 86t80.5 40.5t87.5 10h352v-139h-352q-31 0 -49.5 -8.5t-28.5 -26.5t-13.5 -45t-3.5 -64h-155z" />
    <glyph glyph-name="thanthakhatlowrightthai" unicode="&#xf70e;" 
d="M-692 2023q0 91 23 146.5t59 86t80.5 40.5t87.5 10h352v-139h-352q-31 0 -49.5 -8.5t-28.5 -26.5t-13.5 -45t-3.5 -64h-155z" />
    <glyph glyph-name="maihanakatleftthai" 
d="M-971 2306q0 -37 3.5 -64t14 -44.5t30 -26t51.5 -8.5h933v-140h-966q-43 0 -87.5 12t-80.5 43.5t-59 86.5t-23 141h184z" />
    <glyph glyph-name="maihanakatleftthai" unicode="&#xf710;" 
d="M-971 2306q0 -37 3.5 -64t14 -44.5t30 -26t51.5 -8.5h933v-140h-966q-43 0 -87.5 12t-80.5 43.5t-59 86.5t-23 141h184z" />
    <glyph glyph-name="nikhahitleftthai" 
d="M-1114 2245q0 55 21 103.5t57 84.5t84.5 57t103.5 21q54 0 101.5 -21t83 -57t56.5 -84.5t21 -103.5q0 -54 -21 -102t-56.5 -83.5t-83 -56.5t-101.5 -21q-55 0 -103.5 21t-84.5 56.5t-57 83.5t-21 102zM-983 2245q0 -28 10.5 -52t29 -41.5t43 -27.5t52.5 -10t52.5 10
t43 27.5t29 41.5t10.5 52q0 29 -10.5 53.5t-29 42.5t-43 28.5t-52.5 10.5t-52.5 -10.5t-43 -28.5t-29 -42.5t-10.5 -53.5z" />
    <glyph glyph-name="nikhahitleftthai" unicode="&#xf711;" 
d="M-1114 2245q0 55 21 103.5t57 84.5t84.5 57t103.5 21q54 0 101.5 -21t83 -57t56.5 -84.5t21 -103.5q0 -54 -21 -102t-56.5 -83.5t-83 -56.5t-101.5 -21q-55 0 -103.5 21t-84.5 56.5t-57 83.5t-21 102zM-983 2245q0 -28 10.5 -52t29 -41.5t43 -27.5t52.5 -10t52.5 10
t43 27.5t29 41.5t10.5 52q0 29 -10.5 53.5t-29 42.5t-43 28.5t-52.5 10.5t-52.5 -10.5t-43 -28.5t-29 -42.5t-10.5 -53.5z" />
    <glyph glyph-name="maitaikhuleftthai" 
d="M-1245 2507q-49 0 -86.5 -20.5t-63 -50t-38.5 -63t-13 -59.5q0 -29 7.5 -58.5t22.5 -55.5t37.5 -47.5t51.5 -34.5l168 151q22 16 49 16t49 -16l176 -151q29 12 50.5 29.5t33.5 42.5t13.5 58.5t-7.5 78.5h156q15 -71 1.5 -133t-49.5 -110t-91.5 -81t-122.5 -45l-209 184
l-201 -184q-63 18 -117 48t-93.5 73.5t-62 101.5t-22.5 133q0 60 23 117.5t66.5 103.5t106 75t140.5 32h729v-135h-704z" />
    <glyph glyph-name="maitaikhuleftthai" unicode="&#xf712;" 
d="M-1245 2507q-49 0 -86.5 -20.5t-63 -50t-38.5 -63t-13 -59.5q0 -29 7.5 -58.5t22.5 -55.5t37.5 -47.5t51.5 -34.5l168 151q22 16 49 16t49 -16l176 -151q29 12 50.5 29.5t33.5 42.5t13.5 58.5t-7.5 78.5h156q15 -71 1.5 -133t-49.5 -110t-91.5 -81t-122.5 -45l-209 184
l-201 -184q-63 18 -117 48t-93.5 73.5t-62 101.5t-22.5 133q0 60 23 117.5t66.5 103.5t106 75t140.5 32h729v-135h-704z" />
    <glyph glyph-name="maiekupperleftthai" 
d="M-781 3006h168v-344h-168v344z" />
    <glyph glyph-name="maiekupperleftthai" unicode="&#xf713;" 
d="M-781 3006h168v-344h-168v344z" />
    <glyph glyph-name="maithoupperleftthai" 
d="M-201 2810v-144h-889v132q21 0 41 3q17 2 37 5t37 8q17 3 36 11.5t34.5 24.5t26 41t10.5 62q0 56 -39.5 86.5t-116.5 24.5v147q72 0 130.5 -13.5t99.5 -42t63 -73.5t22 -108q0 -44 -19 -88.5t-50 -75.5h577z" />
    <glyph glyph-name="maithoupperleftthai" unicode="&#xf714;" 
d="M-201 2810v-144h-889v132q21 0 41 3q17 2 37 5t37 8q17 3 36 11.5t34.5 24.5t26 41t10.5 62q0 56 -39.5 86.5t-116.5 24.5v147q72 0 130.5 -13.5t99.5 -42t63 -73.5t22 -108q0 -44 -19 -88.5t-50 -75.5h577z" />
    <glyph glyph-name="maitriupperleftthai" 
d="M-439 2801v-135h-331v258q0 43 -11.5 72.5t-27 49t-32.5 29.5t-28 13l-123 -136q-12 -15 -29 -21.5t-32 -6.5q-12 0 -26.5 8t-26.5 20l-148 136q-14 -3 -32 -12t-34.5 -26.5t-28 -46t-11.5 -71.5q0 -26 10.5 -50.5t31 -43.5t50 -30t68.5 -11v-144h-25q-62 0 -115 22
t-92 59.5t-61.5 86.5t-22.5 103q0 61 16.5 107.5t42.5 81t58 59t63 43.5q14 6 30 11.5t33.5 6.5t37 -6t39.5 -25l143 -127l119 127q15 17 34 23.5t38 6t35.5 -5.5t27.5 -11q34 -20 67 -46t59 -60.5t42 -79.5t16 -105v-123h176z" />
    <glyph glyph-name="maitriupperleftthai" unicode="&#xf715;" 
d="M-439 2801v-135h-331v258q0 43 -11.5 72.5t-27 49t-32.5 29.5t-28 13l-123 -136q-12 -15 -29 -21.5t-32 -6.5q-12 0 -26.5 8t-26.5 20l-148 136q-14 -3 -32 -12t-34.5 -26.5t-28 -46t-11.5 -71.5q0 -26 10.5 -50.5t31 -43.5t50 -30t68.5 -11v-144h-25q-62 0 -115 22
t-92 59.5t-61.5 86.5t-22.5 103q0 61 16.5 107.5t42.5 81t58 59t63 43.5q14 6 30 11.5t33.5 6.5t37 -6t39.5 -25l143 -127l119 127q15 17 34 23.5t38 6t35.5 -5.5t27.5 -11q34 -20 67 -46t59 -60.5t42 -79.5t16 -105v-123h176z" />
    <glyph glyph-name="maichattawaupperleftthai" 
d="M-1012 2875v144h242v221h160v-221h241v-144h-241v-213h-160v213h-242z" />
    <glyph glyph-name="maichattawaupperleftthai" unicode="&#xf716;" 
d="M-1012 2875v144h242v221h160v-221h241v-144h-241v-213h-160v213h-242z" />
    <glyph glyph-name="thanthakhatupperleftthai" 
d="M-778 2462q0 90 23 145.5t59 86t80.5 40.5t87.5 10h278v-139h-278q-31 0 -49.5 -8.5t-28.5 -26t-13.5 -44.5t-3.5 -64h-155z" />
    <glyph glyph-name="thanthakhatupperleftthai" unicode="&#xf717;" 
d="M-778 2462q0 90 23 145.5t59 86t80.5 40.5t87.5 10h278v-139h-278q-31 0 -49.5 -8.5t-28.5 -26t-13.5 -44.5t-3.5 -64h-155z" />
    </font>
</defs>
</svg>
