<?xml version="1.0" standalone="no"?>
<!DOCTYPE svg PUBLIC "-//W3C//DTD SVG 1.1//EN" "http://www.w3.org/Graphics/SVG/1.1/DTD/svg11.dtd" >
<svg>
<metadata>
Created by FontForge 20090622 at Sun May 24 06:04:21 2020
 By deploy user
Copyright (c) 2008 by Prinya R. nont. All rights reserved.
</metadata>
<defs>
<font id="DBOzoneX-UltraLi" horiz-adv-x="0" >
  <font-face 
    font-family="DB Ozone X UltraLi"
    font-weight="200"
    font-stretch="normal"
    units-per-em="4096"
    panose-1="2 0 5 6 9 0 0 2 0 4"
    ascent="3276"
    descent="-820"
    x-height="1556"
    cap-height="2068"
    bbox="-1958 -1245 3359 3236"
    underline-thickness="82"
    underline-position="-463"
    unicode-range="U+000D-U+F882"
  />
<missing-glyph horiz-adv-x="1421" 
d="M1446 1372v-49h20q25 0 25 29q0 4 -4 12t-21 8h-20zM1458 1319h-12v-45h-16v115h36q41 0 41 -37q0 -21 -10 -27t-22 -6l32 -45h-16zM1466 1253q45 0 59.5 25t14.5 45q0 37 -18.5 59.5t-55.5 22.5q-36 0 -56.5 -22.5t-20.5 -59.5q0 -29 20.5 -49.5t56.5 -20.5zM1466 1417
q45 0 65.5 -28.5t20.5 -65.5q0 -29 -20.5 -53.5t-65.5 -24.5q-36 0 -61 24.5t-25 53.5q0 37 25 65.5t61 28.5zM688 1085q53 -4 129 -14t149.5 -24.5t133 -33t96.5 -42.5q-74 135 -217 208.5t-295 73.5q-115 0 -221.5 -45t-175.5 -135q65 8 126.5 10t123.5 2h75h76z
M1286 1352v-484q-164 50 -377 86.5t-446 36.5q-164 0 -324 -20q25 78 68 147.5t112.5 122.5t159.5 82t201 29q102 0 190 -22.5t151.5 -55.5t106.5 -76t68 -76l-2 24.5t-2 63.5v80v62h94zM524 438q0 25 -18.5 39.5t-38.5 14.5q-25 0 -43 -14.5t-18 -39.5q0 -32 18 -42.5
t43 -10.5q20 0 38.5 10.5t18.5 42.5zM111 475q0 78 28.5 141.5t81.5 104.5t116.5 61.5t137.5 20.5q66 0 129.5 -18.5t114.5 -57.5t77.5 -96.5t26.5 -138.5v-398h369v688h94v-778h-651v90h102v406q0 102 -73.5 153.5t-188.5 51.5q-102 0 -182 -57.5t-80 -155.5v-369l193 201
q-13 4 -41.5 32.5t-28.5 81.5q0 58 37 94.5t102 36.5q57 0 92 -38.5t35 -92.5q0 -49 -18.5 -75.5t-30.5 -38.5q-8 -9 -59.5 -60t-112.5 -104l-164 -156h-106v471z" />
    <glyph glyph-name="ellipsis" unicode="&#x2e;&#x2e;&#x2e;" horiz-adv-x="2294" 
d="M283 102q0 26 9.5 48.5t26 39t39 26t48.5 9.5t48 -9.5t38.5 -26t26 -39t9.5 -48.5t-9.5 -48t-26 -38.5t-38.5 -26t-48 -9.5t-48.5 9.5t-39 26t-26 38.5t-9.5 48zM1024 102q0 26 9.5 48.5t26 39t39 26t48.5 9.5t48.5 -9.5t39 -26t26 -39t9.5 -48.5t-9.5 -48t-26 -38.5
t-39 -26t-48.5 -9.5t-48.5 9.5t-39 26t-26 38.5t-9.5 48zM1765 102q0 26 9.5 48.5t26 39t39 26t48.5 9.5t48.5 -9.5t39 -26t26 -39t9.5 -48.5t-9.5 -48t-26 -38.5t-39 -26t-48.5 -9.5t-48.5 9.5t-39 26t-26 38.5t-9.5 48z" />
    <glyph glyph-name="dochadaphinthuthai" unicode="&#xe0e;&#xe3a;" horiz-adv-x="1810" 
d="M471 373q0 -115 -30.5 -187t-76.5 -113.5t-98.5 -57.5t-97.5 -19l-25 119q69 3 109.5 30t60.5 65t25.5 82t5.5 81v659l-147 217q119 212 292 315t412 103q168 0 292 -43t206 -124.5t123 -200.5t43 -271v-1315q0 -60 -21.5 -110.5t-60.5 -81t-94.5 -34.5t-122.5 30
l-377 188q-25 12 -43.5 11.5t-46.5 -15.5l-377 -201l-62 99l422 225q31 15 60 13t63 -17l406 -189q55 -24 89 -3.5t34 85.5v1315q0 138 -38.5 237.5t-108.5 163t-169.5 93.5t-220.5 30q-71 0 -144 -14.5t-145 -49t-140 -92t-128 -143.5l131 -209v-671zM1376 -811
q0 23 9.5 44t25 36.5t36.5 25t44 9.5t44 -9.5t36.5 -25t25 -36.5t9.5 -44t-9.5 -44t-25 -36.5t-36.5 -25t-44 -9.5t-44 9.5t-36.5 25t-25 36.5t-9.5 44z" />
    <glyph glyph-name="topatakphintuthai" unicode="&#xe0f;&#xe3a;" horiz-adv-x="1810" 
d="M1434 1028q0 138 -38.5 237.5t-108.5 163t-169.5 93.5t-220.5 30q-72 0 -145.5 -14.5t-145 -49t-139 -92t-127.5 -143.5l131 -209v-671q0 -115 -30.5 -187t-76.5 -113.5t-98.5 -57.5t-97.5 -19l-25 119q69 3 109.5 30t60.5 65t25.5 82t5.5 81v659l-147 217
q119 212 292 315t412 103q168 0 292 -43t206 -124.5t123 -200.5t43 -271v-1302q0 -63 -24.5 -115t-65 -82.5t-94 -34t-111.5 30.5l-291 176q-25 19 -41 17t-41 -17l-274 -180q-31 -22 -54.5 -20.5t-48.5 20.5l-315 246l94 69l246 -184q18 -16 33 -16t36 16l271 176
q31 19 53.5 19t56.5 -19l303 -180q25 -14 49 -18t43.5 4.5t31.5 30.5t12 61v1302zM1376 -811q0 23 9.5 44t25 36.5t36.5 25t44 9.5t44 -9.5t36.5 -25t25 -36.5t9.5 -44t-9.5 -44t-25 -36.5t-36.5 -25t-44 -9.5t-44 9.5t-36.5 25t-25 36.5t-9.5 44z" />
    <glyph glyph-name="dochadasarauthai" unicode="&#xe0e;&#xe38;" horiz-adv-x="1810" 
d="M471 373q0 -115 -30.5 -187t-76.5 -113.5t-98.5 -57.5t-97.5 -19l-25 119q69 3 109.5 30t60.5 65t25.5 82t5.5 81v659l-147 217q119 212 292 315t412 103q168 0 292 -43t206 -124.5t123 -200.5t43 -271v-1315q0 -60 -21.5 -110.5t-60.5 -81t-94.5 -34.5t-122.5 30
l-377 188q-25 12 -43.5 11.5t-46.5 -15.5l-377 -201l-62 99l422 225q31 15 60 13t63 -17l406 -189q55 -24 89 -3.5t34 85.5v1315q0 138 -38.5 237.5t-108.5 163t-169.5 93.5t-220.5 30q-71 0 -144 -14.5t-145 -49t-140 -92t-128 -143.5l131 -209v-671zM1438 -1012
q0 54 -5 85t-19.5 47t-41 20t-69.5 4h-41v111h49q70 0 118.5 -9.5t78.5 -38t43.5 -81t13.5 -138.5v-229h-127v229z" />
    <glyph glyph-name="topataksarauthai" unicode="&#xe0f;&#xe38;" horiz-adv-x="1810" 
d="M1434 1028q0 138 -38.5 237.5t-108.5 163t-169.5 93.5t-220.5 30q-72 0 -145.5 -14.5t-145 -49t-139 -92t-127.5 -143.5l131 -209v-671q0 -115 -30.5 -187t-76.5 -113.5t-98.5 -57.5t-97.5 -19l-25 119q69 3 109.5 30t60.5 65t25.5 82t5.5 81v659l-147 217
q119 212 292 315t412 103q168 0 292 -43t206 -124.5t123 -200.5t43 -271v-1302q0 -63 -24.5 -115t-65 -82.5t-94 -34t-111.5 30.5l-291 176q-25 19 -41 17t-41 -17l-274 -180q-31 -22 -54.5 -20.5t-48.5 20.5l-315 246l94 69l246 -184q18 -16 33 -16t36 16l271 176
q31 19 53.5 19t56.5 -19l303 -180q25 -14 49 -18t43.5 4.5t31.5 30.5t12 61v1302zM1438 -1012q0 54 -5 85t-19.5 47t-41 20t-69.5 4h-41v111h49q70 0 118.5 -9.5t78.5 -38t43.5 -81t13.5 -138.5v-229h-127v229z" />
    <glyph glyph-name="fongmanfunnuthai" unicode="&#xe4f;&#x22;" horiz-adv-x="2093" 
d="M762 1868l-25 532h172l-24 -532h-123zM1192 1868l-25 532h172l-24 -532h-123zM213 819q0 116 29.5 223t84 199.5t130 169t167.5 130.5t197 84t219 30q116 0 223 -30t199.5 -84t169 -130.5t130.5 -169t84 -199.5t30 -223q0 -113 -30 -218.5t-84 -197.5t-130.5 -167.5
t-169 -130t-199.5 -84t-223 -29.5q-113 0 -218.5 29.5t-197.5 84t-167.5 130t-130 167.5t-84 197t-29.5 219zM598 819q0 92 35 173.5t95.5 142t141 96t170.5 35.5q92 0 173.5 -35.5t142 -96t96 -142t35.5 -173.5q0 -90 -35.5 -170.5t-96 -141t-142 -95.5t-173.5 -35
q-90 0 -170.5 35t-141 95.5t-95.5 141t-35 170.5zM352 819q0 -95 24.5 -183t69 -164.5t107.5 -139.5t139.5 -107.5t164.5 -69t183 -24.5q98 0 187.5 24.5t166.5 69t140.5 107.5t108.5 139.5t69.5 164.5t24.5 183q0 146 -54 273t-148 221.5t-221.5 148.5t-273.5 54
q-143 0 -268.5 -54t-218.5 -148.5t-147 -221.5t-54 -273zM733 819q0 -63 24.5 -119t66 -97.5t97.5 -66t119 -24.5q64 0 121 24.5t99.5 66t67 97.5t24.5 119q0 64 -24.5 121t-67 99t-99.5 66.5t-121 24.5q-63 0 -119 -24.5t-97.5 -66.5t-66 -99t-24.5 -121z" />
    <glyph glyph-name="lessequal" unicode="&#x3c;&#x3d;" horiz-adv-x="1696" 
d="M1487 389l-1278 496v119l1278 503v-127l-1159 -434l1159 -434v-123zM209 94v115h1278v-115h-1278z" />
    <glyph glyph-name="greaterequal" unicode="&#x3e;&#x3d;" horiz-adv-x="1692" 
d="M209 512l1159 434l-1159 434v127l1278 -503v-119l-1278 -496v123zM209 94v115h1278v-115h-1278z" />
    <glyph glyph-name="plusminus" unicode="&#x2b;&#x2d;" horiz-adv-x="1692" 
d="M909 889v-586h-114v586h-586v110h586v586h114v-586h578v-110h-578zM209 127h1278v-107h-1278v107z" />
    <glyph glyph-name="dochadasarauuthai" unicode="&#xe0e;&#xe39;" horiz-adv-x="1806" 
d="M471 373q0 -115 -30.5 -187t-76.5 -113.5t-98.5 -57.5t-97.5 -19l-25 119q69 3 109.5 30t60.5 65t25.5 82t5.5 81v659l-147 217q119 212 292 315t412 103q168 0 292 -43t206 -124.5t123 -200.5t43 -271v-1315q0 -60 -21.5 -110.5t-60.5 -81t-94.5 -34.5t-122.5 30
l-377 188q-25 12 -43.5 11.5t-46.5 -15.5l-377 -201l-62 99l422 225q31 15 60 13t63 -17l406 -189q55 -24 89 -3.5t34 85.5v1315q0 138 -38.5 237.5t-108.5 163t-169.5 93.5t-220.5 30q-71 0 -144 -14.5t-145 -49t-140 -92t-128 -143.5l131 -209v-671zM987 -979
q0 37 -2 60.5t-9.5 37.5t-21 19.5t-36.5 5.5h-66v106h78q52 0 86.5 -10.5t55.5 -33t29.5 -58t8.5 -86.5v-41q0 -26 8 -55t26.5 -53t50 -40t79.5 -16q49 0 81 16t50.5 40t25.5 53t7 55v229h127v-229q0 -60 -22 -109t-60.5 -84t-92 -54t-116.5 -19q-68 0 -121 19t-90 54
t-56.5 84t-19.5 109z" />
    <glyph glyph-name="topataksarauuthai" unicode="&#xe0f;&#xe39;" horiz-adv-x="1810" 
d="M1434 1028q0 138 -38.5 237.5t-108.5 163t-169.5 93.5t-220.5 30q-72 0 -145.5 -14.5t-145 -49t-139 -92t-127.5 -143.5l131 -209v-671q0 -115 -30.5 -187t-76.5 -113.5t-98.5 -57.5t-97.5 -19l-25 119q69 3 109.5 30t60.5 65t25.5 82t5.5 81v659l-147 217
q119 212 292 315t412 103q168 0 292 -43t206 -124.5t123 -200.5t43 -271v-1302q0 -63 -24.5 -115t-65 -82.5t-94 -34t-111.5 30.5l-291 176q-25 19 -41 17t-41 -17l-274 -180q-31 -22 -54.5 -20.5t-48.5 20.5l-315 246l94 69l246 -184q18 -16 33 -16t36 16l271 176
q31 19 53.5 19t56.5 -19l303 -180q25 -14 49 -18t43.5 4.5t31.5 30.5t12 61v1302zM987 -979q0 37 -2 60.5t-9.5 37.5t-21 19.5t-36.5 5.5h-66v106h78q52 0 86.5 -10.5t55.5 -33t29.5 -58t8.5 -86.5v-41q0 -26 8 -55t26.5 -53t50 -40t79.5 -16q49 0 81 16t50.5 40t25.5 53
t7 55v229h127v-229q0 -60 -22 -109t-60.5 -84t-92 -54t-116.5 -19q-68 0 -121 19t-90 54t-56.5 84t-19.5 109z" />
    <glyph glyph-name=".notdef" horiz-adv-x="1421" 
d="M1446 1372v-49h20q25 0 25 29q0 4 -4 12t-21 8h-20zM1458 1319h-12v-45h-16v115h36q41 0 41 -37q0 -21 -10 -27t-22 -6l32 -45h-16zM1466 1253q45 0 59.5 25t14.5 45q0 37 -18.5 59.5t-55.5 22.5q-36 0 -56.5 -22.5t-20.5 -59.5q0 -29 20.5 -49.5t56.5 -20.5zM1466 1417
q45 0 65.5 -28.5t20.5 -65.5q0 -29 -20.5 -53.5t-65.5 -24.5q-36 0 -61 24.5t-25 53.5q0 37 25 65.5t61 28.5zM688 1085q53 -4 129 -14t149.5 -24.5t133 -33t96.5 -42.5q-74 135 -217 208.5t-295 73.5q-115 0 -221.5 -45t-175.5 -135q65 8 126.5 10t123.5 2h75h76z
M1286 1352v-484q-164 50 -377 86.5t-446 36.5q-164 0 -324 -20q25 78 68 147.5t112.5 122.5t159.5 82t201 29q102 0 190 -22.5t151.5 -55.5t106.5 -76t68 -76l-2 24.5t-2 63.5v80v62h94zM524 438q0 25 -18.5 39.5t-38.5 14.5q-25 0 -43 -14.5t-18 -39.5q0 -32 18 -42.5
t43 -10.5q20 0 38.5 10.5t18.5 42.5zM111 475q0 78 28.5 141.5t81.5 104.5t116.5 61.5t137.5 20.5q66 0 129.5 -18.5t114.5 -57.5t77.5 -96.5t26.5 -138.5v-398h369v688h94v-778h-651v90h102v406q0 102 -73.5 153.5t-188.5 51.5q-102 0 -182 -57.5t-80 -155.5v-369l193 201
q-13 4 -41.5 32.5t-28.5 81.5q0 58 37 94.5t102 36.5q57 0 92 -38.5t35 -92.5q0 -49 -18.5 -75.5t-30.5 -38.5q-8 -9 -59.5 -60t-112.5 -104l-164 -156h-106v471z" />
    <glyph glyph-name=".null" 
 />
    <glyph glyph-name=".null" 
 />
    <glyph glyph-name="nonmarkingreturn" unicode="&#xd;" horiz-adv-x="971" 
 />
    <glyph glyph-name="space" unicode=" " horiz-adv-x="856" 
 />
    <glyph glyph-name="yoyingnobasethai" unicode="&#xf70f;" horiz-adv-x="2687" 
d="M274 1036l-147 221q120 209 292.5 311.5t411.5 102.5q168 0 292 -41.5t205.5 -122t122 -198t40.5 -269.5v-487q0 -126 26 -213t77.5 -140.5t128 -77.5t178.5 -24q100 0 176 24t128 77.5t78.5 140.5t26.5 213v1102h131v-1102q0 -128 -28.5 -232.5t-93 -179.5t-168.5 -116
t-255 -41q-276 0 -406 140t-130 429v487q0 135 -37 232t-106.5 159.5t-168 91.5t-221.5 29q-72 0 -146.5 -13.5t-147 -47t-139.5 -89.5t-124 -140l131 -205v-688q0 -54 8 -100.5t28.5 -80.5t55.5 -53.5t89 -19.5h127v-115h-131q-80 0 -137.5 24.5t-94.5 71t-54.5 113.5
t-17.5 151v676z" />
    <glyph glyph-name="quoteleft" unicode="&#x2018;" horiz-adv-x="840" 
d="M324 1892v226l188 168v-394h-188z" />
    <glyph glyph-name="quoteright" unicode="&#x2019;" horiz-adv-x="840" 
d="M512 2163v-221l-188 -173v394h188z" />
    <glyph glyph-name="quotedblleft" unicode="&#x201c;" horiz-adv-x="1343" 
d="M324 1892v226l188 168v-394h-188zM827 1892v226l189 168v-394h-189z" />
    <glyph glyph-name="quotedblright" unicode="&#x201d;" horiz-adv-x="1343" 
d="M512 2163v-221l-188 -173v394h188zM1016 2163v-221l-189 -173v394h189z" />
    <glyph glyph-name="bullet" unicode="&#x2022;" horiz-adv-x="1798" 
d="M549 836q0 72 28 136t76 112t112 76t136 28t136 -28t112 -76t76 -112t28 -136t-28 -136.5t-76 -112.5t-112 -76t-136 -28t-136 28t-112 76t-76 112.5t-28 136.5z" />
    <glyph glyph-name="endash" unicode="&#x2013;" horiz-adv-x="1659" 
d="M168 795v110h1319v-110h-1319z" />
    <glyph glyph-name="emdash" unicode="&#x2014;" horiz-adv-x="2810" 
d="M266 795v110h2282v-110h-2282z" />
    <glyph glyph-name="uni00A0" unicode="&#xa0;" horiz-adv-x="856" 
 />
    <glyph glyph-name="kokaithai" unicode="&#xe01;" horiz-adv-x="1737" 
d="M401 1057v-1057h-127v1036l-147 217q120 212 292.5 315t411.5 103q168 0 292 -43t205.5 -124.5t122 -200.5t40.5 -271v-1032h-131v1032q0 141 -37 240.5t-106.5 162.5t-168 92t-221.5 29q-72 0 -146.5 -14.5t-147 -48.5t-139.5 -90.5t-124 -140.5z" />
    <glyph glyph-name="khokhaithai" unicode="&#xe02;" horiz-adv-x="1479" 
d="M156 1540q49 59 120.5 91t145.5 32q72 0 129 -21.5t96.5 -61t60.5 -95.5t21 -125q0 -51 -17.5 -99.5t-46 -94t-64.5 -86.5t-73 -76q-40 -37 -71.5 -74t-54 -75.5t-34.5 -80.5t-12 -90v-176q0 -94 24.5 -170.5t72 -130.5t118 -83.5t162.5 -29.5q88 0 156.5 29.5
t115.5 83.5t72 130.5t25 170.5v1147h131v-1155q0 -115 -35 -210.5t-100 -164.5t-157.5 -107t-207.5 -38q-121 0 -214.5 38t-157.5 107t-98.5 164.5t-37.5 210.5v192q1 58 14.5 106t36 89.5t53.5 78.5t68 74l72.5 74t66 75.5t48 80.5t18.5 90q0 43 -14 77t-39 58t-59.5 36.5
t-75.5 12.5q-47 0 -89.5 -21.5t-70.5 -52.5z" />
    <glyph glyph-name="khokhuatthai" unicode="&#xe03;" horiz-adv-x="1479" 
d="M49 1585l74 78l164 -127l49 41q62 53 119.5 75.5t109.5 22.5q51 0 95.5 -19.5t78 -53t53 -79.5t19.5 -98q0 -38 -6 -72t-20 -66.5t-36.5 -65.5t-56.5 -70l-274 -299q-40 -43 -51 -90t-11 -90v-164q0 -89 23.5 -165t71 -131.5t118 -86.5t164.5 -31q89 0 158 29.5t116 83.5
t71 130.5t24 170.5v1147h131v-1155q0 -115 -35 -210.5t-100 -164.5t-157.5 -107t-207.5 -38q-120 0 -213 38t-157.5 107t-99.5 164.5t-38 210.5v180q0 80 22 135.5t56 89.5l324 344q40 41 56.5 80.5t16.5 79.5q0 34 -10.5 63t-29 50.5t-45 34t-58.5 12.5q-34 0 -75 -18.5
t-85 -55.5l-114 -94z" />
    <glyph glyph-name="khokhwaithai" unicode="&#xe04;" horiz-adv-x="1765" 
d="M377 0h-131v1061q4 153 49.5 267.5t127 190.5t198.5 114t264 38q150 0 269 -40.5t201 -118.5t125.5 -191.5t43.5 -259.5v-1061h-131v1028q0 137 -34.5 236t-100 163t-159.5 94.5t-214 30.5t-214.5 -30.5t-159.5 -94.5t-99.5 -163t-34.5 -236v-168q43 44 100.5 67
t140.5 23h271v-102h-238q-80 0 -132.5 -20t-84 -58.5t-44.5 -96t-13 -132.5v-541z" />
    <glyph glyph-name="khokhonthai" unicode="&#xe05;" horiz-adv-x="1798" 
d="M246 1081q3 105 28.5 198t74.5 168.5t122.5 131t171.5 84.5l254 -266l258 266q103 -26 178 -83.5t123.5 -135.5t72 -171.5t23.5 -191.5v-1081h-131v1065q0 176 -62 288.5t-179 162.5l-230 -222q-21 -21 -48.5 -21t-49.5 21l-229 222q-118 -56 -180 -170.5t-62 -284.5
v-201q46 46 102.5 68t139.5 22h274v-102h-242q-80 0 -132.5 -20t-84 -58.5t-44.5 -96t-13 -132.5v-541h-135v1081z" />
    <glyph glyph-name="khorakhangthai" unicode="&#xe06;" horiz-adv-x="1708" 
d="M373 627q0 -70 21 -136t57 -125t85 -108t105 -84.5t116.5 -55.5t119.5 -20q104 0 188 35.5t143 101.5t91 160t32 211v1049h131v-1065q-3 -141 -43.5 -254t-115 -192t-181 -121.5t-241.5 -42.5q-69 0 -139.5 19t-136 54.5t-124 85t-104.5 111.5v-250h-131v647v33
q0 68 14 122t51 91l332 348q78 84 78 172q0 32 -9 60.5t-27 49.5t-45 33.5t-62 12.5q-76 0 -148 -66l-119 -102l-241 180l69 82l172 -127l49 41q31 24 58 42t53 29.5t53 17t58 5.5q54 0 101 -18t82 -51t55 -80t20 -105q0 -29 -4 -58.5t-15.5 -60.5t-32.5 -64.5t-55 -70.5
l-295 -315q-23 -25 -36 -55.5t-19.5 -61.5t-8 -58.5t-1.5 -45.5z" />
    <glyph glyph-name="ngonguthai" unicode="&#xe07;" horiz-adv-x="1248" 
d="M151 336q43 -118 132.5 -182t219.5 -64q97 0 166.5 29.5t114.5 83.5t66 130.5t21 170.5v1036h-241v115h373v-1159q0 -125 -33.5 -221.5t-97 -163.5t-156.5 -101.5t-213 -34.5q-91 0 -165 22.5t-131.5 63.5t-100 97.5t-70.5 124.5z" />
    <glyph glyph-name="chochanthai" unicode="&#xe08;" horiz-adv-x="1450" 
d="M1073 541q0 75 -13 131.5t-44.5 95t-84 57.5t-132.5 19h-303v106h307q83 0 155 -21t115 -65v197q0 115 -32 207t-93.5 156t-152.5 98t-209 34q-72 0 -142 -17t-130 -50t-107.5 -83t-75.5 -116l-119 45q35 80 91 142.5t129.5 105.5t162.5 65.5t191 22.5q135 0 248.5 -38
t195.5 -114t128 -190.5t46 -267.5v-1061h-131v541z" />
    <glyph glyph-name="chochingthai" unicode="&#xe09;" horiz-adv-x="1708" 
d="M238 1343q35 80 92.5 141t132.5 102.5t166 63t194 21.5q135 0 251.5 -38t201.5 -114t133.5 -190.5t48.5 -267.5v-1061h-131v246q-105 -133 -237.5 -199.5t-278.5 -66.5q-138 0 -246.5 46.5t-183 128t-113.5 193t-39 242.5v377h131v-373q0 -114 31 -205.5t89.5 -156
t142 -99.5t188.5 -35q108 0 202 43.5t163.5 116.5t110 168.5t40.5 200.5v434q0 123 -39 215t-107 153.5t-160 92t-198 30.5q-77 0 -148.5 -16t-132.5 -49t-109 -82t-77 -115z" />
    <glyph glyph-name="chochangthai" unicode="&#xe0a;" horiz-adv-x="1495" 
d="M537 1159q55 59 78.5 110t23.5 103q0 54 -16 91.5t-43.5 61t-65 34t-80.5 10.5q-49 0 -98 -26t-86 -60l-90 78q59 55 127 80.5t151 25.5q72 0 130.5 -20t100 -58.5t63.5 -93t22 -123.5q0 -80 -28 -146t-87 -128l-221 -238q-22 -23 -34.5 -47.5t-18.5 -49.5t-7.5 -48
t-1.5 -43v-160q0 -95 22 -172.5t67.5 -132t116 -84t167.5 -29.5q190 0 279.5 92.5t89.5 280.5v680q0 46 -15.5 82.5t-39 65t-51 50.5l-50.5 39q-12 9 -21.5 15.5t-12 14t3 17.5t22.5 27l430 447l86 -86l-385 -389q46 -34 82 -78q31 -38 56.5 -90.5t25.5 -118.5v-684
q0 -123 -36 -213t-102 -149.5t-159 -88t-207 -28.5q-120 0 -213 36.5t-156.5 104t-97 164.5t-33.5 219v180q0 68 16 126t50 95z" />
    <glyph glyph-name="sosothai" unicode="&#xe0b;" horiz-adv-x="1548" 
d="M1286 455q0 -123 -36 -213.5t-102 -149.5t-159 -88t-207 -29q-120 0 -212.5 36.5t-156.5 104.5t-97 165t-33 219v176q0 68 16 124.5t53 96.5l287 307q40 44 61 89t21 91q0 36 -12 68t-33 56t-50.5 38.5t-64.5 14.5q-34 0 -70.5 -18t-76.5 -52l-111 -90l-242 184l70 74
l172 -123l49 41q56 46 109.5 68t111.5 22q55 0 104 -22.5t85 -60.5t57 -90t21 -110q0 -74 -36.5 -146t-111.5 -153l-217 -229q-24 -24 -37 -50t-18 -50.5t-5.5 -45t-0.5 -34.5v-168q0 -95 22 -172.5t67.5 -132t115.5 -84t167 -29.5q190 0 279.5 92.5t89.5 280.5v676
q0 44 -17 81t-42.5 67.5t-56 54.5t-56.5 42q-15 10 -18 26t22 44l414 442l90 -90l-369 -389q46 -35 82 -78q31 -37 56.5 -87.5t25.5 -112.5v-684z" />
    <glyph glyph-name="chochoethai" unicode="&#xe0c;" horiz-adv-x="2716" 
d="M274 1036l-147 221q120 209 292.5 311.5t411.5 102.5q168 0 292 -41.5t205.5 -122t122 -198t40.5 -269.5v-413q0 -71 18.5 -138t50.5 -126t76 -108.5t95.5 -85t108 -55.5t114.5 -20q190 0 287.5 131t97.5 377v1053h131v-1053q0 -157 -37.5 -273.5t-105.5 -194t-163 -116
t-210 -38.5q-68 0 -135 20.5t-127.5 57t-112 87.5t-88.5 113v-258h-131v1040q0 135 -37 232t-106.5 159.5t-168 91.5t-221.5 29q-72 0 -146.5 -13.5t-147 -47t-139.5 -89.5t-124 -140l131 -205v-688q0 -54 8 -100.5t28.5 -80.5t55.5 -53.5t89 -19.5h127v-115h-131
q-80 0 -137.5 24.5t-94.5 71t-54.5 113.5t-17.5 151v676z" />
    <glyph glyph-name="dochadathai" unicode="&#xe0e;" horiz-adv-x="1806" 
d="M471 373q0 -115 -30.5 -187t-76.5 -113.5t-98.5 -57.5t-97.5 -19l-25 119q69 3 109.5 30t60.5 65t25.5 82t5.5 81v659l-147 217q119 212 292 315t412 103q168 0 292 -43t206 -124.5t123 -200.5t43 -271v-1438q0 -60 -21.5 -110.5t-60.5 -81t-94.5 -34.5t-122.5 30
l-377 188q-25 13 -43.5 12.5t-46.5 -16.5l-377 -201l-62 99l422 225q31 15 60 13t63 -17l406 -189q55 -24 89 -3.5t34 85.5v1438q0 138 -38.5 237.5t-108.5 163t-169.5 93.5t-220.5 30q-71 0 -144 -14.5t-145 -49t-140 -92t-128 -143.5l131 -209v-671z" />
    <glyph glyph-name="topatakthai" unicode="&#xe0f;" horiz-adv-x="1810" 
d="M1434 1028q0 138 -38.5 237.5t-108.5 163t-169.5 93.5t-220.5 30q-72 0 -145.5 -14.5t-145 -49t-139 -92t-127.5 -143.5l131 -209v-671q0 -115 -30.5 -187t-76.5 -113.5t-98.5 -57.5t-97.5 -19l-25 119q69 3 109.5 30t60.5 65t25.5 82t5.5 81v659l-147 217
q119 212 292 315t412 103q168 0 292 -43t206 -124.5t123 -200.5t43 -271v-1425q0 -63 -24.5 -115t-65 -82.5t-94 -34t-111.5 30.5l-291 176q-25 19 -41 17.5t-41 -17.5l-274 -180q-31 -22 -54.5 -20.5t-48.5 20.5l-315 246l94 69l246 -184q18 -16 33 -16t36 16l271 176
q31 19 53.5 19t56.5 -19l303 -180q25 -14 49 -18t43.5 4.5t31.5 30.5t12 61v1425z" />
    <glyph glyph-name="thothanthai" unicode="&#xe10;" horiz-adv-x="1450" 
d="M1073 -184h131v-213q0 -63 -29.5 -108t-74 -65.5t-97 -12.5t-98.5 51l-172 155q-21 19 -36.5 19t-37.5 -19l-151 -151q-31 -28 -66 -28t-69 28l-246 200l90 70l201 -168q18 -15 25.5 -15t23.5 15l151 147q44 41 80.5 41t79.5 -41l176 -159q6 -6 17.5 -13.5t24.5 -13
t27 -6t25 7t18 25t7 49.5v205zM1073 541q0 75 -13 131.5t-44.5 95t-84 57.5t-132.5 19h-303v106h307q83 0 155 -21t115 -65v197q0 115 -32 207t-93.5 156t-152.5 98t-209 34q-72 0 -142 -17t-130 -50t-107.5 -83t-75.5 -116l-119 45q35 80 91 142.5t129.5 105.5t162.5 65.5
t191 22.5q111 0 207 -25t174 -77l323 332l86 -82l-323 -328q71 -74 111 -181t40 -249v-1061h-131v541z" />
    <glyph glyph-name="thonangmonthothai" unicode="&#xe11;" horiz-adv-x="1757" 
d="M455 860q-23 -23 -36.5 -49.5t-20 -51t-8 -46t-1.5 -33.5v-680h-131v680q0 71 18 125.5t52 91.5l336 344q40 40 52.5 85.5t12.5 82.5q0 34 -10 63.5t-28 52t-43 35.5t-54 13q-34 0 -75 -20.5t-85 -57.5l-98 -82q-19 -12 -37 0l-221 172l78 78l168 -127l49 41
q62 53 119 75.5t110 22.5q46 0 88.5 -19.5t74.5 -53t51.5 -79.5t19.5 -98l254 250q97 -3 174.5 -35t132.5 -93t84.5 -149.5t29.5 -205.5v-1192h-131v1192q0 78 -13.5 140.5t-44 108t-79 74.5t-117.5 41z" />
    <glyph glyph-name="thophuthaothai" unicode="&#xe12;" horiz-adv-x="2699" 
d="M1343 1094q0 87 -14.5 155t-44 120.5t-74 92t-104.5 70.5l-217 -229q-22 -22 -49.5 -22t-48.5 22l-218 229q-61 -32 -106.5 -73.5t-75.5 -95t-44.5 -120t-14.5 -149.5v-672q0 -66 13 -121.5t42 -96t76 -63t115 -22.5h131v-119h-131q-95 0 -166 31.5t-118 87t-70 132
t-23 167.5v676q0 107 25 200.5t75 167.5t124.5 127.5t172.5 81.5l238 -262l237 262q105 -28 180.5 -84t125 -132.5t73 -168.5t23.5 -192v-467q0 -72 18.5 -139.5t51 -126.5t77 -108t96 -84.5t107.5 -55t112 -19.5q89 0 160.5 28.5t121.5 85.5t76.5 142t26.5 199v1106h132
v-1106q0 -152 -37.5 -260t-105.5 -176.5t-163.5 -100.5t-210.5 -32q-68 0 -134.5 20.5t-127 57t-112 87.5t-88.5 113v-258h-132v1094z" />
    <glyph glyph-name="nonenthai" unicode="&#xe13;" horiz-adv-x="2716" 
d="M401 369q0 -54 8 -100.5t28.5 -80.5t55.5 -53.5t89 -19.5h127v-115h-131q-80 0 -137.5 24.5t-94.5 71t-54.5 113.5t-17.5 151v676l-147 221q120 209 292.5 311.5t411.5 102.5q168 0 292 -41.5t205.5 -122t122 -198t40.5 -269.5v-495q0 -111 28 -195t80 -141t125.5 -86
t163.5 -29q52 0 106 18.5t104 51.5t94 79t76.5 100.5t51.5 116t19 126.5v1065h131v-1651h-131v254q-42 -62 -90 -112.5t-103.5 -86.5t-119.5 -55.5t-138 -19.5q-115 0 -212 32t-167 100.5t-109.5 176.5t-39.5 260v491q0 135 -37 232t-106.5 159.5t-168 91.5t-221.5 29
q-71 0 -144.5 -14t-146 -48t-140.5 -89.5t-126 -138.5l131 -205v-688z" />
    <glyph glyph-name="dodekthai" unicode="&#xe14;" horiz-adv-x="1765" 
d="M246 1061q4 153 49.5 267.5t127 190.5t198.5 114t264 38q150 0 269 -40.5t201 -118.5t125.5 -191.5t43.5 -259.5v-1061h-131v1061q0 127 -37 220.5t-103.5 154.5t-160 90.5t-207.5 29.5q-115 0 -209 -29t-160.5 -89.5t-102.5 -154t-36 -222.5v-635q0 -148 58.5 -227.5
t187.5 -79.5h131v-119h-131q-95 0 -166 30.5t-118 86t-70 134t-23 175.5v635z" />
    <glyph glyph-name="totaothai" unicode="&#xe15;" horiz-adv-x="1765" 
d="M1520 0h-131v1094q0 87 -14.5 155t-44.5 120.5t-74.5 92t-104.5 70.5l-217 -229q-22 -22 -49.5 -22t-48.5 22l-218 229q-61 -32 -106.5 -73.5t-75.5 -95t-44.5 -120t-14.5 -149.5v-668q0 -148 60 -227.5t186 -79.5h131v-119h-131q-95 0 -166 30.5t-118 86t-70 134
t-23 175.5v668q0 107 25 200.5t75 167.5t124.5 127.5t172.5 81.5l238 -262l237 262q105 -28 180.5 -84t125 -132.5t73 -168.5t23.5 -192v-1094z" />
    <glyph glyph-name="thothungthai" unicode="&#xe16;" horiz-adv-x="1737" 
d="M274 1036l-147 217q120 212 292.5 315t411.5 103q168 0 292 -43t205.5 -124.5t122 -200.5t40.5 -271v-1032h-131v1032q0 141 -37 240.5t-106.5 162.5t-168 92t-221.5 29q-71 0 -144.5 -15t-146 -49.5t-140.5 -90.5t-126 -139l131 -205v-688q0 -54 8 -100.5t28.5 -80.5
t55.5 -53.5t89 -19.5h127v-115h-131q-80 0 -137.5 24.5t-94.5 71t-54.5 113.5t-17.5 151v676z" />
    <glyph glyph-name="thothahanthai" unicode="&#xe17;" horiz-adv-x="1720" 
d="M1343 0v1061q0 115 -32 205.5t-92 153t-146.5 95.5t-195.5 33q-91 0 -180.5 -33.5t-160.5 -94.5t-115 -146.5t-44 -188.5v-1085h-131v1655h131v-242q105 130 234 194t278 64q136 0 245 -41.5t184.5 -120.5t116 -192t40.5 -256v-1061h-132z" />
    <glyph glyph-name="thothongthai" unicode="&#xe18;" horiz-adv-x="1589" 
d="M242 688h131v-323q0 -65 32.5 -115t86 -85t123 -53t143.5 -18q126 0 222.5 30t161.5 84t98.5 129.5t33.5 166.5q0 70 -20 129.5t-61.5 104t-104 73t-146.5 37.5l-278 29q-237 24 -356.5 120t-119.5 269q0 92 43 166.5t119 127.5t180.5 82t227.5 29q161 0 302 -40.5
t247 -114.5l-86 -86q-99 65 -211.5 98t-251.5 33q-100 0 -181.5 -20t-139.5 -58.5t-90 -93t-32 -123.5q0 -126 88 -192.5t273 -82.5l270 -24q97 -9 180.5 -38.5t145.5 -84.5t97.5 -138.5t35.5 -201.5q0 -115 -43 -211.5t-125 -166t-202 -108t-273 -38.5q-60 0 -121.5 10
t-119 30.5t-108.5 51.5t-89 73t-60 96t-22 119v328z" />
    <glyph glyph-name="nonuthai" unicode="&#xe19;" horiz-adv-x="1720" 
d="M377 1655v-1061q0 -115 32 -205.5t92.5 -153.5t147 -96t195.5 -33q90 0 179.5 34t160.5 95t115 146t44 188v1086h132v-1655h-132v242q-105 -130 -234 -194t-278 -64q-137 0 -245 41.5t-184 120.5t-116 192t-40 256v1061h131z" />
    <glyph glyph-name="bobaimaithai" unicode="&#xe1a;" horiz-adv-x="1720" 
d="M860 -20q-143 4 -256.5 43.5t-193 115t-122 188t-42.5 263.5v1065h131v-1065q0 -120 32.5 -212t94 -154t151.5 -94t205 -32t205 32.5t151.5 95t94 154t32.5 210.5v1065h132v-1065q0 -146 -45.5 -259.5t-127 -191.5t-194.5 -118.5t-248 -40.5z" />
    <glyph glyph-name="poplathai" unicode="&#xe1b;" horiz-adv-x="1720" 
d="M860 -20q-143 4 -256.5 43.5t-193 115t-122 188t-42.5 263.5v1065h131v-1065q0 -120 32.5 -212t94 -154t151.5 -94t205 -32t205 32.5t151.5 95t94 154t32.5 210.5v1859h132v-1859q0 -146 -45.5 -259.5t-127 -191.5t-194.5 -118.5t-248 -40.5z" />
    <glyph glyph-name="phophungthai" unicode="&#xe1c;" horiz-adv-x="1765" 
d="M1520 561q0 -100 -23.5 -192t-73 -168.5t-125 -133t-180.5 -83.5l-237 262l-238 -262q-98 27 -172.5 80.5t-124.5 128t-75 167.5t-25 201v668q0 97 23 175.5t70 134t118 86t166 30.5h131v-119h-131q-126 0 -186 -80t-60 -227v-668q0 -83 14.5 -149.5t44.5 -120t75.5 -95
t106.5 -73.5l218 229q21 22 48.5 22t49.5 -22l217 -229q60 31 104.5 70.5t74.5 92t44.5 120.5t14.5 155v1094h131v-1094z" />
    <glyph glyph-name="fofathai" unicode="&#xe1d;" horiz-adv-x="1765" 
d="M1520 561q0 -100 -23.5 -192t-73 -168.5t-125 -133t-180.5 -83.5l-237 262l-238 -262q-98 27 -172.5 80.5t-124.5 128t-75 167.5t-25 201v668q0 97 23 175.5t70 134t118 86t166 30.5h131v-119h-131q-126 0 -186 -80t-60 -227v-668q0 -83 14.5 -149.5t44.5 -120t75.5 -95
t106.5 -73.5l218 229q21 22 48.5 22t49.5 -22l217 -229q60 31 104.5 70.5t74.5 92t44.5 120.5t14.5 155v1888h131v-1888z" />
    <glyph glyph-name="phophanthai" unicode="&#xe1e;" horiz-adv-x="2138" 
d="M1122 1655l516 -1508l213 1508h136l-263 -1655h-143l-512 1450l-512 -1450h-147l-258 1655h135l213 -1508l516 1508h106z" />
    <glyph glyph-name="fofanthai" unicode="&#xe1f;" horiz-adv-x="2138" 
d="M1122 1655l516 -1508l340 2302h136l-390 -2449h-143l-512 1450l-512 -1450h-147l-258 1655h135l213 -1508l516 1508h106z" />
    <glyph glyph-name="phosamphaothai" unicode="&#xe20;" horiz-adv-x="1810" 
d="M1434 0v1028q0 138 -38.5 237.5t-108.5 163t-169.5 93.5t-220.5 30q-72 0 -145.5 -14.5t-145 -49t-139 -92t-127.5 -143.5l131 -213v-667q0 -115 -30.5 -187t-76.5 -113.5t-98.5 -57.5t-97.5 -19l-25 119q69 3 109.5 30t60.5 65t25.5 82t5.5 81v659l-147 217
q119 212 292 315t412 103q168 0 292.5 -43t207 -124.5t123.5 -200.5t41 -271v-1028h-131z" />
    <glyph glyph-name="momathai" unicode="&#xe21;" horiz-adv-x="1720" 
d="M1475 1655v-1061q0 -143 -40.5 -256t-116 -192t-184.5 -120.5t-245 -41.5q-149 0 -278 64t-234 194v-242h-131v1655h131v-1086q0 -66 20 -125.5t55.5 -111t83.5 -93.5t103.5 -71.5t116 -45.5t121.5 -16q109 0 195.5 33t146.5 96t92 153.5t32 205.5v1061h132z" />
    <glyph glyph-name="yoyakthai" unicode="&#xe22;" horiz-adv-x="1692" 
d="M156 1237q0 95 25 172.5t73 132t118 84t160 29.5h201v-119h-192q-127 0 -190.5 -75t-63.5 -224q0 -138 109.5 -217t336.5 -82v-102q-118 -2 -202.5 -26t-138.5 -69.5t-79.5 -111t-25.5 -150.5q0 -75 35 -144.5t101 -123t161 -85.5t215 -32q147 0 246 40t159 113
t85.5 176.5t25.5 231.5v1000h131v-1000q0 -160 -34.5 -286t-111 -213.5t-200 -134t-301.5 -46.5q-140 0 -242.5 28t-173.5 73t-115.5 101t-69.5 112.5t-33.5 107.5t-8.5 86q0 57 10.5 115t41 111.5t85 99.5t141.5 80q-84 24 -138 63t-85 86t-43 98.5t-12 100.5z" />
    <glyph glyph-name="roruathai" unicode="&#xe23;" horiz-adv-x="1364" 
d="M1237 455q0 -95 -35 -181.5t-105.5 -151.5t-177.5 -103.5t-251 -38.5q-97 0 -176 15t-146.5 42.5t-126 68t-113.5 91.5l91 94q48 -48 95.5 -84.5t103 -61.5t121.5 -38t151 -13q118 0 201.5 28.5t136 78t76.5 115t24 139.5q0 81 -25 136t-69.5 92.5t-106 61t-135.5 41.5
l-135 33q-106 26 -192.5 61t-147.5 84.5t-94 115t-33 153.5q0 91 31.5 170.5t94 139t156 94t218.5 34.5q73 0 138 -11.5t123 -32t110 -49t100 -62.5l-90 -86q-45 32 -84.5 56.5t-83 41t-95 25t-118.5 8.5q-94 0 -163.5 -25t-115 -68.5t-68 -104t-22.5 -130.5
q0 -65 24.5 -111t69 -79.5t107 -57t139.5 -43.5l160 -41q94 -24 174 -56t138.5 -82.5t92 -124.5t33.5 -183z" />
    <glyph glyph-name="ruthai" unicode="&#xe24;" horiz-adv-x="1737" 
d="M401 369q0 -54 8 -100.5t28.5 -80.5t55.5 -53.5t89 -19.5h127v-115h-131q-80 0 -137.5 24.5t-94.5 71t-54.5 113.5t-17.5 151v676l-147 217q120 212 292.5 315t411.5 103q168 0 292 -43t205.5 -124.5t122 -200.5t40.5 -271v-1646h-131v1646q0 137 -37 236t-106.5 163
t-168 94.5t-221.5 30.5q-71 0 -144.5 -15t-146 -49.5t-140.5 -90.5t-126 -139l131 -205v-688z" />
    <glyph glyph-name="lolingthai" unicode="&#xe25;" horiz-adv-x="1670" 
d="M744 -20q-122 3 -225 26t-179 77t-118.5 143.5t-42.5 224.5q0 112 37.5 204.5t109 159t175 103t235.5 36.5h557v185q0 101 -29 179t-89.5 131t-153.5 80t-220 27q-83 0 -148 -11t-120 -35.5t-105 -63.5t-102 -94l-102 86q55 55 113 98.5t126.5 73.5t151 45.5t186.5 15.5
q160 0 277 -35t194 -102.5t114.5 -166.5t37.5 -228v-1139h-131v840h-541q-111 0 -193.5 -27t-138 -77t-83 -121t-27.5 -160q0 -88 23 -154t74.5 -110.5t134 -68t202.5 -24.5v-118z" />
    <glyph glyph-name="luthai" unicode="&#xe26;" horiz-adv-x="1810" 
d="M1434 -614v1642q0 138 -38.5 237.5t-108.5 163t-169.5 93.5t-220.5 30q-72 0 -145.5 -14.5t-145 -49t-139 -92t-127.5 -143.5l135 -213v-667q0 -77 -14.5 -134t-38.5 -98.5t-55.5 -68.5t-66 -43t-68.5 -23.5t-64 -9.5l-25 119q69 3 109.5 30t60.5 65t25.5 82t5.5 81v659
l-147 217q119 212 292 315t412 103q168 0 292.5 -43t207 -124.5t123.5 -200.5t41 -271v-1642h-131z" />
    <glyph glyph-name="wowaenthai" unicode="&#xe27;" horiz-adv-x="1352" 
d="M242 258q31 -40 71 -69t86 -48.5t96.5 -29t102.5 -9.5q114 0 197.5 43t139 116.5t82.5 171t27 206.5v381q0 109 -24 206t-77.5 169.5t-138.5 114.5t-206 42q-63 0 -124 -16t-115 -46t-98 -74t-73 -101l-106 57q38 69 93 124.5t122 94t143.5 59.5t157.5 21
q137 0 244.5 -47t181.5 -132.5t113 -205.5t39 -266v-381q0 -132 -33 -251t-103.5 -208.5t-180 -142.5t-261.5 -53q-65 0 -127.5 11.5t-119.5 35t-107 58.5t-88 83z" />
    <glyph glyph-name="sosalathai" unicode="&#xe28;" horiz-adv-x="1761" 
d="M377 0h-131v1061q4 153 49.5 267.5t127 190.5t198.5 114t264 38q120 0 220 -27t177 -79l307 319l90 -86l-303 -307q71 -77 109.5 -185.5t38.5 -244.5v-1061h-131v1028q0 137 -34.5 236t-100 163t-159.5 94.5t-214 30.5t-214.5 -30.5t-159.5 -94.5t-99.5 -163t-34.5 -236
v-168q43 44 100.5 67t140.5 23h271v-102h-238q-80 0 -132.5 -20t-84 -58.5t-44.5 -96t-13 -132.5v-541z" />
    <glyph glyph-name="sorusithai" unicode="&#xe29;" horiz-adv-x="1769" 
d="M860 -20q-143 4 -256.5 43.5t-193 115t-122 188t-42.5 263.5v1065h131v-1065q0 -120 32.5 -212t94 -154t151.5 -94t205 -32t205 32.5t151.5 95t94 154t32.5 210.5v278h-315q-40 0 -80 9t-72.5 36t-54 76t-22.5 129h119q0 -31 5 -57.5t18 -46.5t35 -31.5t56 -11.5h311v684
h132v-684h213v-103h-213v-278q0 -146 -45.5 -259.5t-127 -191.5t-194.5 -118.5t-248 -40.5z" />
    <glyph glyph-name="sosuathai" unicode="&#xe2a;" horiz-adv-x="1670" 
d="M744 -20q-122 3 -225 26t-179 77t-118.5 143.5t-42.5 224.5q0 112 37.5 204.5t109 159t175 103t235.5 36.5h557v185q0 101 -29 179t-89.5 131t-153.5 80t-220 27q-83 0 -148 -11t-120 -35.5t-105 -63.5t-102 -94l-102 86q55 55 113 98.5t126.5 73.5t151 45.5t186.5 15.5
q266 0 414 -98l299 311l86 -86l-295 -299q59 -65 89 -155.5t30 -204.5v-1139h-131v840h-541q-111 0 -194.5 -27t-139.5 -77t-84 -121t-28 -160q0 -88 23.5 -154t76 -110.5t135.5 -68t203 -24.5v-118z" />
    <glyph glyph-name="hohipthai" unicode="&#xe2b;" horiz-adv-x="1720" 
d="M377 635v-635h-131v1655h131v-856l1040 868l82 -102l-352 -291q84 -40 146 -100t102.5 -133.5t60 -158t19.5 -173.5v-709h-132v709q0 90 -19 168t-55.5 140.5t-91 107t-124.5 67.5z" />
    <glyph glyph-name="lochulathai" unicode="&#xe2c;" horiz-adv-x="2159" 
d="M1724 0h-143l-512 1450l-512 -1450h-147l-258 1655h135l213 -1508l516 1508h106l516 -1508l160 1139q16 120 -39 190t-190 76v103h119q58 0 104 17.5t80 47t56.5 68t33.5 80.5l33 123h135l-49 -168q-15 -53 -39 -92t-56.5 -69.5t-74 -53.5t-92.5 -43q40 -25 64 -59
t35.5 -72t12 -77.5t-5.5 -74.5z" />
    <glyph glyph-name="oangthai" unicode="&#xe2d;" horiz-adv-x="1622" 
d="M754 848h-443q0 -48 1 -100.5t4 -103.5t9 -96t15 -77q20 -74 60.5 -141.5t100.5 -119t138.5 -82t175.5 -30.5q98 0 174.5 28.5t133 79.5t95.5 120t63.5 150t35 170.5t10.5 180.5q0 86 -9.5 173.5t-34 168.5t-65 151.5t-103 123t-148.5 82.5t-201 30q-71 0 -131 -10.5
t-115.5 -34t-108.5 -60.5t-108 -91l-94 86q61 58 121.5 101.5t127 71.5t144 42t172.5 14q166 0 293.5 -54t214.5 -161t131.5 -265.5t44.5 -367.5q0 -198 -44 -355t-127 -266.5t-202 -167.5t-270 -58q-112 0 -208 33t-172 93.5t-130.5 146t-83.5 189.5q-11 39 -18 99
t-11 129.5t-6 142t-2 137.5h570v-102z" />
    <glyph glyph-name="honokhukthai" unicode="&#xe2e;" horiz-adv-x="1622" 
d="M754 848h-443q0 -48 1 -100.5t4 -103.5t9 -96t15 -77q20 -74 60.5 -141.5t100.5 -119t138.5 -82t175.5 -30.5q98 0 174 28t132.5 78t95 119t62 150t34 171t10.5 183q0 86 -9.5 173.5t-33 168.5t-64 151.5t-102 123t-147.5 82.5t-201 30q-71 0 -131 -10.5t-115.5 -34
t-108.5 -60.5t-108 -91l-94 86q61 58 121.5 101.5t127 71.5t144 42t172.5 14q112 0 206 -26.5t171 -75.5l315 328l86 -86l-311 -312q108 -108 162.5 -276t54.5 -400q0 -198 -44 -355t-127 -266.5t-202 -167.5t-270 -58q-112 0 -208 33t-172 93.5t-130.5 146t-83.5 189.5
q-11 39 -18 99t-11 129.5t-6 142t-2 137.5h570v-102z" />
    <glyph glyph-name="paiyannoithai" unicode="&#xe2f;" horiz-adv-x="1675" 
d="M1298 901q-37 -57 -93 -103.5t-122.5 -80t-138.5 -52t-141 -18.5q-138 0 -249.5 38t-190 110.5t-120.5 176.5t-42 236q0 95 23 177t70 142t118 94t166 34h131v-119h-103q-78 0 -131 -23.5t-84.5 -66.5t-45 -103.5t-13.5 -134.5q0 -106 30.5 -189t90 -140t147.5 -87
t203 -30q98 0 187.5 36t158 101t109 155t40.5 199v402h132v-1655h-132v901z" />
    <glyph glyph-name="saraathai" unicode="&#xe30;" horiz-adv-x="938" 
d="M258 1368q0 -77 31 -112t84 -35h393v-107h-397q-40 0 -80.5 11t-73 39.5t-54 77.5t-22.5 126h119zM258 569q0 -77 31 -112t84 -35h393v-107h-397q-40 0 -80.5 11t-73 39.5t-54 77.5t-22.5 126h119z" />
    <glyph glyph-name="maihanakatthai" unicode="&#xe31;" 
d="M-791 2281q0 -77 29 -110t82 -33h746v-110h-750q-40 0 -80.5 11t-73 39t-53.5 77t-22 126h122z" />
    <glyph glyph-name="saraaathai" unicode="&#xe32;" horiz-adv-x="1188" 
d="M29 1475q62 99 170.5 147.5t263.5 48.5q239 0 359 -135.5t120 -384.5v-1151h-131v1143q0 94 -18 170t-59 130t-107.5 83.5t-163.5 29.5q-115 0 -201 -35.5t-139 -115.5z" />
    <glyph glyph-name="saraamthai" unicode="&#xe33;" horiz-adv-x="1188" 
d="M-582 2245q0 55 21 103.5t57 84.5t84.5 57t104.5 21q54 0 101.5 -21t83 -57t56.5 -84.5t21 -103.5q0 -54 -21 -102t-56.5 -83.5t-83 -56.5t-101.5 -21q-56 0 -104.5 21t-84.5 56.5t-57 83.5t-21 102zM-471 2245q0 -34 11.5 -62t32.5 -48t49.5 -31t62.5 -11t62.5 11t49 31
t32 48t11.5 62q0 35 -11.5 63.5t-32 49t-49 31.5t-62.5 11t-62.5 -11t-49.5 -31.5t-32.5 -49t-11.5 -63.5zM29 1475q62 99 170.5 147.5t263.5 48.5q239 0 359 -135.5t120 -384.5v-1151h-131v1143q0 94 -18 170t-59 130t-107.5 83.5t-163.5 29.5q-115 0 -201 -35.5
t-139 -115.5z" />
    <glyph glyph-name="saraithai" unicode="&#xe34;" 
d="M-1475 2138h1229v-115h-1229v115z" />
    <glyph glyph-name="saraiithai" unicode="&#xe35;" 
d="M-1475 2138h1102v299h127v-414h-1229v115z" />
    <glyph glyph-name="sarauethai" unicode="&#xe36;" 
d="M-1470 2023v115h794q-8 9 -16.5 24t-15.5 32.5t-12 37t-5 37.5q0 52 19.5 97.5t53 79.5t78 53.5t95.5 19.5q52 0 97.5 -19.5t79.5 -53.5t53.5 -79.5t19.5 -97.5q0 -51 -19.5 -95.5t-53.5 -78t-79.5 -53t-97.5 -19.5h-991zM-610 2269q0 -28 10.5 -52t28.5 -41.5t42 -27.5
t50 -10q29 0 54.5 10t44 27.5t29.5 41.5t11 52q0 29 -11 54t-29.5 43t-44 28t-54.5 10q-26 0 -50 -10t-42 -28t-28.5 -43t-10.5 -54z" />
    <glyph glyph-name="saraueethai" unicode="&#xe37;" 
d="M-1475 2138h770v299h127v-299h205v299h127v-414h-1229v115z" />
    <glyph glyph-name="sarauthai" unicode="&#xe38;" 
d="M-373 -532q0 54 -5 84.5t-19.5 46.5t-41 20t-69.5 4h-41v111h49q71 0 119.5 -9.5t78.5 -38t43 -80.5t13 -138v-230h-127v230z" />
    <glyph glyph-name="sarauuthai" unicode="&#xe39;" 
d="M-823 -496q0 37 -2 61t-9.5 37.5t-21.5 19t-37 5.5h-65v107h77q52 0 87 -10.5t56 -33t29.5 -58.5t8.5 -87v-41q0 -26 7.5 -54.5t26.5 -52.5t50 -40t79 -16q49 0 81 16t50.5 40t25.5 52.5t7 54.5v230h127v-230q0 -60 -22 -109t-60.5 -84t-92 -54t-116.5 -19q-68 0 -121 19
t-89.5 54t-56 84t-19.5 109z" />
    <glyph glyph-name="phinthuthai" unicode="&#xe3a;" 
d="M-430 -381q0 23 9 44t25 36.5t37 25t44 9.5t43.5 -9.5t36.5 -25t25 -36.5t9 -44t-9 -44t-25 -36.5t-36.5 -25t-43.5 -9.5t-44 9.5t-37 25t-25 36.5t-9 44z" />
    <glyph glyph-name="PUCR2005" unicode="&#xe3e;" 
 />
    <glyph glyph-name="bahtthai" unicode="&#xe3f;" horiz-adv-x="1888" 
d="M1683 557q0 -138 -44 -242.5t-126 -174.5t-197.5 -105t-258.5 -35h-45v-221h-135v221h-590v2068h590v209h135v-209h24q130 0 242 -35.5t194 -103t128.5 -167t46.5 -226.5q0 -74 -18 -144.5t-57 -133t-101.5 -113t-151.5 -84.5q98 -31 167.5 -80.5t113 -114.5t63.5 -143
t20 -166zM422 115h455v880h-455v-880zM1552 557q0 103 -36.5 184t-104 137.5t-162 86.5t-209.5 30h-28v-880h28q115 0 209.5 30.5t162 87.5t104 139t36.5 185zM422 1122h455v832h-455v-832zM1516 1536q0 108 -41 186.5t-108.5 130t-153.5 76.5t-177 25h-24v-832h4
q101 0 192 23t159.5 73t108.5 128.5t40 189.5z" />
    <glyph glyph-name="saraethai" unicode="&#xe40;" horiz-adv-x="725" 
d="M246 1655h131v-1286q0 -54 7.5 -100t27 -79t53.5 -52t88 -19h127v-119h-131q-80 0 -137.5 25t-94 72.5t-54 115t-17.5 152.5v1290z" />
    <glyph glyph-name="saraaethai" unicode="&#xe41;" horiz-adv-x="1507" 
d="M246 1655h131v-1286q0 -54 7.5 -100t27 -79t53.5 -52t88 -19h127v-119h-131q-80 0 -137.5 25t-94 72.5t-54 115t-17.5 152.5v1290zM1028 1655h131v-1286q0 -54 7.5 -100t27 -79t53.5 -52t88 -19h127v-119h-131q-80 0 -137.5 25t-94 72.5t-54 115t-17.5 152.5v1290z" />
    <glyph glyph-name="saraothai" unicode="&#xe42;" horiz-adv-x="815" 
d="M336 1966q0 83 -20.5 153t-59 121.5t-95 81.5t-128.5 33l24 86h865v-102h-603q51 -48 80.5 -100t44.5 -102.5t19 -95.5t4 -79v-1589q0 -56 5.5 -103t26 -81.5t61.5 -54t112 -19.5h98v-115h-131q-84 0 -142 27.5t-94 77t-51.5 117t-15.5 147.5v1597z" />
    <glyph glyph-name="saraaimaimuanthai" unicode="&#xe43;" horiz-adv-x="815" 
d="M336 1466q0 32 1.5 60.5t10.5 58.5t29 64.5t57 79.5q43 54 90 103.5t86 98.5t64.5 98t25.5 101q0 66 -22.5 109.5t-60 69t-86.5 36t-101 10.5q-38 0 -80.5 -11t-82.5 -36t-72.5 -67t-51.5 -103l-114 25q17 73 58 130.5t96.5 96.5t119.5 59.5t127 20.5q98 0 172 -23.5
t123 -68t73.5 -107.5t24.5 -141q0 -47 -15 -91t-39.5 -85.5t-56 -80.5t-65 -75.5l-65.5 -71t-58 -67.5q-20 -23 -31.5 -45t-17 -44.5t-7 -45.5t-1.5 -49v-1102q0 -56 5.5 -103t26 -81.5t61.5 -54t112 -19.5h98v-115h-131q-84 0 -142 27.5t-94 77t-51.5 117t-15.5 147.5v1097
z" />
    <glyph glyph-name="saraaimaimalaithai" unicode="&#xe44;" horiz-adv-x="844" 
d="M496 373q0 -56 5.5 -103t26 -81.5t61 -54t111.5 -19.5h99v-115h-127q-85 0 -143.5 27.5t-95 77t-52.5 117t-16 147.5v1593q0 34 4.5 79.5t20 96.5t44.5 103t78 98h-573v102h835l25 -86q-75 -3 -132 -33t-95 -81.5t-57 -121.5t-19 -153v-1593z" />
    <glyph glyph-name="lakkhangyaothai" unicode="&#xe45;" horiz-adv-x="1188" 
d="M29 1475q62 99 170.5 147.5t263.5 48.5q239 0 359 -135.5t120 -384.5v-1769h-131v1761q0 94 -18 170t-59 130t-107.5 83.5t-163.5 29.5q-115 0 -201 -35.5t-139 -115.5z" />
    <glyph glyph-name="maiyamokthai" unicode="&#xe46;" horiz-adv-x="1659" 
d="M471 1536q-34 -15 -62.5 -32t-49.5 -46t-32.5 -76.5t-11.5 -124.5q0 -51 2.5 -99.5t20.5 -86.5t58.5 -61t115.5 -23v-102h-25q-65 0 -119 18t-93 61t-60.5 114.5t-21.5 178.5q0 86 15.5 152.5t50.5 116t92.5 84t140.5 57.5l323 -266l315 266q58 -17 110 -45t90 -68.5
t60.5 -95t22.5 -123.5v-1953h-131v1949q0 32 -3.5 60.5t-16.5 54t-37 48t-66 42.5l-307 -250q-16 -12 -37 -12t-37 12z" />
    <glyph glyph-name="maitaikhuthai" unicode="&#xe47;" 
d="M-1159 2544q-51 0 -87.5 -20.5t-60 -51t-34.5 -65.5t-11 -64q0 -32 11 -63t29.5 -58.5t43 -50t51.5 -37.5l263 156q21 12 42.5 10.5t43.5 -10.5l270 -156q26 14 47.5 32.5t36 44t19.5 58t-1 74.5h131q6 -62 -9.5 -118.5t-50 -102.5t-85 -78.5t-113.5 -44.5l-290 184
l-291 -180q-59 17 -109.5 45.5t-88.5 70.5t-59.5 97.5t-21.5 126.5q0 57 22.5 112.5t64.5 100.5t102 74t135 32h880v-118h-880z" />
    <glyph glyph-name="maiekthai" unicode="&#xe48;" 
d="M-373 2980h127v-297h-127v297z" />
    <glyph glyph-name="maithothai" unicode="&#xe49;" 
d="M98 2785v-102h-803v90q18 2 36 5q15 2 32 5t31 6q20 3 41.5 15t39.5 32t30 48t12 65q0 62 -39.5 96.5t-116.5 34.5v107q129 -3 201.5 -55t72.5 -162q0 -38 -15.5 -88t-61.5 -97h540z" />
    <glyph glyph-name="maitrithai" unicode="&#xe4a;" 
d="M31 2777v-94h-355v237q0 48 -12 81t-29 54.5t-36 33t-33 16.5l-144 -156q-41 -49 -90 0l-176 160q-56 -22 -83 -69t-27 -103q0 -32 10.5 -62.5t30.5 -54t50 -37.5t68 -14v-98h-4q-62 0 -111.5 22.5t-85 58t-54.5 80t-19 88.5q0 57 16 101t41 77t55.5 56.5t59.5 40.5
q7 4 20 8.5t28.5 5t32.5 -5t34 -20.5l155 -140l135 144q12 14 27 18.5t29.5 4t28 -5.5t22.5 -9q32 -15 63.5 -38t56.5 -56t40.5 -78t15.5 -103v-143h240z" />
    <glyph glyph-name="maichattawathai" unicode="&#xe4b;" 
d="M-614 2904v102h249v230h119v-230h250v-102h-250v-221h-119v221h-249z" />
    <glyph glyph-name="thanthakhatthai" unicode="&#xe4c;" 
d="M-373 2441q1 80 22.5 128.5t54 74.5t73 34.5t80.5 8.5h258v-107h-254q-37 0 -59.5 -8.5t-35 -26t-16.5 -43.5t-4 -61h-119z" />
    <glyph glyph-name="nikhahitthai" unicode="&#xe4d;" 
d="M-582 2245q0 55 21 103.5t57 84.5t84.5 57t104.5 21q54 0 101.5 -21t83 -57t56.5 -84.5t21 -103.5q0 -54 -21 -102t-56.5 -83.5t-83 -56.5t-101.5 -21q-56 0 -104.5 21t-84.5 56.5t-57 83.5t-21 102zM-471 2245q0 -34 11.5 -62t32.5 -48t49.5 -31t62.5 -11t62.5 11t49 31
t32 48t11.5 62q0 35 -11.5 63.5t-32 49t-49 31.5t-62.5 11t-62.5 -11t-49.5 -31.5t-32.5 -49t-11.5 -63.5z" />
    <glyph glyph-name="yamakkanthai" unicode="&#xe4e;" 
d="M-188 2175q-23 0 -36.5 -11.5t-20 -31.5t-8 -47t-1.5 -57h-131q1 67 14 111.5t34.5 70.5t51 36.5t64.5 10.5q0 58 20 90t50.5 46.5t66.5 17t68 2.5h127v-107h-107q-38 0 -60 -5.5t-33 -20t-14 -40t-3 -65.5h-82z" />
    <glyph glyph-name="fongmanthai" unicode="&#xe4f;" horiz-adv-x="2109" 
d="M213 819q0 116 29.5 223t84 199.5t130 169t167.5 130.5t197 84t219 30q116 0 223 -30t199.5 -84t169 -130.5t130.5 -169t84 -199.5t30 -223q0 -113 -30 -218.5t-84 -197.5t-130.5 -167.5t-169 -130t-199.5 -84t-223 -29.5q-113 0 -218.5 29.5t-197.5 84t-167.5 130
t-130 167.5t-84 197t-29.5 219zM598 819q0 92 35 173.5t95.5 142t141 96t170.5 35.5q92 0 173.5 -35.5t142 -96t96 -142t35.5 -173.5q0 -90 -35.5 -170.5t-96 -141t-142 -95.5t-173.5 -35q-90 0 -170.5 35t-141 95.5t-95.5 141t-35 170.5zM352 819q0 -95 24.5 -183
t69 -164.5t107.5 -139.5t139.5 -107.5t164.5 -69t183 -24.5q98 0 187.5 24.5t166.5 69t140.5 107.5t108.5 139.5t69.5 164.5t24.5 183q0 146 -54 273t-148 221.5t-221.5 148.5t-273.5 54q-143 0 -268.5 -54t-218.5 -148.5t-147 -221.5t-54 -273zM733 819q0 -63 24.5 -119
t66 -97.5t97.5 -66t119 -24.5q64 0 121 24.5t99.5 66t67 97.5t24.5 119q0 64 -24.5 121t-67 99t-99.5 66.5t-121 24.5q-63 0 -119 -24.5t-97.5 -66.5t-66 -99t-24.5 -121z" />
    <glyph glyph-name="zerothai" unicode="&#xe50;" horiz-adv-x="1909" 
d="M954 90q141 1 257.5 49t199.5 131t128.5 195.5t45.5 243.5q0 129 -45.5 240t-128.5 192.5t-199.5 128.5t-257.5 49q-141 -2 -257 -49t-199 -128.5t-128.5 -192.5t-45.5 -240q0 -131 45.5 -243.5t128.5 -195.5t199 -131t257 -49zM954 1434q184 0 327 -57t240.5 -155
t148 -230.5t50.5 -282.5q0 -152 -50.5 -285t-148 -231.5t-240.5 -155.5t-327 -57t-327 57t-240.5 155.5t-148 231.5t-50.5 285q0 150 50.5 282.5t148 230.5t240.5 155t327 57z" />
    <glyph glyph-name="onethai" unicode="&#xe51;" horiz-adv-x="1810" 
d="M143 705q0 163 58 297t160.5 230t243 149t304.5 53q174 0 314 -57.5t238.5 -162.5t152 -252t53.5 -327q0 -171 -42.5 -309t-118 -248.5t-181 -196t-231.5 -151.5l-62 94q115 66 208 144.5t159 176.5t101.5 220t35.5 274q0 157 -49 282t-134 213t-199.5 135.5t-244.5 49.5
q-123 -2 -236 -45.5t-199.5 -123.5t-138.5 -193t-52 -252q0 -266 121 -399t362 -142l4 -123q-169 0 -288 50.5t-194.5 140t-110 211t-34.5 262.5z" />
    <glyph glyph-name="twothai" unicode="&#xe52;" horiz-adv-x="1970" 
d="M299 1884v-1274q0 -95 30.5 -170.5t83 -133.5t124 -99.5t153 -68t169 -39t173.5 -13.5q87 1 170.5 13.5t157.5 39t136.5 68t107.5 99.5t70.5 133.5t25.5 170.5v267q0 73 -16 140t-47.5 122.5t-78.5 96.5t-108 62l-213 -225q-51 -51 -94 0l-213 225q-84 -31 -133.5 -90
t-71.5 -143l-123 45q20 64 54.5 118t80 96t99.5 71.5t114 46.5l238 -258l237 258q103 -31 179.5 -86t126.5 -129t75 -163t25 -187v-267q0 -164 -59.5 -282.5t-166 -195t-253 -112.5t-320.5 -36t-331 35.5t-276.5 111t-190 193.5t-70.5 282v1278h135z" />
    <glyph glyph-name="threethai" unicode="&#xe53;" horiz-adv-x="1937" 
d="M1016 987q-50 -44 -98 0l-353 287q-52 -35 -104 -94.5t-93.5 -134.5t-67.5 -161t-26 -175q0 -125 28 -234t85.5 -191t144.5 -131.5t205 -54.5v-110q-109 3 -195 34t-152.5 83.5t-114 121.5t-78 148.5t-44.5 164.5t-14 169q0 124 34 235.5t92.5 205t138 166t169.5 118.5
l394 -320l393 320q91 -46 170.5 -117t139 -163.5t94 -203.5t34.5 -237q0 -122 -21.5 -227t-57 -195t-82 -164.5t-97.5 -134.5l-106 61q38 52 78.5 117t74 145t55 177.5t21.5 216.5q0 89 -22 174.5t-61 160t-93.5 134t-118.5 96.5z" />
    <glyph glyph-name="fourthai" unicode="&#xe54;" horiz-adv-x="2032" 
d="M1237 106q-105 90 -155 189.5t-50 208.5q0 81 30 154t89 128t147 87t205 32h25v-114h-8q-92 3 -159.5 -20.5t-111.5 -64t-65 -94.5t-21 -112q0 -71 26 -142t77 -128t126 -92.5t173 -35.5h172v-102h-906q-173 0 -303 53.5t-216.5 148.5t-129.5 225t-43 282q0 150 43 279
t129.5 223.5t216.5 148t303 53.5h771l290 291l86 -82l-319 -324h-828q-131 -2 -234 -45.5t-175 -121.5t-110 -185.5t-38 -236.5q0 -131 38 -241.5t110 -191t175 -125.5t234 -45h406z" />
    <glyph glyph-name="fivethai" unicode="&#xe55;" horiz-adv-x="2032" 
d="M1241 106q-105 90 -155 189.5t-50 208.5q0 81 30 154t89 128t147 87t205 32h25v-114h-8q-92 3 -159.5 -20.5t-111.5 -64t-65 -94.5t-21 -112q0 -71 26 -142t77 -128t126 -92.5t173 -35.5h172v-102h-905q-174 0 -304 53.5t-216.5 148.5t-129.5 225t-43 282q0 150 43 279
t129.5 223.5t216.5 148t304 53.5h151q-22 31 -33.5 67.5t-11.5 80.5q0 55 21 103.5t57 84.5t84.5 57t103.5 21q54 0 101.5 -21t83.5 -57t56.5 -84.5t20.5 -103.5q0 -41 -13.5 -79t-35.5 -69h185l290 291l86 -82l-319 -324h-827q-131 -2 -234.5 -45.5t-175 -121.5
t-109.5 -185.5t-38 -236.5q0 -131 38 -241.5t109.5 -191t175 -125.5t234.5 -45h405zM1044 1561q0 -34 13 -63.5t35.5 -51t52 -33.5t63.5 -12t63.5 12t52 33.5t35.5 51t13 63.5q0 35 -13 65t-35.5 51.5t-52 34t-63.5 12.5t-63.5 -12.5t-52 -34t-35.5 -51.5t-13 -65z" />
    <glyph glyph-name="sixthai" unicode="&#xe56;" horiz-adv-x="1970" 
d="M356 475q-9 84 7.5 146t46 105.5t64.5 71t63 42.5l65 -107q-21 -14 -42.5 -32.5t-37 -47t-23.5 -71t-3 -103.5q4 -59 30 -110t68 -92t96.5 -73t115.5 -54t125 -33t126 -11q153 0 271.5 45t199.5 125.5t122.5 191t41.5 241.5q0 129 -42.5 240.5t-123.5 193.5t-199 129
t-270 47q-88 0 -165.5 -13.5t-144 -35.5t-122.5 -50t-101 -57l-458 459l90 86l389 -393q41 20 97 41.5t122 39.5t140.5 30t152.5 12q195 0 339.5 -57.5t240.5 -156.5t143 -232t47 -283q0 -152 -48 -284t-144 -229t-240.5 -152.5t-337.5 -55.5q-157 0 -282 38t-214.5 104.5
t-141.5 156t-63 192.5v-4z" />
    <glyph glyph-name="seventhai" unicode="&#xe57;" horiz-adv-x="2015" 
d="M1851 672q0 -125 -29 -232.5t-72.5 -194.5t-93.5 -152t-91 -105l-111 65q38 43 84 100.5t85.5 133t66 170t26.5 211.5q0 98 -32.5 190t-83.5 171t-113.5 142t-122.5 103l-332 -287q-25 -22 -50.5 -22t-47.5 22l-332 291q-55 -46 -113 -103.5t-106 -131t-78.5 -166
t-30.5 -209.5q0 -135 35.5 -239.5t98.5 -175.5t149.5 -109.5t187.5 -41.5v-114q-108 3 -194.5 32t-154 77t-116 112.5t-80 139t-46.5 156t-15 163.5q0 147 40.5 266t107 213t152 165t175.5 122l369 -324l369 324q28 -14 62 -35.5t69.5 -50t71 -62t66.5 -71t57 -77.5t42 -81
v680h131v-1065z" />
    <glyph glyph-name="eightthai" unicode="&#xe58;" horiz-adv-x="1962" 
d="M1729 492q0 -83 -22 -154.5t-67 -133t-113.5 -115t-162.5 -101.5l-385 327l-381 -323q-92 46 -175.5 118.5t-146.5 165.5t-100 204.5t-37 236.5q0 86 16.5 171t51 162.5t87.5 143.5t125.5 115t165 76.5t206.5 27.5h770l282 291l90 -86l-307 -320h-835q-122 -2 -217.5 -45
t-162.5 -119.5t-102 -183t-35 -233.5q0 -98 27 -183.5t71 -157t101 -129t117 -100.5l340 283q49 43 98 0l340 -287q49 26 91 60.5t72.5 78t48 96.5t17.5 118q0 49 -11 89t-30.5 72t-46.5 56t-59 41l37 110q55 -21 100 -54.5t76.5 -79.5t48.5 -105.5t17 -132.5z" />
    <glyph glyph-name="ninethai" unicode="&#xe59;" horiz-adv-x="2191" 
d="M840 -20q-168 4 -298.5 62.5t-220 157t-136 229.5t-46.5 280q0 150 48 282.5t140.5 230.5t226.5 155t306 57q184 0 328 -99t258 -286q4 81 26.5 149t66.5 116.5t111 75.5t160 27h304v-102h-304q-64 0 -108 -18t-73.5 -49.5t-46.5 -74t-25.5 -90t-10.5 -98.5t-2 -100
l438 -832l-114 -57l-492 917q-57 106 -119 183t-128 126.5t-134 73t-135 23.5q-131 0 -238.5 -47t-185 -129t-120 -193.5t-42.5 -240.5t40.5 -239t115 -191t178.5 -128.5t232 -52.5v-118z" />
    <glyph glyph-name="angkhankhuthai" unicode="&#xe5a;" horiz-adv-x="2208" 
d="M1827 1655h135v-1655h-135v1655zM1298 901q-37 -57 -93 -103.5t-122.5 -80t-138.5 -52t-141 -18.5q-138 0 -249.5 38t-190 110.5t-120.5 176.5t-42 236q0 95 23 177t70 142t118 94t166 34h131v-119h-103q-78 0 -131 -23.5t-84.5 -66.5t-45 -103.5t-13.5 -134.5
q0 -106 30.5 -189t90 -140t147.5 -87t203 -30q98 0 187.5 36t158 101t109 155t40.5 199v402h127v-1655h-127v901z" />
    <glyph glyph-name="khomutthai" unicode="&#xe5b;" horiz-adv-x="3621" 
d="M3359 877v-99h-586l-147 201q-18 -40 -43 -91l-54.5 -107l-61.5 -114l-63.5 -113l-60.5 -103.5l-53 -85.5l-54 95.5l-64 110.5l-71 117.5l-75 117.5l-76 110.5t-74 95.5q-10 -130 -45 -246t-90 -213.5t-128.5 -176t-161 -133t-187.5 -83.5t-207 -29q-201 0 -352 55
t-251 151t-150 226t-50 281q0 110 24 201.5t66 164.5t98 127t121 90t134.5 54t138.5 18q61 0 109.5 -10.5t86.5 -26.5t67 -35.5t52 -37.5l-86 -99q-56 47 -117.5 68.5t-120.5 21.5q-84 0 -164.5 -34.5t-143 -102t-100.5 -167.5t-38 -232q0 -161 56 -274.5t149.5 -185.5
t214.5 -105t252 -33q121 0 224.5 43t187 115.5t144.5 169t95.5 203.5t41.5 218t-17 213l90 62q35 -36 76 -87.5l84.5 -111l88.5 -125l87 -129l79.5 -122l67.5 -105.5l47.5 82.5l51.5 95l51 99.5l47 95.5l40 84l29 63.5l70 16l184 -249h537z" />
    <glyph glyph-name="saraulowthai" unicode="&#xf718;" 
d="M-373 -930q0 54 -5 85t-19.5 47t-41 20t-69.5 4h-41v110h49q71 0 119.5 -9t78.5 -37.5t43 -81t13 -138.5v-229h-127v229z" />
    <glyph glyph-name="sarauulowthai" unicode="&#xf719;" 
d="M-823 -897q0 37 -2 60.5t-9.5 37.5t-21.5 19.5t-37 5.5h-65v106h77q52 0 87 -10.5t56 -33t29.5 -58t8.5 -86.5v-41q0 -26 7.5 -55t26.5 -53t50 -40t79 -16q49 0 81 16t50.5 40t25.5 53t7 55v229h127v-229q0 -60 -22 -109t-60.5 -84t-92 -54t-116.5 -19q-68 0 -121 19
t-89.5 54t-56 84t-19.5 109z" />
    <glyph glyph-name="phinthulowthai" unicode="&#xf71a;" 
d="M-430 -770q0 23 9 44t25 36.5t37 25t44 9.5t43.5 -9.5t36.5 -25t25 -36.5t9 -44t-9 -44t-25 -36.5t-36.5 -25t-43.5 -9.5t-44 9.5t-37 25t-25 36.5t-9 44z" />
    <glyph glyph-name="rulakkhangyao" unicode="&#xf881;" horiz-adv-x="2855" 
d="M274 1036l-147 217q120 212 292.5 315t411.5 103q168 0 292 -43t205.5 -124.5t122 -200.5t40.5 -271v-1646h-131v1646q0 137 -37 236t-106.5 163t-168 94.5t-221.5 30.5q-71 0 -144.5 -15t-146 -49.5t-140.5 -90.5t-126 -139l131 -205v-688q0 -54 8 -100.5t28.5 -80.5
t55.5 -53.5t89 -19.5h127v-115h-131q-80 0 -137.5 24.5t-94.5 71t-54.5 113.5t-17.5 151v676zM1696 1475q62 99 170.5 147.5t263.5 48.5q239 0 359 -135.5t120 -384.5v-1769h-131v1761q0 94 -18 170t-59 130t-107.5 83.5t-163.5 29.5q-115 0 -201 -35.5t-139 -115.5z" />
    <glyph glyph-name="lulakkhangyao" unicode="&#xf882;" horiz-adv-x="2929" 
d="M1434 -614v1642q0 138 -38.5 237.5t-108.5 163t-169.5 93.5t-220.5 30q-72 0 -145.5 -14.5t-145 -49t-139 -92t-127.5 -143.5l135 -213v-667q0 -77 -14.5 -134t-38.5 -98.5t-55.5 -68.5t-66 -43t-68.5 -23.5t-64 -9.5l-25 119q69 3 109.5 30t60.5 65t25.5 82t5.5 81v659
l-147 217q119 212 292 315t412 103q168 0 292.5 -43t207 -124.5t123.5 -200.5t41 -271v-1642h-131zM1769 1475q62 99 171 147.5t264 48.5q239 0 359 -135.5t120 -384.5v-1769h-131v1761q0 94 -18 170t-59 130t-107.5 83.5t-163.5 29.5q-115 0 -201.5 -35.5t-138.5 -115.5z
" />
    <glyph glyph-name="lochula.short" unicode="&#xf71d;" horiz-adv-x="2159" 
d="M1724 0h-143l-512 1450l-512 -1450h-147l-258 1655h135l213 -1508l516 1508h106l516 -1508l160 1139q16 120 -39 190t-190 76v103h119q58 0 104 17.5t80 47t56.5 68t33.5 80.5l33 123h135l-49 -168q-15 -53 -39 -92t-56.5 -69.5t-74 -53.5t-92.5 -43q40 -25 64 -59
t35.5 -72t12 -77.5t-5.5 -74.5z" />
    <glyph glyph-name="uni25CC" unicode="&#x25cc;" horiz-adv-x="2298" 
d="M889 614l-164 -53l53 164q45 -66 111 -111zM1069 1417l82 156l74 -152q-37 4 -70 4q-45 0 -86 -8zM1217 537l-66 -144l-74 144q37 -9 78 -9q33 0 62 9zM1593 1053l144 -78l-144 -62q9 29 9 62q0 37 -9 78zM713 905l-156 78l156 78q-8 -45 -8 -86q0 -37 8 -70zM791 1245
l-46 156l156 -53q-65 -41 -110 -103zM1507 705l41 -144l-139 45q57 41 98 99zM1405 1348l172 53l-61 -160q-46 62 -111 107z" />
    <glyph glyph-name="yamakkanleftthai" 
d="M-889 2175q-23 0 -36 -11.5t-19.5 -31.5t-8 -47t-1.5 -57h-131q1 67 13.5 111.5t34 70.5t51 36.5t64.5 10.5q0 58 20 90t50.5 46.5t66.5 17t68 2.5h127v-107h-106q-39 0 -61 -5.5t-33 -20t-14 -40t-3 -65.5h-82z" />
    <glyph glyph-name="copyright" unicode="&#xa9;" horiz-adv-x="2630" 
d="M2404 1065q0 -150 -38.5 -288.5t-109 -259.5t-169.5 -221t-220 -171.5t-261 -110.5t-291 -39q-150 0 -288.5 39t-259.5 110.5t-221 171.5t-171.5 221t-110.5 260t-39 288q0 151 39 291t110.5 261t171.5 220t221 169.5t260 109t288 38.5q151 0 291 -38.5t261 -109
t220 -169.5t169.5 -220t109 -261t38.5 -291zM2294 1065q0 133 -35.5 258t-100 234.5t-154.5 200.5t-199 156.5t-233 101.5t-257 36q-132 0 -255.5 -36t-231.5 -101.5t-197 -156.5t-153 -200.5t-99 -234.5t-35 -258q0 -132 35 -256t99 -233.5t153 -200t197 -156t231.5 -101.5
t255.5 -36q133 0 257 36t233 101.5t199 156t154.5 200t100 233.5t35.5 256zM1327 451q-91 0 -165 22.5t-132.5 63t-101 97t-70.5 124.5t-41.5 146t-13.5 161q0 126 30.5 238.5t95 196.5t163 133.5t235.5 49.5q61 0 110.5 -8.5t94 -26.5t86.5 -46t90 -66q-11 -11 -19 -20
t-16.5 -17l-17.5 -17l-21 -20q-41 39 -77.5 63t-72.5 37.5t-74 18t-83 4.5q-120 0 -199.5 -42t-127 -113.5t-67.5 -166t-20 -198.5q0 -103 20 -197t67.5 -166t127 -114.5t199.5 -42.5q45 0 82.5 4.5t73 18t72 37.5t79.5 63l74 -74q-45 -37 -87.5 -64t-87.5 -44.5t-95.5 -26
t-110.5 -8.5z" />
    <glyph glyph-name="registered" unicode="&#xae;" horiz-adv-x="2630" 
d="M2404 1065q0 -150 -38.5 -288.5t-109 -259.5t-169.5 -221t-220 -171.5t-261 -110.5t-291 -39q-150 0 -288.5 39t-259.5 110.5t-221 171.5t-171.5 221t-110.5 260t-39 288q0 151 39 291t110.5 261t171.5 220t221 169.5t260 109t288 38.5q151 0 291 -38.5t261 -109
t220 -169.5t169.5 -220t109 -261t38.5 -291zM2294 1065q0 134 -35.5 259.5t-99.5 235t-153.5 200.5t-198.5 155.5t-233.5 100.5t-258.5 36q-133 0 -257 -36t-232.5 -100.5t-198 -155.5t-153.5 -200.5t-99 -235t-35 -259.5q0 -132 35 -256.5t99 -234t153.5 -201t198 -157
t232.5 -102t257 -36.5q134 0 258.5 36.5t233.5 102t198.5 157t153.5 201t99.5 234t35.5 256.5zM1614 475l-299 504h-225v-504h-103v1188h373q73 0 138.5 -26t115 -72.5t78 -110.5t28.5 -139q0 -62 -21 -112.5t-58 -91t-88 -70.5t-111 -50l299 -516h-127zM1618 1315
q0 55 -21 102.5t-58 82t-87.5 54t-108.5 19.5h-253v-500h253q58 0 108.5 18.5t87.5 50.5t58 76.5t21 96.5z" />
    <glyph glyph-name="trademark" unicode="&#x2122;" horiz-adv-x="2490" 
d="M2179 856v1008l-29 -66l-327 -622h-119l-328 622l-28 66v-1008h-111v1212h111l417 -802l414 802h111v-1212h-111zM602 1978v-1122h-115v1122h-368v90h856v-90h-373z" />
    <glyph glyph-name="multiply" unicode="&#xd7;" horiz-adv-x="1659" 
d="M1327 274l-500 500l-495 -500q-25 19 -40.5 38t-37.5 40l500 500l-500 500l78 73l495 -495l500 495l78 -73l-500 -500l500 -500z" />
    <glyph glyph-name="divide" unicode="&#xf7;" horiz-adv-x="1622" 
d="M168 795v114h1278v-114h-1278zM684 1380q0 26 9.5 49t26 40.5t39 27.5t48.5 10t48.5 -10t39 -27.5t26 -40.5t9.5 -49q0 -24 -9.5 -46.5t-26 -39.5t-39 -27t-48.5 -10t-48.5 10t-39 27t-26 39.5t-9.5 46.5zM684 315q0 26 9.5 48.5t26 39t39 26t48.5 9.5t48.5 -9.5t39 -26
t26 -39t9.5 -48.5t-9.5 -48t-26 -38.5t-39 -26t-48.5 -9.5t-48.5 9.5t-39 26t-26 38.5t-9.5 48z" />
    <glyph glyph-name="ZWSP" unicode="&#x200b;" 
 />
    <glyph glyph-name="yoyingthai" unicode="&#xe0d;" horiz-adv-x="2687" 
d="M1466 0q1 -34 7.5 -61t20 -46t35.5 -29.5t56 -10.5h856v-111h-864q-40 0 -80.5 10.5t-73 39t-53.5 78.5t-22 130h118zM401 369q0 -54 8 -100.5t28.5 -80.5t55.5 -53.5t89 -19.5h127v-115h-131q-80 0 -137.5 24.5t-94.5 71t-54.5 113.5t-17.5 151v676l-147 221
q120 209 292.5 311.5t411.5 102.5q168 0 292 -41.5t205.5 -122t122 -198t40.5 -269.5v-381q0 -126 26 -212.5t77.5 -140t128 -77.5t178.5 -24q100 0 176 24t128 77.5t78.5 140t26.5 212.5v996h131v-996q0 -128 -28.5 -232.5t-93 -179.5t-168.5 -116t-255 -41
q-276 0 -406 140t-130 429v381q0 135 -37 232t-106.5 159.5t-168 91.5t-221.5 29q-72 0 -146.5 -13.5t-147 -47t-139.5 -89.5t-124 -140l131 -205v-688z" />
    <glyph glyph-name="sterling" unicode="&#xa3;" horiz-adv-x="1544" 
d="M319 0v1008h-200v82h200v372q0 143 44 258t125.5 196t197.5 125t260 44q142 0 252.5 -40t202.5 -120l-90 -94l-69.5 56.5t-78 48.5t-95.5 33.5t-122 12.5q-118 0 -210 -36.5t-155.5 -106.5t-96.5 -171t-33 -230v-348h479v-82h-479v-902h958v-106h-1090z" />
    <glyph glyph-name="yen" unicode="&#xa5;" horiz-adv-x="1634" 
d="M1044 1167h336v-82h-381l-114 -229v-143h495v-82h-495v-631h-135v631h-500v82h500v143l-123 229h-377v82h340l-471 901h147l557 -1077l275.5 535.5l277.5 541.5h140z" />
    <glyph glyph-name="cent" unicode="&#xa2;" horiz-adv-x="1606" 
d="M1323 573q-49 -57 -99.5 -96t-105 -64t-114.5 -37.5t-127 -15.5v-274h-99v279q-128 17 -230 73t-174 147t-110.5 213t-38.5 271t38.5 272t110.5 214.5t174 148.5t230 74v221h99v-225q63 -2 121.5 -13t113 -33.5t106.5 -58.5t101 -88q-22 -22 -41 -37t-41 -37
q-43 43 -84.5 74t-85 52t-90 32t-100.5 14v-1212q101 6 189.5 47.5t174.5 124.5l90 -82zM778 1671q-115 -20 -196 -76t-132 -137t-74.5 -181t-23.5 -208q0 -67 9 -133t29.5 -128.5t53.5 -117.5t80 -99.5t110 -75.5t144 -44v1200z" />
    <glyph glyph-name="Euro" unicode="&#x20ac;" horiz-adv-x="1851" 
d="M975 -20q-146 0 -277.5 55t-230.5 158q-56 54 -91 112t-55 130.5t-28.5 163t-9.5 208.5h-217v115h217v372h-217v111h221q6 83 18 149.5t33.5 122.5t54 104.5t78.5 94.5q99 105 230 159t274 54q132 0 245 -38.5t201 -112.5t148 -182.5t86 -248.5h-127q-23 109 -73.5 196.5
t-122 148.5t-162.5 93.5t-195 32.5q-115 0 -218 -42.5t-184 -116.5q-37 -40 -63.5 -81.5t-45 -90.5t-29.5 -108t-17 -134h565v-111h-573v-372h573v-115h-573q1 -109 9.5 -190.5t27.5 -145.5t49.5 -114.5t76.5 -98.5q81 -84 184 -126t218 -42q106 0 197.5 34t164 96
t123.5 150t76 195h119q-28 -137 -89 -245t-149.5 -184t-200.5 -116t-241 -40z" />
    <glyph glyph-name="onequarter" unicode="&#xbc;" horiz-adv-x="2335" 
d="M2019 197v-197h-102v197h-520v94l463 946h114l-471 -958h414v356h102v-356h160v-82h-160zM672 0h-127l995 2068h127zM406 840v1138l-242 -213v107l225 196h119v-1228h-102z" />
    <glyph glyph-name="onehalf" unicode="&#xbd;" horiz-adv-x="2335" 
d="M1479 0v94l512 631q40 46 56.5 90.5t16.5 93.5q0 55 -16.5 100.5t-47 78t-74.5 50t-99 17.5q-46 0 -89 -11t-76.5 -37.5t-54.5 -70.5t-22 -110h-106q4 70 30.5 129t71.5 101t107 65.5t139 23.5q78 0 141.5 -23.5t108.5 -67.5t69.5 -106t24.5 -139q0 -62 -25 -125
t-78 -125l-475 -573h578v-86h-692zM627 0h-127l995 2068h123zM406 840v1138l-242 -213v107l225 196h119v-1228h-102z" />
    <glyph glyph-name="threequarters" unicode="&#xbe;" horiz-adv-x="2335" 
d="M2097 197v-197h-106v197h-521v94l-4 -4l233.5 475l229.5 475h115l-463 -958h410v356h106v-356h152v-82h-152zM889 0h-123l251 519l246.5 515l246 515l251.5 519h123zM877 1180q0 -91 -28.5 -157t-78 -108.5t-117 -63t-145.5 -20.5q-71 0 -134.5 18.5t-113.5 56t-83 93.5
t-42 131h111q7 -60 33.5 -100.5t63.5 -65t80 -35.5t85 -11q57 0 105 16.5t83 49.5t54.5 82t19.5 114q0 55 -16 101t-49 79t-84 51.5t-121 18.5h-8v81h8q64 0 111.5 17t78 48.5t45.5 76.5t15 100q0 58 -20 102.5t-54 74.5t-78.5 45.5t-93.5 15.5q-45 0 -86.5 -13t-75 -38.5
t-56 -63t-28.5 -86.5h-102q10 64 41 118.5t77.5 93.5t105 61t124.5 22q78 0 143 -23t111.5 -65.5t72 -103.5t25.5 -136q0 -41 -7.5 -81.5t-26 -77t-51 -69.5t-83.5 -59q57 -20 93.5 -51t58 -69.5t29.5 -82t8 -87.5z" />
    <glyph glyph-name="saraamleft" horiz-adv-x="1188" 
d="M29 1475q62 99 170.5 147.5t263.5 48.5q239 0 359 -135.5t120 -384.5v-1151h-131v1143q0 94 -18 170t-59 130t-107.5 83.5t-163.5 29.5q-115 0 -201 -35.5t-139 -115.5zM-1135 2245q0 55 21 103.5t57 84.5t84.5 57t104.5 21q54 0 101.5 -21t83 -57t56.5 -84.5t21 -103.5
q0 -54 -21 -102t-56.5 -83.5t-83 -56.5t-101.5 -21q-56 0 -104.5 21t-84.5 56.5t-57 83.5t-21 102zM-1024 2245q0 -34 11.5 -62t32.5 -48t49.5 -31t62.5 -11t62.5 11t49 31t32 48t11.5 62q0 35 -11.5 63.5t-32 49t-49 31.5t-62.5 11t-62.5 -11t-49.5 -31.5t-32.5 -49
t-11.5 -63.5z" />
    <glyph glyph-name="uni0E33.alt1" horiz-adv-x="1188" 
d="M29 1475q62 99 170.5 147.5t263.5 48.5q239 0 359 -135.5t120 -384.5v-1151h-131v1143q0 94 -18 170t-59 130t-107.5 83.5t-163.5 29.5q-115 0 -201 -35.5t-139 -115.5zM-1135 2245q0 55 21 103.5t57 84.5t84.5 57t104.5 21q54 0 101.5 -21t83 -57t56.5 -84.5t21 -103.5
q0 -54 -21 -102t-56.5 -83.5t-83 -56.5t-101.5 -21q-56 0 -104.5 21t-84.5 56.5t-57 83.5t-21 102zM-1024 2245q0 -34 11.5 -62t32.5 -48t49.5 -31t62.5 -11t62.5 11t49 31t32 48t11.5 62q0 35 -11.5 63.5t-32 49t-49 31.5t-62.5 11t-62.5 -11t-49.5 -31.5t-32.5 -49
t-11.5 -63.5z" />
    <glyph glyph-name="guillemotleft" unicode="&#xab;" horiz-adv-x="1700" 
d="M836 856l581 582v-156l-430 -426l430 -434v-148zM164 856l586 582v-156l-435 -426l435 -434v-148z" />
    <glyph glyph-name="guillemotright" unicode="&#xbb;" horiz-adv-x="1700" 
d="M287 274v148l430 434l-430 426v156l577 -582zM950 274v148l434 434l-434 426v156l586 -582z" />
    <glyph glyph-name="thothannobasethai" unicode="&#xf700;" horiz-adv-x="1450" 
d="M1073 541q0 75 -13 131.5t-44.5 95t-84 57.5t-132.5 19h-262v110h266q83 0 155 -23t115 -67v197q0 115 -32 207t-93.5 156t-152.5 98t-209 34q-72 0 -142 -17t-130 -50t-107.5 -83t-75.5 -116l-119 45q35 80 91 142.5t129.5 105.5t162.5 65.5t191 22.5q111 0 207 -25
t174 -77l323 332l86 -82l-323 -328q71 -74 111 -181t40 -249v-1061h-131v541z" />
    <glyph glyph-name="exclam" unicode="!" horiz-adv-x="942" 
d="M578 618h-119l-13 1450h144zM410 94q0 22 8.5 41.5t23 34t34 23t40.5 8.5t40.5 -8.5t34.5 -23t23.5 -34t8.5 -41.5q0 -23 -8.5 -43t-23.5 -35t-34.5 -23.5t-40.5 -8.5t-40.5 8.5t-34 23.5t-23 35t-8.5 43z" />
    <glyph glyph-name="quotedbl" unicode="&#x22;" horiz-adv-x="1274" 
d="M803 1622v463h168v-463h-168zM303 1622v463h168v-463h-168z" />
    <glyph glyph-name="numbersign" unicode="#" horiz-adv-x="2019" 
d="M1454 1278l-78 -475h295v-98h-307l-115 -705h-131l119 705h-565l-111 -705h-127l115 705h-299v98h311l39 237l39 238h-295v106h311l115 672h127l-115 -672h566l106 672h123l-107 -672h291v-106h-307zM770 1278l-82 -475h561l78 475h-557z" />
    <glyph glyph-name="dollar" unicode="$" horiz-adv-x="1651" 
d="M1507 549q0 -123 -43.5 -224t-125 -174.5t-197.5 -117.5t-260 -53v-316h-111v311q-98 5 -183.5 24t-161.5 52.5t-145 81t-133 109.5l99 106q63 -63 124 -107.5t124 -73.5t131 -44.5t145 -20.5v885q-131 25 -238 70t-183.5 111.5t-118.5 155t-42 200.5q0 126 41 227
t116.5 173t183 113.5t241.5 47.5v278h111v-278q78 -3 147 -17t132 -40t121.5 -63.5t115.5 -88.5l-86 -94q-46 38 -92 70.5t-97 57t-110 40t-131 20.5v-868q158 -26 275.5 -69t195.5 -109t116.5 -158.5t38.5 -216.5zM872 94q117 4 210.5 36t158.5 89.5t100 139t35 186.5
q0 107 -35 181.5t-100 125t-158.5 81t-210.5 50.5v-889zM324 1532q0 -61 19.5 -113.5t53 -96t78 -78t94 -60t101.5 -42.5t100 -24v856q-103 -6 -185.5 -40t-140.5 -91.5t-89 -136.5t-31 -174z" />
    <glyph glyph-name="percent" unicode="%" horiz-adv-x="2392" 
d="M930 1384q0 -81 -28 -150t-78.5 -119.5t-121.5 -78.5t-157 -28t-157 28t-121.5 78.5t-78.5 119.5t-28 150v312q0 86 28 156t78.5 120t121.5 77.5t157 27.5t157 -27.5t121.5 -77.5t78.5 -120t28 -156v-312zM762 0h-127l999 2068h127zM811 1696q0 61 -17 111t-50 85.5
t-83 54.5t-116 19t-116.5 -19t-85 -54.5t-52 -85.5t-17.5 -111v-307q0 -123 69.5 -195t201.5 -72q133 0 199.5 70t66.5 197v307zM2232 365q0 -82 -27.5 -151t-77.5 -119.5t-121 -78.5t-159 -28q-86 0 -157 28t-121.5 78.5t-78.5 119.5t-28 151v307q0 87 28 158.5t78.5 121.5
t121.5 77.5t157 27.5q88 0 159 -27.5t121 -77.5t77.5 -121.5t27.5 -158.5v-307zM2126 672q0 136 -71 209t-208 73q-136 0 -207 -73t-71 -209v-299q0 -133 71 -206t207 -73q137 0 208 71.5t71 207.5v299z" />
    <glyph glyph-name="ampersand" unicode="&#x26;" horiz-adv-x="2150" 
d="M1745 0l-209 246q-24 -21 -58.5 -48.5t-80 -57t-102 -58.5t-123.5 -51.5t-144 -36.5t-164 -14q-149 0 -271 42t-209 118t-135 183t-48 238q0 118 43 211t114 169t162.5 139.5t188.5 123.5q-46 51 -91 107t-80 115.5t-57 121t-22 123.5q0 84 33 157.5t90.5 128t135.5 85.5
t167 31q90 0 168.5 -32t136.5 -87t91.5 -129t33.5 -158q0 -60 -20.5 -113t-55 -98t-78.5 -82.5t-92 -66.5l-68 -46l-58 -39l-50 -34l325.5 -371l325.5 -371q34 52 60 105t43.5 114.5t26.5 136t9 169.5h132q-2 -92 -13.5 -178.5t-34.5 -165t-58.5 -148t-86.5 -127.5
l149.5 -177l149.5 -175h-176zM1184 1667q0 61 -23 115t-63.5 94t-95 63t-117.5 23q-60 0 -113 -21.5t-92.5 -60t-62.5 -90t-23 -111.5q0 -40 12 -80t39 -87t69.5 -105t104.5 -133l45.5 31l43.5 29l46 30q42 29 83 60.5t73.5 68t53 79.5t20.5 95zM786 1122l-161 -105
t-146 -119t-106 -145.5t-41 -183.5q0 -106 39 -193.5t108.5 -150t166.5 -97t214 -34.5q64 0 133 11t143 39t154.5 74.5t167.5 117.5z" />
    <glyph glyph-name="quotesingle" unicode="'" horiz-adv-x="778" 
d="M303 1622v463h168v-463h-168z" />
    <glyph glyph-name="parenleft" unicode="(" horiz-adv-x="872" 
d="M569 -295q-71 58 -120 120.5t-79.5 128.5t-44.5 135.5t-14 143.5v1827q-2 81 12.5 153t45.5 137t79.5 124t116.5 115l82 -82q-41 -41 -72 -75.5t-54 -66t-38.5 -63.5t-25 -68t-14 -78.5t-5.5 -95.5v-1827q0 -68 11 -125t35.5 -110t64.5 -104.5t98 -106.5z" />
    <glyph glyph-name="parenright" unicode=")" horiz-adv-x="872" 
d="M225 -213q57 55 96 106.5t63.5 104.5t35 110t10.5 125v1827q-1 53 -5.5 95.5t-14 78.5t-24.5 68t-37.5 63.5t-53 66t-70.5 75.5l78 82q67 -56 116 -115t80 -124t45 -137t13 -153v-1827q0 -74 -14 -143.5t-44.5 -135.5t-80 -128.5t-119.5 -120.5z" />
    <glyph glyph-name="asterisk" unicode="*" horiz-adv-x="1466" 
d="M1180 1241l-398 242q0 -112 4.5 -232.5t4.5 -234.5h-115l8 467l-397 -242l-54 90l402 230l-97 54.5l-102.5 57.5l-103 58l-99.5 55q19 28 30 49t24 49l397 -246q0 112 -4 234t-4 233h115l-9 -467l398 246l53 -98l-402 -225l97 -55.5l102.5 -59.5l103 -59.5l99.5 -55.5z
" />
    <glyph glyph-name="plus" unicode="+" horiz-adv-x="1655" 
d="M889 795v-582h-115v582h-586v110h586v582h115v-582h577v-110h-577z" />
    <glyph glyph-name="comma" unicode="," horiz-adv-x="795" 
d="M303 -389v590h180v-410z" />
    <glyph glyph-name="hyphen" unicode="-" horiz-adv-x="1335" 
d="M266 795v114h803v-114h-803z" />
    <glyph glyph-name="period" unicode="." horiz-adv-x="811" 
d="M283 98q0 26 9.5 49t26 40.5t39 27.5t48.5 10t48 -10t38.5 -27.5t26 -40.5t9.5 -49q0 -24 -9.5 -46.5t-26 -39.5t-38.5 -27t-48 -10t-48.5 10t-39 27t-26 39.5t-9.5 46.5z" />
    <glyph glyph-name="slash" unicode="/" horiz-adv-x="1053" 
d="M131 -238h-131l918 2773h135z" />
    <glyph glyph-name="zero" unicode="0" horiz-adv-x="1454" 
d="M1290 537q0 -122 -41 -223.5t-115 -174.5t-177.5 -114t-227.5 -41q-126 0 -230 41t-178.5 114t-115.5 174.5t-41 223.5v1003q0 123 41 223.5t115.5 172t178.5 110.5t230 39q124 0 227.5 -39t177.5 -110.5t115 -172t41 -223.5v-1003zM1155 1528q0 95 -27.5 176t-81 140
t-133 92.5t-184.5 33.5q-106 0 -187 -33.5t-136 -92.5t-83 -140t-28 -176v-983q0 -92 28 -173t83 -141t136 -94.5t187 -34.5q105 0 184.5 34.5t133 94.5t81 141t27.5 173v983z" />
    <glyph glyph-name="one" unicode="1" horiz-adv-x="1454" 
d="M770 0v1946l-418 -353v156l410 336h143v-2085h-135z" />
    <glyph glyph-name="two" unicode="2" horiz-adv-x="1454" 
d="M168 0v115l876 1097q62 84 92.5 165.5t30.5 170.5q0 97 -30.5 175t-86.5 133t-135.5 84.5t-177.5 29.5q-80 0 -157 -22.5t-138.5 -71.5t-100.5 -127t-42 -188h-131q3 115 43.5 211.5t113.5 166t177 108t235 38.5q129 0 234 -36.5t180 -106t115.5 -169t40.5 -225.5
q0 -57 -10 -107.5t-29.5 -98.5t-47.5 -95t-65 -96l-831 -1040h983v-111h-1139z" />
    <glyph glyph-name="three" unicode="3" horiz-adv-x="1454" 
d="M1294 545q0 -140 -46 -247t-127 -180t-193 -110t-244 -37q-125 0 -232.5 32t-188.5 96.5t-132 160t-61 223.5h139q12 -109 57 -184t110 -121.5t145 -67t163 -20.5q100 0 186.5 30.5t150.5 89t101 143t37 192.5q0 109 -27.5 194.5t-87 144t-151.5 89.5t-221 31h-25v114h25
q230 0 340 110t110 316q0 108 -34 188.5t-93.5 134t-140 80.5t-174.5 27q-97 0 -174 -25.5t-133 -74t-90.5 -118.5t-44.5 -159h-140q17 120 67.5 211t127 152.5t175 93t212.5 31.5q129 0 234 -36.5t179.5 -106.5t115 -170.5t40.5 -227.5q0 -71 -13 -138.5t-45 -129
t-86.5 -114.5t-137.5 -93q90 -32 152.5 -84t101.5 -119.5t56 -149t17 -171.5z" />
    <glyph glyph-name="four" unicode="4" horiz-adv-x="1454" 
d="M1073 344v-344h-135v344h-868v111l802 1613h144l-807 -1609h729v663h135v-663h299v-115h-299z" />
    <glyph glyph-name="five" unicode="5" horiz-adv-x="1454" 
d="M1315 672q-2 -155 -34 -283.5t-101 -220.5t-178.5 -142.5t-264.5 -50.5q-114 0 -211 30.5t-170.5 89t-120.5 145t-59 198.5h131q12 -81 44.5 -145t86 -108.5t128 -67.5t171.5 -23q126 0 211 47t136.5 126.5t73.5 184.5t22 220q0 66 -6.5 134.5t-24 132t-46.5 119.5
t-74.5 97.5t-108 65.5t-146.5 24q-72 0 -140.5 -16.5t-126.5 -46t-102.5 -70t-68.5 -88.5h-103v1044h1029v-110h-902v-750q83 77 184 108.5t230 31.5q103 0 183.5 -25.5t140.5 -71.5t101.5 -109t67 -138t37 -159.5t11.5 -172.5z" />
    <glyph glyph-name="six" unicode="6" horiz-adv-x="1454" 
d="M1315 606q0 -129 -39 -242.5t-114.5 -197.5t-185.5 -133t-251 -49q-140 0 -249.5 45t-185.5 125.5t-115.5 190.5t-39.5 241q0 200 123 458l541 1024h135l-492 -933q39 21 75.5 35.5t72.5 22.5t72.5 11.5t74.5 3.5q138 0 246 -47t181.5 -128t112 -191t38.5 -236zM1184 594
q-2 103 -30.5 195t-84 161.5t-138.5 110.5t-194 41q-101 0 -187.5 -36t-149.5 -102.5t-98.5 -160.5t-35.5 -209q0 -111 32.5 -203t92.5 -158t144.5 -102.5t189.5 -36.5q101 0 185.5 37t145 103.5t94.5 158.5t34 201z" />
    <glyph glyph-name="seven" unicode="7" horiz-adv-x="1454" 
d="M565 0h-135l774 1958h-856v-324h-135v434h1130v-114z" />
    <glyph glyph-name="eight" unicode="8" horiz-adv-x="1454" 
d="M1343 553q0 -123 -46.5 -227.5t-128.5 -180t-194.5 -118.5t-244.5 -43t-245 43t-196 118.5t-130 180t-47 227.5q0 89 24 167t69 144t109.5 119.5t145.5 93.5q-154 83 -226.5 203t-72.5 276q0 117 41 214.5t116 167t179.5 108.5t232.5 39q126 0 230 -39t178.5 -108.5
t115.5 -167t41 -214.5q0 -154 -74.5 -274.5t-220.5 -204.5q80 -35 143.5 -88t108 -120t68.5 -147t24 -169zM1159 1556q0 92 -31.5 169.5t-88.5 133.5t-136 87.5t-174 31.5q-97 0 -177.5 -31.5t-138.5 -87.5t-90 -133.5t-32 -169.5q0 -93 32 -170.5t90 -133t138.5 -86.5
t177.5 -31q95 0 174 31t136 86.5t88.5 133t31.5 170.5zM1204 553q0 98 -37 183.5t-101 148.5t-150.5 99t-186.5 36t-187 -36t-152 -99t-102.5 -148.5t-37.5 -183.5q0 -95 37.5 -179t102.5 -146t152 -98t187 -36t186.5 36t150.5 98t101 146t37 179z" />
    <glyph glyph-name="nine" unicode="9" horiz-adv-x="1454" 
d="M135 1462q0 129 40 242.5t116 198t186.5 133.5t251.5 49q140 0 249 -45.5t184 -126.5t114 -191t39 -239q0 -102 -30.5 -217t-92.5 -242l-537 -1024h-139l492 930q-39 -22 -75.5 -35.5t-72 -21t-71 -10.5t-72.5 -3q-138 0 -246.5 46t-183 127t-113.5 191t-39 238z
M270 1475q1 -105 29 -197.5t83.5 -161.5t139 -109t195.5 -40q101 0 186.5 36t148 102.5t97.5 160t35 209.5q0 109 -32.5 200.5t-92 158t-143.5 103.5t-187 37t-188 -37t-146 -103.5t-94 -158t-31 -200.5z" />
    <glyph glyph-name="colon" unicode=":" horiz-adv-x="905" 
d="M373 102q0 26 9.5 48.5t26 39t39 26t48.5 9.5t48 -9.5t38.5 -26t26 -39t9.5 -48.5t-9.5 -48t-26 -38.5t-38.5 -26t-48 -9.5t-48.5 9.5t-39 26t-26 38.5t-9.5 48zM373 1200q0 26 9.5 48.5t26 39t39 26t48.5 9.5t48 -9.5t38.5 -26t26 -39t9.5 -48.5t-9.5 -48.5t-26 -39
t-38.5 -26t-48 -9.5t-48.5 9.5t-39 26t-26 39t-9.5 48.5z" />
    <glyph glyph-name="semicolon" unicode=";" horiz-adv-x="905" 
d="M406 -389v590h180v-410zM377 1200q0 25 9.5 46.5t25.5 37.5t37.5 25.5t46.5 9.5q24 0 45.5 -9.5t37.5 -25.5t25.5 -37.5t9.5 -46.5q0 -24 -9.5 -46t-25.5 -38t-37.5 -25.5t-45.5 -9.5q-25 0 -46.5 9.5t-37.5 25.5t-25.5 38t-9.5 46z" />
    <glyph glyph-name="less" unicode="&#x3c;" horiz-adv-x="1651" 
d="M1466 389l-1278 496v119l1278 503v-127l-1159 -434l1159 -434v-123z" />
    <glyph glyph-name="equal" unicode="=" horiz-adv-x="1655" 
d="M188 1040v111h1278v-111h-1278zM188 545v114h1278v-114h-1278z" />
    <glyph glyph-name="greater" unicode="&#x3e;" horiz-adv-x="1651" 
d="M188 512l1160 434l-1160 434v127l1278 -503v-119l-1278 -496v123z" />
    <glyph glyph-name="question" unicode="?" horiz-adv-x="1401" 
d="M1241 1589q0 -51 -11.5 -95t-30 -85.5t-43 -80.5l-50.5 -79l-258 -368q-17 -20 -28 -44t-17.5 -47.5t-9 -45.5t-2.5 -39v-160h-127v151q0 39 6 72t16.5 63t25.5 59t33 60l279 398l35 54t30 55.5t21 61t8 70.5q0 85 -32.5 157.5t-88 126t-130 84t-158.5 30.5
q-88 0 -164 -29.5t-132.5 -81t-89 -121t-32.5 -149.5h-119q1 101 41 189t110.5 153.5t168.5 103t217 37.5q114 0 211 -38t168.5 -104.5t112 -158t40.5 -199.5zM614 90q0 21 9.5 40.5t25 34.5t35.5 23.5t41 8.5t40.5 -8.5t34 -23.5t23 -34.5t8.5 -40.5t-8.5 -41t-23 -35.5
t-34 -24.5t-40.5 -9t-41 9t-35.5 24.5t-25 35.5t-9.5 41z" />
    <glyph glyph-name="at" unicode="@" horiz-adv-x="2572" 
d="M1597 1044q7 50 10.5 109t-1.5 117.5t-21 113t-48.5 97t-83.5 67.5t-126 25q-74 0 -133.5 -21.5t-107 -59t-83.5 -88t-63 -109t-45.5 -121.5t-30.5 -125q-9 -54 -14.5 -114t-1.5 -118t20 -110.5t50.5 -92t89 -63t135.5 -23.5q104 0 182 44.5t132.5 117t88.5 165t51 189.5
zM1954 176q-71 -54 -153 -94t-170 -66.5t-180.5 -39.5t-184.5 -13q-144 0 -281.5 38.5t-258.5 109t-220.5 169.5t-169 219.5t-103.5 259.5t-24 290q9 149 55 288t121 260t176 220.5t221.5 171t256 110.5t280.5 39q156 0 295 -35.5t257 -101t211.5 -159t157.5 -210t96 -253.5
t27 -289q-5 -135 -45 -254.5t-112 -209t-173 -141t-227 -51.5q-55 0 -98.5 17t-75.5 46.5t-52 69t-28 84.5q-57 -66 -112 -108t-110 -66.5t-108.5 -33.5t-107.5 -9q-87 0 -151.5 26.5t-110 71.5t-72.5 105.5t-39.5 128.5t-11.5 139t12 139q23 131 70 244t119 196.5
t170.5 131t226.5 47.5q54 0 105.5 -11.5t96 -37.5t79.5 -68.5t55 -103.5q9 49 22 97.5t19 94.5h111l-148 -815q-12 -62 -12 -119q0 -35 8 -66t26.5 -53.5t50 -35.5t79.5 -13q67 0 125 23t105 62.5t83.5 93.5t61.5 116t39 129t16 134q4 132 -25 253t-87 225t-141.5 189
t-188 145t-228 93t-260.5 33q-130 0 -252 -37.5t-230 -104t-198 -158t-157 -200.5t-107 -230.5t-47 -248.5q-8 -135 22.5 -260t92 -234t150 -198.5t195.5 -153t228.5 -98.5t249.5 -35q78 0 161 14t163.5 40t155.5 63t138 83z" />
    <glyph glyph-name="A" unicode="A" horiz-adv-x="1708" 
d="M1556 0l-188 504h-1028l-188 -504h-144l787 2068h123l782 -2068h-144zM856 1901l-479 -1278h950z" />
    <glyph glyph-name="B" unicode="B" horiz-adv-x="1884" 
d="M1683 557q0 -138 -44 -242.5t-126 -174.5t-197.5 -105t-258.5 -35h-770v2068h749q130 0 242 -35.5t194 -103t128.5 -167t46.5 -226.5q0 -74 -18 -144.5t-57 -133t-101.5 -113t-151.5 -84.5q98 -31 167.5 -80.5t113 -114.5t63.5 -143t20 -166zM1516 1536q0 108 -41 186.5
t-108.5 130t-153.5 76.5t-177 25h-614v-832h594q101 0 192 23t159.5 73t108.5 128.5t40 189.5zM1552 557q0 103 -36.5 184t-104 137.5t-162 86.5t-209.5 30h-618v-880h618q115 0 209.5 30.5t162 87.5t104 139t36.5 185z" />
    <glyph glyph-name="C" unicode="C" horiz-adv-x="1786" 
d="M1581 565q-24 -140 -84 -249.5t-149 -185t-203.5 -115.5t-247.5 -40t-258.5 46t-224.5 139q-81 83 -124 178.5t-62 204t-21 230.5t-2 259q0 144 3.5 268t23 230t62 195.5t120.5 166.5q99 96 223 144.5t260 48.5q137 0 252 -39t202.5 -113.5t146.5 -183t83 -246.5h-131
q-25 106 -74.5 193t-120.5 148.5t-161.5 95.5t-196.5 34q-115 0 -216.5 -43t-184.5 -121q-38 -40 -65 -81.5t-45 -90t-29 -106.5t-16.5 -131.5t-7 -164t-1.5 -204.5q0 -113 1.5 -204t7 -164t16.5 -131t29 -107t45 -90.5t65 -81.5q83 -74 184.5 -119t216.5 -45
q106 0 197.5 34t163.5 96t123 150t77 195h123z" />
    <glyph glyph-name="D" unicode="D" horiz-adv-x="1946" 
d="M1745 1061q0 -134 -9 -265t-36 -249t-77 -218t-132.5 -173t-201.5 -114.5t-285 -41.5h-717v2068h717q158 0 275 -37.5t199 -105t134 -161.5t81.5 -205.5t40.5 -238t11 -259.5zM1606 1061q0 119 -7.5 231t-29.5 211.5t-63 182t-108 142.5t-163.5 93t-230.5 33h-582v-1835
h582q141 0 240.5 36.5t166.5 101.5t106 153.5t58.5 193.5t25 221t5.5 236z" />
    <glyph glyph-name="E" unicode="E" horiz-adv-x="1692" 
d="M287 0v2068h1290v-114h-1155v-848h987v-119h-987v-868h1155v-119h-1290z" />
    <glyph glyph-name="F" unicode="F" horiz-adv-x="1581" 
d="M422 1954v-889h950v-115h-950v-950h-135v2068h1253v-114h-1118z" />
    <glyph glyph-name="G" unicode="G" horiz-adv-x="1786" 
d="M1593 713q0 -158 -42 -279t-126 -217q-49 -54 -109 -97.5t-128 -74.5t-142.5 -48t-152.5 -17q-133 0 -256.5 47.5t-222.5 140.5q-54 55 -91.5 116.5t-61.5 127.5t-36.5 134.5t-18 137.5t-6 138t0.5 136v78q0 118 1 213t6.5 173t17.5 141.5t32.5 117.5t52.5 101.5t78 93.5
q102 105 232 159t272 54q133 0 248.5 -40.5t205 -116.5t150 -183.5t84.5 -241.5h-127q-26 106 -77.5 193t-123.5 148.5t-163 95.5t-197 34q-108 0 -216.5 -46t-201.5 -142q-51 -57 -80 -121.5t-44 -151.5t-19 -203.5t-4 -277.5q0 -164 6 -284t24 -210t51 -156.5t87 -123.5
q80 -77 181 -122.5t216 -45.5q61 0 122.5 15t118.5 42t107 65.5t90 86.5q70 89 102.5 192t32.5 238v197h-557v119h684v-336z" />
    <glyph glyph-name="H" unicode="H" horiz-adv-x="2011" 
d="M1585 0v987h-1163v-987h-135v2068h135v-962h1163v962h135v-2068h-135z" />
    <glyph glyph-name="I" unicode="I" horiz-adv-x="750" 
d="M307 0v2068h135v-2068h-135z" />
    <glyph glyph-name="J" unicode="J" horiz-adv-x="1376" 
d="M1118 631q0 -154 -45 -275t-128.5 -204.5t-201.5 -127.5t-264 -44q-141 0 -249.5 42t-200.5 134l90 90q34 -32 68 -59.5t75.5 -47t93.5 -30.5t123 -11q115 0 207.5 36.5t157.5 105.5t100 167.5t35 223.5v1437h139v-1437z" />
    <glyph glyph-name="K" unicode="K" horiz-adv-x="1835" 
d="M1671 0l-708 1188l-541 -627v-561h-135v2068h135v-1318l1122 1318h164l-651 -790l766 -1278h-152z" />
    <glyph glyph-name="L" unicode="L" horiz-adv-x="1561" 
d="M287 0v2068h135v-1945h1102v-123h-1237z" />
    <glyph glyph-name="M" unicode="M" horiz-adv-x="2359" 
d="M1937 0v1548l5 230l-70 -164l-635 -1299h-102l-664 1319l-61 152l8 -238v-1548h-135v2060h110l795 -1581l762 1581h123v-2060h-136z" />
    <glyph glyph-name="N" unicode="N" horiz-adv-x="2130" 
d="M1720 0l-1298 1843v-1843h-135v2068h123l1294 -1843v1843h135v-2068h-119z" />
    <glyph glyph-name="O" unicode="O" horiz-adv-x="1790" 
d="M1589 1036q0 -118 -1 -213t-6.5 -173t-17.5 -141.5t-32.5 -118t-52.5 -102.5t-78 -95q-99 -103 -231 -158t-277 -55q-142 0 -272 55t-232 158q-46 47 -78 95t-52.5 102.5t-32.5 118t-17.5 141.5t-6.5 173t-1 213t1 213t6.5 173t17.5 141.5t32.5 117.5t52.5 101.5t78 93.5
q102 105 232 159t272 54q145 0 277 -54t231 -159q46 -46 78 -93.5t52.5 -101.5t32.5 -117.5t17.5 -141.5t6.5 -173t1 -213zM1458 1036q0 112 -1.5 201.5t-7.5 162.5t-16.5 131t-29.5 107t-46.5 90.5t-66.5 81.5q-80 78 -183 121t-214 43q-112 0 -213 -43t-184 -121
q-38 -40 -65 -81.5t-45 -90t-29 -106t-16.5 -130.5t-7 -163t-1.5 -203q0 -169 4 -288.5t20.5 -207t49.5 -152t90 -122.5q83 -77 184 -122.5t213 -45.5q111 0 214 45.5t183 122.5q58 60 92 125t50.5 152.5t21 206.5t4.5 286z" />
    <glyph glyph-name="P" unicode="P" horiz-adv-x="1753" 
d="M1671 1479q0 -140 -48 -249t-133 -184t-202.5 -114t-255.5 -39h-610v-893h-135v2068h745q138 0 255.5 -38t202.5 -112t133 -184.5t48 -254.5zM1536 1479q0 121 -38.5 211t-106 149.5t-159.5 89t-200 29.5h-610v-950h610q109 0 201.5 29t159.5 88t105 147t38 207z" />
    <glyph glyph-name="Q" unicode="Q" horiz-adv-x="1790" 
d="M1589 1032q0 -152 -3 -269t-16 -208.5t-38 -163.5t-70 -133l295 -278l-49 -46q-6 -12 -17.5 -23t-23.5 -17l-291 270q-48 -45 -104.5 -80t-118.5 -59t-128 -37t-132 -13q-142 0 -272 55.5t-232 157.5q-46 47 -78 95.5t-52.5 103t-32.5 118t-17.5 141.5t-6.5 173t-1 213
q0 119 1 214.5t6.5 173.5t17.5 141t32.5 117t52.5 101t78 93q102 105 232 159t272 54q145 0 277 -54t231 -159q46 -46 78 -93t52.5 -101t32.5 -117t17.5 -141t6.5 -173.5t1 -214.5zM1458 1032q0 112 -1.5 201.5t-7.5 162.5t-16.5 131t-29.5 107t-46.5 90.5t-66.5 81.5
q-80 78 -183 121t-214 43q-112 0 -213 -43t-184 -121q-38 -40 -65 -81.5t-45 -90t-29 -106t-16.5 -130.5t-7 -163t-1.5 -203q0 -169 4 -288.5t20.5 -207t49.5 -152t90 -122.5q83 -77 184 -122.5t213 -45.5q52 0 104.5 12t102.5 33t96 50.5t86 64.5l-266 262l41 41
q9 12 23 26t26 23l258 -254q32 52 51 114t28.5 142t12 183.5t2.5 240.5z" />
    <glyph glyph-name="R" unicode="R" horiz-adv-x="1880" 
d="M1569 0l-520 967h-627v-967h-135v2068h815q129 0 239 -35t191 -104t126.5 -171.5t45.5 -237.5q0 -109 -36.5 -201t-103 -163t-159.5 -119.5t-205 -69.5l524 -967h-155zM1573 1520q0 106 -37 187.5t-101 137t-150.5 84.5t-186.5 29h-676v-881h659q95 0 184 31t157.5 89
t109.5 139.5t41 183.5z" />
    <glyph glyph-name="S" unicode="S" horiz-adv-x="1577" 
d="M1458 549q0 -131 -47 -237t-135.5 -181t-215 -115.5t-286.5 -40.5q-111 0 -203.5 17t-174 50.5t-154.5 83.5t-144 116l99 106q70 -71 137 -118t137.5 -75.5t147.5 -40.5t167 -12q123 0 221.5 29.5t168 86t106.5 139t37 188.5q0 101 -34 173.5t-91.5 121.5t-132.5 78.5
t-156 44.5l-237 32q-114 20 -210.5 62t-167.5 107.5t-111 155t-40 204.5q0 132 44 237t125.5 177.5t198.5 111.5t263 39q91 0 169 -12.5t148 -39t134 -66.5t127 -95l-86 -94q-51 43 -103.5 78t-112.5 60.5t-130.5 39.5t-157.5 14q-112 0 -201.5 -31t-152.5 -88.5
t-96.5 -139.5t-33.5 -183q0 -88 35.5 -157t94 -120t133.5 -84.5t155 -48.5l226 -37q126 -20 226 -59.5t169.5 -104t107 -156.5t37.5 -216z" />
    <glyph glyph-name="T" unicode="T" horiz-adv-x="1495" 
d="M807 1954v-1954h-135v1954h-643v114h1433v-114h-655z" />
    <glyph glyph-name="U" unicode="U" horiz-adv-x="1901" 
d="M1642 713q0 -158 -47.5 -292.5t-137 -232.5t-218 -153t-289.5 -55q-160 0 -288 55t-218 153t-138 232.5t-48 292.5v1355h135v-1355q0 -134 39 -246t112 -193t175.5 -126.5t230.5 -45.5q135 0 239 44.5t174.5 125.5t107 193.5t36.5 247.5v1355h135v-1355z" />
    <glyph glyph-name="V" unicode="V" horiz-adv-x="1716" 
d="M922 0h-123l-705 2068h139l627 -1855l623 1855h139z" />
    <glyph glyph-name="W" unicode="W" horiz-adv-x="2589" 
d="M1962 0h-107l-561 1823l-557 -1823h-110l-533 2068h135l455 -1802l557 1802h111l549 -1806l454 1806h139z" />
    <glyph glyph-name="X" unicode="X" horiz-adv-x="1561" 
d="M1348 0l-570 934l-577 -934h-152l651 1057l-606 1011h156l528 -880l529 880h151l-598 -1011l647 -1057h-159z" />
    <glyph glyph-name="Y" unicode="Y" horiz-adv-x="1597" 
d="M864 856v-856h-131v856l-639 1212h152l557 -1077l549 1077h151z" />
    <glyph glyph-name="Z" unicode="Z" horiz-adv-x="1642" 
d="M176 0v115l1139 1843h-1094v110h1249v-98l-1138 -1859h1138v-111h-1294z" />
    <glyph glyph-name="bracketleft" unicode="[" horiz-adv-x="897" 
d="M311 -238v2773h439v-110h-312v-2556h312v-107h-439z" />
    <glyph glyph-name="backslash" unicode="\" horiz-adv-x="1053" 
d="M918 -238l-918 2773h131l922 -2773h-135z" />
    <glyph glyph-name="bracketright" unicode="]" horiz-adv-x="897" 
d="M152 -238v107h311v2556h-311v110h438v-2773h-438z" />
    <glyph glyph-name="asciicircum" unicode="^" horiz-adv-x="1622" 
d="M1237 1151l-430 799l-422 -799h-131l487 917h136l487 -917h-127z" />
    <glyph glyph-name="underscore" unicode="_" horiz-adv-x="1659" 
d="M0 -496v86h1659v-86h-1659z" />
    <glyph glyph-name="grave" unicode="`" horiz-adv-x="1573" 
d="M762 1692q-78 111 -160 216.5t-160 217.5h168l291 -434h-139z" />
    <glyph glyph-name="braceleft" unicode="{" horiz-adv-x="983" 
d="M795 -238q-109 0 -181.5 17t-116 59t-61.5 114t-18 183v684q0 66 -11.5 114.5t-37.5 82t-67 53.5t-101 29h-41v98h41q60 8 101 28.5t67 54.5t37.5 82.5t11.5 113.5v684q0 111 18 183.5t61.5 115t116 60t181.5 17.5h24v-110h-20q-88 0 -138.5 -9.5t-76 -38.5t-32.5 -82
t-7 -141v-684q0 -57 -11.5 -104t-36.5 -87t-64.5 -73.5t-96.5 -62.5q57 -28 96.5 -60t64.5 -71t36.5 -85.5t11.5 -103.5v-684q0 -87 6 -140.5t31.5 -82t76.5 -38t140 -9.5h20v-107h-24z" />
    <glyph glyph-name="bar" unicode="|" horiz-adv-x="983" 
d="M426 -238v2773h127v-2773h-127z" />
    <glyph glyph-name="braceright" unicode="}" horiz-adv-x="983" 
d="M160 -238v107h20q89 0 140 9.5t76.5 38t31.5 82t6 140.5v684q0 57 10.5 103.5t35.5 85.5t64.5 71t98.5 60q-59 29 -98.5 62.5t-64.5 73.5t-35.5 87t-10.5 104v684q0 88 -7 141t-32.5 82t-76 38.5t-138.5 9.5h-20v110h24q109 0 181.5 -17.5t116 -60t61.5 -115t18 -183.5
v-684q0 -65 11 -113.5t36 -82.5t66.5 -54.5t103.5 -28.5h41v-98h-41q-62 -9 -103.5 -29t-66.5 -53.5t-36 -82t-11 -114.5v-684q0 -111 -18 -183t-61.5 -114t-116 -59t-181.5 -17h-24z" />
    <glyph glyph-name="asciitilde" unicode="~" horiz-adv-x="1622" 
d="M1438 893q-62 -59 -108.5 -94t-85.5 -54.5t-74.5 -25.5t-75.5 -6q-34 0 -73.5 9.5t-82 24.5t-85.5 33l-83 35q-74 34 -132.5 54t-117.5 20q-37 0 -66.5 -5t-59.5 -20t-64 -42.5t-80 -71.5l-74 69q61 61 108 97t87 54.5t77 23.5t80 5q65 0 140 -26t155 -60l76 -34.5
t70 -29t66.5 -19.5t66.5 -7q32 0 60.5 5t58.5 20t64 42.5t79 72.5z" />
    <glyph glyph-name="a" unicode="a" horiz-adv-x="1520" 
d="M1159 0v193q-46 -59 -99 -99.5t-114 -65.5t-130.5 -36.5t-147.5 -11.5q-122 0 -223.5 23t-174.5 74.5t-114 135t-41 205.5q0 103 35 185.5t102.5 140.5t164.5 89t222 31h520v193q0 98 -25 173.5t-80 127t-142.5 78t-211.5 26.5q-77 0 -138 -11t-112.5 -33.5t-96 -57
t-87.5 -82.5l-94 74q58 63 116.5 105.5t121.5 68t134.5 36.5t155.5 11q151 0 261.5 -33t182.5 -97.5t107 -158.5t35 -215v-1069h-127zM1159 750h-504q-210 0 -313.5 -81t-103.5 -251q0 -166 104.5 -247t325.5 -81q100 0 189 26.5t156 81.5t106.5 139t39.5 200v213z" />
    <glyph glyph-name="b" unicode="b" horiz-adv-x="1614" 
d="M1458 774q0 -99 -12 -196.5t-39 -186t-71.5 -163.5t-110.5 -130.5t-154 -86.5t-203 -31q-63 0 -129 11t-130.5 41t-124.5 82.5t-111 135.5v-250h-127v2257h127v-954q52 86 113 139t125.5 82t130 39t126.5 10q116 0 204.5 -31.5t154 -86.5t110 -130.5t71.5 -164.5
t38.5 -187.5t11.5 -198.5zM1327 774q0 86 -8.5 170t-29.5 160t-56 141t-89 112t-128 74t-172 27q-94 0 -165.5 -27.5t-124 -76t-87.5 -114t-56 -141.5t-29.5 -159t-8.5 -166q0 -82 9 -164.5t30 -158t57 -140.5t90 -113.5t128.5 -76t172.5 -27.5q94 0 165.5 28t123.5 76.5
t86 114.5t54.5 141.5t29 157t8.5 162.5z" />
    <glyph glyph-name="c" unicode="c" horiz-adv-x="1405" 
d="M1294 205q-60 -66 -114 -109.5t-110 -69t-118 -36t-137 -10.5q-153 0 -275.5 55.5t-207.5 159t-130.5 250t-45.5 329.5q0 186 45.5 334t130.5 251.5t207.5 158.5t275.5 55q74 0 136 -11t119 -36t111.5 -67t112.5 -103q-12 -14 -23 -24t-21.5 -18.5t-20.5 -18t-21 -21.5
q-49 55 -93.5 91.5t-90.5 58t-97 30t-112 8.5q-146 0 -248 -54t-166 -147t-93 -218.5t-29 -268.5q0 -140 29 -264.5t93 -217.5t166 -147.5t248 -54.5q60 0 110.5 8t97 30t91.5 59t94 96z" />
    <glyph glyph-name="d" unicode="d" horiz-adv-x="1614" 
d="M156 774q0 100 11.5 198.5t38.5 187.5t71 164.5t109 130.5t152.5 86.5t202.5 31.5q63 0 129.5 -10t131.5 -39t126 -82t113 -139v954h127v-2257h-127v250q-51 -83 -111 -135.5t-125 -82.5t-132.5 -41t-131.5 -11q-114 0 -201 31t-152 86.5t-109.5 130.5t-71.5 163.5
t-39 186t-12 196.5zM283 774q0 -81 8.5 -162.5t29.5 -157t56 -141.5t87.5 -114.5t124 -76.5t165.5 -28q98 0 172.5 27.5t128.5 76t90 113.5t57 140.5t30 158t9 164.5q0 83 -8.5 166t-29.5 159t-56 141.5t-87.5 114t-124 76t-165.5 27.5q-98 0 -172.5 -27t-128.5 -74
t-90 -112t-57 -141t-30 -160t-9 -170z" />
    <glyph glyph-name="e" unicode="e" horiz-adv-x="1532" 
d="M291 758q0 -160 33.5 -283.5t99.5 -208t164 -128.5t227 -44q71 0 130.5 11t112 34t100 57.5t95.5 82.5q22 -22 43.5 -39l42.5 -35q-55 -59 -110 -101t-117.5 -70t-136.5 -41t-168 -13q-158 0 -278.5 51.5t-201.5 152t-122 248.5t-41 342q0 187 40.5 335.5t117.5 251.5
t189 157.5t255 54.5t256 -51.5t192 -149t120.5 -238.5t41.5 -319v-57h-1085zM1245 860q3 79 -9.5 154.5t-39.5 142t-68 123t-95 97t-121 63t-146 22.5t-144.5 -24.5t-118.5 -67.5t-92.5 -101t-66 -125t-40 -139.5t-13.5 -144.5h954z" />
    <glyph glyph-name="f" unicode="f" horiz-adv-x="811" 
d="M418 1462v-1462h-123v1462h-209v94h209v312q0 84 22 155.5t66.5 123.5t110.5 81t153 29h127v-107h-94q-135 0 -198.5 -73t-63.5 -205v-316h356v-94h-356z" />
    <glyph glyph-name="g" unicode="g" horiz-adv-x="1602" 
d="M1356 -123q0 -146 -42 -269t-123 -212.5t-198.5 -140t-267.5 -50.5q-86 0 -154 12.5t-126.5 36.5t-111.5 60t-108 84l86 82q43 -39 86.5 -69.5t93 -51.5t106.5 -32t128 -11q130 0 225.5 45t157 122t91.5 178.5t30 215.5v352q-59 -84 -121 -133.5t-125 -75t-125.5 -33
t-120.5 -7.5q-115 0 -202 31t-151 86t-107 130t-69 163t-37 186t-11 198q0 102 10.5 201.5t36 188t68.5 163.5t107 130t151.5 85.5t203.5 30.5q63 0 129.5 -10t130.5 -38.5t123.5 -81t108.5 -136.5v249h127v-1679zM1229 774q0 86 -9.5 170.5t-31.5 161.5t-59 143t-91.5 114
t-129 75.5t-171.5 27.5q-92 0 -161 -27t-119 -75t-83 -113.5t-52 -142.5t-27 -162t-8 -172q0 -84 7 -167.5t25 -159.5t50 -141t82 -113t120.5 -75.5t165.5 -27.5q99 0 174.5 27.5t130 75.5t90.5 113t57.5 141t30.5 159.5t9 167.5z" />
    <glyph glyph-name="h" unicode="h" horiz-adv-x="1634" 
d="M1278 0v999q0 111 -30.5 197t-86 145t-134 90t-175.5 31q-98 0 -185.5 -38t-152.5 -104.5t-103 -158t-38 -198.5v-963h-127v2257h127v-946q99 136 219.5 199t259.5 63q127 0 229.5 -39.5t174.5 -113.5t110.5 -180.5t38.5 -240.5v-999h-127z" />
    <glyph glyph-name="i" unicode="i" horiz-adv-x="725" 
d="M295 0v1556h127v-1556h-127zM250 2150q0 23 8.5 43.5t23 35.5t34 23.5t40.5 8.5q22 0 42 -8.5t35.5 -23.5t24.5 -35.5t9 -43.5q0 -21 -9 -40.5t-24.5 -34t-35.5 -23t-42 -8.5q-21 0 -40.5 8.5t-34 23t-23 34t-8.5 40.5z" />
    <glyph glyph-name="j" unicode="j" horiz-adv-x="725" 
d="M426 -356q0 -88 -21.5 -158.5t-65.5 -120t-110 -76t-155 -26.5h-123v102h90q75 0 125 17.5t79.5 53t41.5 88.5t12 124v1908h127v-1912zM254 2150q0 23 8.5 43.5t23 35.5t34 23.5t40.5 8.5q22 0 42 -8.5t35.5 -23.5t24.5 -35.5t9 -43.5q0 -21 -9 -40.5t-24.5 -34
t-35.5 -23t-42 -8.5q-21 0 -40.5 8.5t-34 23t-23 34t-8.5 40.5z" />
    <glyph glyph-name="k" unicode="k" horiz-adv-x="1532" 
d="M1294 0l-544 889l-377 -443v-446h-127v2257h127v-1630l794 929h160l-487 -573l610 -983h-156z" />
    <glyph glyph-name="l" unicode="l" horiz-adv-x="754" 
d="M606 0q-92 0 -160 28t-112.5 80t-66 125.5t-21.5 163.5v1860h127v-1856q0 -71 12 -125t41.5 -90.5t79.5 -55.5t125 -19h94v-111h-119z" />
    <glyph glyph-name="m" unicode="m" horiz-adv-x="2658" 
d="M2310 0v967q0 120 -29.5 212t-86.5 155t-140 95.5t-190 32.5q-102 0 -186 -37t-145 -103t-94.5 -157t-33.5 -198v-967h-127v967q0 239 -115 367t-336 128q-100 0 -183.5 -37t-143.5 -103t-93.5 -157t-33.5 -198v-967h-127v1556h127v-237q40 63 93.5 110.5t116 79.5
t132 48t141.5 16q164 0 291.5 -80t208.5 -231q40 78 95.5 136.5t123.5 97t146.5 58t162.5 19.5q127 0 229 -41t173 -119t109 -190.5t38 -255.5v-967h-123z" />
    <glyph glyph-name="n" unicode="n" horiz-adv-x="1634" 
d="M1278 0v991q0 115 -29 203t-84.5 147.5t-137 90t-187.5 30.5q-95 0 -180 -37t-149 -103t-101 -157t-37 -198v-967h-127v1556h127v-237q45 64 99.5 112t116 79.5t128 47t135.5 15.5q127 0 229.5 -40.5t174.5 -116.5t110.5 -183.5t38.5 -241.5v-991h-127z" />
    <glyph glyph-name="o" unicode="o" horiz-adv-x="1569" 
d="M1405 774q0 -99 -14.5 -196.5t-45.5 -186t-80 -163.5t-118.5 -130.5t-161 -86.5t-207.5 -31t-206.5 31t-159.5 86.5t-117 130.5t-78 163.5t-43.5 186t-13.5 196.5q0 100 13.5 198.5t43 187.5t77.5 164.5t116.5 130.5t159.5 86.5t208 31.5t208.5 -31.5t161.5 -86.5
t118.5 -130.5t79.5 -164.5t45 -187.5t14 -198.5zM1274 774q0 82 -9 165t-30.5 159.5t-58 142.5t-91.5 115.5t-131 77.5t-176 28q-98 0 -173 -28t-130 -77.5t-92 -115.5t-59 -142.5t-31.5 -159.5t-9.5 -165q0 -81 10 -163t33 -158t60.5 -142t92.5 -115.5t129 -77.5t170 -28
q99 0 174.5 28t131 76.5t92 114.5t58.5 142t31 158.5t9 164.5z" />
    <glyph glyph-name="p" unicode="p" horiz-adv-x="1614" 
d="M1458 782q0 -100 -11.5 -198t-38.5 -187t-71.5 -164.5t-110 -130.5t-154 -86.5t-204.5 -31.5q-61 0 -126.5 10t-130 39t-125.5 82t-113 139v-954h-127v2256h127v-249q51 83 111 135t124.5 81t130.5 39.5t129 10.5q115 0 203 -31t154 -85.5t110.5 -129.5t71.5 -163
t39 -185.5t12 -196.5zM1327 782q0 81 -8.5 162.5t-29 156.5t-54.5 140.5t-86 113.5t-123.5 75.5t-165.5 27.5q-98 0 -172.5 -27.5t-128.5 -75t-90 -112.5t-57 -140t-30 -157t-9 -164q0 -83 8.5 -166t29.5 -159.5t56 -142.5t87.5 -115t124 -77t165.5 -28q98 0 172 27t128 75
t89 113t56 141.5t29.5 161t8.5 170.5z" />
    <glyph glyph-name="q" unicode="q" horiz-adv-x="1614" 
d="M156 782q0 99 12 196.5t39 185.5t71.5 163t109.5 129.5t152 85.5t201 31q64 0 131.5 -10.5t132.5 -39.5t125 -81t111 -135v249h127v-2256h-127v954q-52 -86 -113 -139t-126 -82t-131.5 -39t-129.5 -10q-115 0 -202.5 31.5t-152.5 86.5t-109 130.5t-71 164.5t-38.5 187
t-11.5 198zM283 782q0 -86 9 -170.5t30 -161t57 -141.5t90 -113t128.5 -75t172.5 -27q94 0 165.5 28t124 77t87.5 115t56 142.5t29.5 159.5t8.5 166q0 82 -9 164t-30 157t-57 140t-90 112.5t-128.5 75t-172.5 27.5q-94 0 -165.5 -27.5t-124 -75.5t-87.5 -113.5t-56 -140.5
t-29.5 -156.5t-8.5 -162.5z" />
    <glyph glyph-name="r" unicode="r" horiz-adv-x="1032" 
d="M999 1425q-37 22 -78.5 29.5t-84.5 7.5q-100 0 -185 -42.5t-146.5 -112.5t-96.5 -161t-35 -188v-958h-127v1556h127v-262q40 66 94.5 118t117 87.5t130 54.5t133.5 19q62 0 121 -10t108 -35z" />
    <glyph glyph-name="s" unicode="s" horiz-adv-x="1343" 
d="M1233 434q0 -106 -40 -191t-114 -144.5t-179.5 -91.5t-235.5 -32q-180 0 -318.5 48.5t-247.5 156.5q14 14 24.5 26.5l20.5 25l19.5 25t21.5 26.5q177 -189 475 -189q108 0 191.5 22t141.5 65t88 106.5t30 146.5q0 129 -72 196.5t-223 86.5l-237 24q-204 25 -313 124
t-109 270q0 101 35.5 182t101.5 138t160 87.5t211 30.5q142 0 266.5 -37t220.5 -115l-90 -86q-87 65 -186.5 96t-210.5 31q-92 0 -164 -23t-121 -65.5t-74.5 -103t-25.5 -135.5q0 -124 77.5 -191.5t229.5 -83.5l233 -29q83 -11 158 -32.5t132 -66t90.5 -116t33.5 -182.5z
" />
    <glyph glyph-name="t" unicode="t" horiz-adv-x="877" 
d="M643 0q-87 0 -153.5 30t-111.5 83t-68 127t-23 161v1061h-213v94h213v496h127v-496h348v-94h-348v-1065q0 -132 56 -209t173 -77h119v-111h-119z" />
    <glyph glyph-name="u" unicode="u" horiz-adv-x="1634" 
d="M352 1556v-991q0 -115 29.5 -203t86 -147.5t139 -90t188.5 -30.5q95 0 179 36.5t147 102.5t99.5 157t36.5 200v966h127v-1556h-127v233q-89 -126 -212 -187.5t-263 -61.5q-129 0 -232 40.5t-175.5 116.5t-111 183t-38.5 241v991h127z" />
    <glyph glyph-name="v" unicode="v" horiz-adv-x="1454" 
d="M791 0h-132l-561 1556h140l487 -1429l487 1429h140z" />
    <glyph glyph-name="w" unicode="w" horiz-adv-x="2363" 
d="M1778 0h-136l-458 1376l-459 -1376h-135l-496 1556h144l417 -1425l463 1425h131l463 -1425l414 1425h143z" />
    <glyph glyph-name="x" unicode="x" horiz-adv-x="1311" 
d="M1081 0l-422 684l-426 -684h-155l516 795l-492 761h152l405 -655l398 655h155l-491 -761l508 -795h-148z" />
    <glyph glyph-name="y" unicode="y" horiz-adv-x="1454" 
d="M639 -426q-46 -133 -144.5 -203.5t-240.5 -70.5h-57v110h36q69 0 118 13t84 40.5t59.5 71t46.5 105.5l127 340l-570 1576h140l487 -1429l487 1429h140z" />
    <glyph glyph-name="z" unicode="z" horiz-adv-x="1380" 
d="M152 0v131l962 1311h-909v114h1024v-135l-959 -1310h959v-111h-1077z" />
    <glyph glyph-name="saraithai.alt1" 
d="M-1311 2138h1065v-115h-1065v115z" />
    <glyph glyph-name="saraiithai.alt1" 
d="M-1311 2138h938v299h127v-414h-1065v115z" />
    <glyph glyph-name="sarauethai.alt1" 
d="M-1311 2023v115h635q-8 9 -16.5 24t-15.5 32.5t-12 37t-5 37.5q0 52 19.5 97.5t53 79.5t78 53.5t95.5 19.5q52 0 97.5 -19.5t79.5 -53.5t53.5 -79.5t19.5 -97.5q0 -51 -19.5 -95.5t-53.5 -78t-79.5 -53t-97.5 -19.5h-832zM-610 2269q0 -28 10.5 -52t28.5 -41.5t42 -27.5
t50 -10q29 0 54.5 10t44 27.5t29.5 41.5t11 52q0 29 -11 54t-29.5 43t-44 28t-54.5 10q-26 0 -50 -10t-42 -28t-28.5 -43t-10.5 -54z" />
    <glyph glyph-name="saraueethai.alt1" 
d="M-1311 2138h606v311h127v-311h205v311h127v-426h-1065v115z" />
    <glyph glyph-name="saraithai.alt2" 
d="M-1958 2138h1487v-115h-1487v115z" />
    <glyph glyph-name="saraiithai.alt2" 
d="M-1958 2138h1360v311h127v-426h-1487v115z" />
    <glyph glyph-name="sarauethai.alt2" 
d="M-1958 2023v115h1077q-8 9 -16.5 24t-15.5 32.5t-12 37t-5 37.5q0 52 19.5 97.5t53 79.5t78 53.5t95.5 19.5q52 0 97.5 -19.5t79.5 -53.5t53.5 -79.5t19.5 -97.5q0 -51 -19.5 -95.5t-53.5 -78t-79.5 -53t-97.5 -19.5h-1274zM-815 2269q0 -28 10.5 -52t28.5 -41.5
t42 -27.5t50 -10q29 0 54.5 10t44 27.5t29.5 41.5t11 52q0 29 -11 54t-29.5 43t-44 28t-54.5 10q-26 0 -50 -10t-42 -28t-28.5 -43t-10.5 -54z" />
    <glyph glyph-name="saraueethai.alt2" 
d="M-1958 2138h1028v311h127v-311h205v311h127v-426h-1487v115z" />
    <glyph glyph-name="maiekthai.alt2" 
d="M-598 2980h127v-297h-127v297z" />
    <glyph glyph-name="maithothai.alt2" 
d="M-131 2785v-102h-803v90l98 16q20 3 42 16t40 34.5t29.5 51t11.5 66.5q0 123 -155 123v107q129 -3 201.5 -59t72.5 -167q0 -37 -15.5 -83t-62.5 -93h541z" />
    <glyph glyph-name="maitrithai.alt2" 
d="M-229 2777v-94h-344v238q0 48 -12 81t-29.5 54.5t-36.5 32.5t-33 16l-143 -156q-42 -46 -90 0l-176 160q-56 -22 -83.5 -69t-27.5 -103q0 -32 10.5 -62.5t31 -54t50 -37.5t68.5 -14v-98h-4q-62 0 -112 22.5t-85 58t-54.5 80t-19.5 89.5q0 57 16 100.5t41 76.5t55.5 56.5
t59.5 40.5q8 4 20.5 8.5t28 5t32.5 -5t34 -20.5l156 -139l135 143q12 14 27 18.5t29.5 4t27.5 -5.5t22 -9q32 -15 64 -38t57 -56t40.5 -77.5t15.5 -102.5v-144h229z" />
    <glyph glyph-name="maichattawathai.alt2" 
d="M-844 2904v102h250v230h119v-230h250v-102h-250v-221h-119v221h-250z" />
    <glyph glyph-name="saraithai.alt3" 
d="M-1958 2138h1712v-115h-1712v115z" />
    <glyph glyph-name="saraiithai.alt3" 
d="M-1958 2138h1585v299h127v-414h-1712v115z" />
    <glyph glyph-name="sarauethai.alt3" 
d="M-1958 2023v115h1282q-8 9 -16.5 24t-15.5 32.5t-12 37t-5 37.5q0 52 19.5 97.5t53 79.5t78 53.5t95.5 19.5q52 0 97.5 -19.5t79.5 -53.5t53.5 -79.5t19.5 -97.5q0 -51 -19.5 -95.5t-53.5 -78t-79.5 -53t-97.5 -19.5h-1479zM-610 2269q0 -28 10.5 -52t28.5 -41.5
t42 -27.5t50 -10q29 0 54.5 10t44 27.5t29.5 41.5t11 52q0 29 -11 54t-29.5 43t-44 28t-54.5 10q-26 0 -50 -10t-42 -28t-28.5 -43t-10.5 -54z" />
    <glyph glyph-name="saraueethai.alt3" 
d="M-1958 2138h1253v299h127v-299h205v299h127v-414h-1712v115z" />
    <glyph glyph-name="maiekthai.alt3" 
d="M-373 2980h127v-397h-127v397z" />
    <glyph glyph-name="maithothai.alt3" 
d="M-200 2685v-102h-803v90q18 2 36 5q15 2 32 5t31 6q20 3 41.5 15t39.5 32t30 48t12 65q0 62 -39.5 96.5t-116.5 34.5v107q129 -3 201.5 -55t72.5 -162q0 -38 -15.5 -88t-61.5 -97h540z" />
    <glyph glyph-name="maitrithai.alt3" 
d="M-199 2677v-94h-355v237q0 48 -12 81t-29 54.5t-36 33t-33 16.5l-144 -156q-41 -49 -90 0l-176 160q-56 -22 -83 -69t-27 -103q0 -32 10.5 -62.5t30.5 -54t50 -37.5t68 -14v-98h-4q-62 0 -111.5 22.5t-85 58t-54.5 80t-19 88.5q0 57 16 101t41 77t55.5 56.5t59.5 40.5
q7 4 20 8.5t28.5 5t32.5 -5t34 -20.5l155 -140l135 144q12 14 27 18.5t29.5 4t28 -5.5t22.5 -9q32 -15 63.5 -38t56.5 -56t40.5 -78t15.5 -103v-143h240z" />
    <glyph glyph-name="maichattawathai.alt3" 
d="M-614 2804v102h249v230h119v-230h250v-102h-250v-221h-119v221h-249z" />
    <glyph glyph-name="saraithai.alt4" 
d="M-1524 2138h1229v-115h-1229v115z" />
    <glyph glyph-name="saraiithai.alt4" 
d="M-1524 2138h1102v299h127v-414h-1229v115z" />
    <glyph glyph-name="thanthakhatthai.alt4" 
d="M-631 1962q1 80 22.5 128.5t54 74.5t73 34.5t80.5 8.5h278v-107h-258q-38 0 -62 -8.5t-37.5 -26t-18.5 -43.5t-5 -61h-127z" />
    <glyph glyph-name="zero.alt1" horiz-adv-x="1454" 
d="M1290 537q0 -122 -41 -223.5t-115 -174.5t-177.5 -114t-227.5 -41q-126 0 -230 41t-178.5 114t-115.5 174.5t-41 223.5v593q0 123 41 223.5t115.5 172t178.5 110.5t230 39q124 0 227.5 -39t177.5 -110.5t115 -172t41 -223.5v-593zM1155 1118q0 95 -27.5 176t-81 140.5
t-133 93t-184.5 33.5q-106 0 -187 -33.5t-136 -93t-83 -140.5t-28 -176v-573q0 -92 28 -173t83 -141t136 -94.5t187 -34.5q105 0 184.5 34.5t133 94.5t81 141t27.5 173v573z" />
    <glyph glyph-name="one.alt1" horiz-adv-x="1249" 
d="M668 0v1516l-418 -353v156l409 336h144v-1655h-135z" />
    <glyph glyph-name="two.alt1" horiz-adv-x="1454" 
d="M213 0v115l709 684q86 86 137 186t51 211q0 75 -29.5 143t-81.5 119t-122.5 81t-151.5 30q-75 0 -143.5 -28t-121 -77.5t-84 -118t-32.5 -149.5h-127q1 101 39.5 188.5t105.5 152t159.5 101.5t203.5 37q118 0 213 -37.5t161.5 -102.5t102 -152t35.5 -187
q0 -141 -55.5 -255t-153.5 -212l-639 -614h901v-115h-1077z" />
    <glyph glyph-name="three.alt1" horiz-adv-x="1454" 
d="M1294 139q0 -140 -46 -246.5t-127 -179.5t-193 -110t-244 -37q-125 0 -232.5 32t-188.5 96.5t-132 160t-61 223.5h139q12 -109 57 -184t110 -121.5t145 -67t163 -20.5q100 0 186.5 30.5t150.5 89t101 143t37 191.5q0 109 -27.5 194.5t-87 144t-151.5 89.5t-221 31h-25
v115h25q230 0 340 110t110 316q0 107 -34 187.5t-93.5 134.5t-140 81t-174.5 27q-97 0 -174 -25.5t-133 -74t-90.5 -118.5t-44.5 -159h-140q17 120 67.5 211t127 152.5t175 92.5t212.5 31q129 0 234 -36.5t179.5 -106t115 -170t40.5 -227.5q0 -71 -13 -139t-45 -129.5
t-86.5 -114t-137.5 -92.5q90 -32 152.5 -84t101.5 -120t56 -149t17 -172z" />
    <glyph glyph-name="four.alt1" horiz-adv-x="1454" 
d="M1073 0v-344h-135v344h-868v111l802 1613h144l-807 -1609h729v663h135v-663h299v-115h-299z" />
    <glyph glyph-name="five.alt1" horiz-adv-x="1454" 
d="M1315 262q-2 -155 -34 -283.5t-101 -220t-178.5 -142t-264.5 -50.5q-114 0 -211 30.5t-170.5 89t-120.5 145t-59 198.5h131q12 -81 44.5 -145t86 -108.5t128 -67.5t171.5 -23q126 0 211 47t136.5 126.5t73.5 184t22 219.5q0 66 -6.5 134.5t-24 132.5t-46.5 120
t-74.5 97.5t-108 65.5t-146.5 24q-72 0 -140.5 -17t-126.5 -46.5t-102.5 -70t-68.5 -88.5h-103v1045h1029v-111h-902v-749q83 76 184 107.5t230 31.5q103 0 183.5 -25.5t140.5 -71.5t101.5 -109t67 -138t37 -159.5t11.5 -172.5z" />
    <glyph glyph-name="six.alt1" horiz-adv-x="1454" 
d="M1315 606q0 -129 -39 -242.5t-114.5 -197.5t-185.5 -133t-251 -49q-140 0 -249.5 45t-185.5 125.5t-115.5 190.5t-39.5 241q0 200 123 458l541 1024h135l-492 -933q39 21 75.5 35.5t72.5 22.5t72.5 11.5t74.5 3.5q138 0 246 -47t181.5 -128t112 -191t38.5 -236zM1184 594
q-2 103 -30.5 195t-84 161.5t-138.5 110.5t-194 41q-101 0 -187.5 -36t-149.5 -102.5t-98.5 -160.5t-35.5 -209q0 -111 32.5 -203t92.5 -158t144.5 -102.5t189.5 -36.5q101 0 185.5 37t145 103.5t94.5 158.5t34 201z" />
    <glyph glyph-name="seven.alt1" horiz-adv-x="1454" 
d="M565 -410h-135l774 1958h-856v-323h-135v434h1130v-115z" />
    <glyph glyph-name="eight.alt1" horiz-adv-x="1454" 
d="M1343 553q0 -123 -46.5 -227.5t-128.5 -180t-194.5 -118.5t-244.5 -43t-245 43t-196 118.5t-130 180t-47 227.5q0 89 24 167t69 144t109.5 119.5t145.5 93.5q-154 83 -226.5 203t-72.5 276q0 117 41 214.5t116 167t179.5 108.5t232.5 39q126 0 230 -39t178.5 -108.5
t115.5 -167t41 -214.5q0 -154 -74.5 -274.5t-220.5 -204.5q80 -35 143.5 -88t108 -120t68.5 -147t24 -169zM1159 1556q0 92 -31.5 169.5t-88.5 133.5t-136 87.5t-174 31.5q-97 0 -177.5 -31.5t-138.5 -87.5t-90 -133.5t-32 -169.5q0 -93 32 -170.5t90 -133t138.5 -86.5
t177.5 -31q95 0 174 31t136 86.5t88.5 133t31.5 170.5zM1204 553q0 98 -37 183.5t-101 148.5t-150.5 99t-186.5 36t-187 -36t-152 -99t-102.5 -148.5t-37.5 -183.5q0 -95 37.5 -179t102.5 -146t152 -98t187 -36t186.5 36t150.5 98t101 146t37 179z" />
    <glyph glyph-name="nine.alt1" horiz-adv-x="1454" 
d="M135 1053q0 129 40 242.5t116 197.5t186.5 133t251.5 49q140 0 249 -45.5t184 -126.5t114 -191t39 -239q0 -102 -30.5 -217t-92.5 -242l-537 -1024h-139l492 930q-77 -43 -147.5 -56t-143.5 -13q-138 0 -246.5 46t-183 127t-113.5 191t-39 238zM270 1065
q1 -105 29 -197.5t83.5 -161.5t139 -109t195.5 -40q101 0 186.5 36t148 102.5t97.5 160.5t35 209q0 109 -32.5 201t-92 158.5t-143.5 103.5t-187 37t-188 -37t-146 -103.5t-94 -158.5t-31 -201z" />
    <glyph glyph-name="maitaikhuthai.alt1" 
d="M-926 2552q-49 0 -86.5 -20.5t-62.5 -51.5t-38 -66.5t-13 -66.5q0 -74 37.5 -132t105.5 -89l184 143q19 16 39.5 16t38.5 -16l193 -143q29 14 52 33t38 44.5t20.5 59t-0.5 76.5h115q6 -59 -9 -112.5t-48 -97.5t-81 -75t-108 -43l-213 164l-209 -160q-57 17 -106 45
t-85.5 69t-57.5 95t-21 123q0 55 21.5 109t62.5 97t99 70.5t132 30.5h697v-102h-697z" />
    <glyph glyph-name="maihanakatthai.alt2" 
d="M-999 2281q0 -77 29 -110t81 -33h1086v-110h-1090q-40 0 -80 11t-72.5 39t-54 77t-22.5 126h123z" />
    <glyph glyph-name="maiekthai.alt7" 
d="M-737 2966h127v-488h-127v488z" />
    <glyph glyph-name="maithothai.alt7" 
d="M-606 2580v-102h-787v90l99 17q20 3 41.5 15.5t39.5 34t30 51.5t12 67q0 61 -39.5 91.5t-116.5 30.5v107q130 -3 202 -58.5t72 -166.5q0 -38 -15.5 -84t-61.5 -93h524z" />
    <glyph glyph-name="maitrithai.alt7" 
d="M-598 2572v-94h-344v238q0 48 -12 81t-29.5 54.5t-36.5 32.5t-33 16l-143 -156q-42 -46 -90 0l-176 160q-56 -22 -83.5 -69t-27.5 -103q0 -32 10.5 -62.5t31 -54t50 -37.5t68.5 -14v-98h-4q-62 0 -112 22.5t-85 58t-54.5 80t-19.5 89.5q0 57 16 100.5t41 76.5t55.5 56.5
t59.5 40.5q8 4 20.5 8.5t28 5t32.5 -5t34 -20.5l156 -139l135 143q12 14 27 18.5t29.5 4t27.5 -5.5t22 -9q32 -15 64 -38t57 -56t40.5 -77.5t15.5 -102.5v-144h229z" />
    <glyph glyph-name="maichattawathai.alt7" 
d="M-983 2695v103h250v229h119v-229h249v-103h-249v-221h-119v221h-250z" />
    <glyph glyph-name="maiekthai.alt5" 
d="M-373 2966h127v-488h-127v488z" />
    <glyph glyph-name="maithothai.alt5" 
d="M98 2580v-102h-803v90q18 2 36 5q15 2 32 5t31 7q20 3 41.5 14.5t39.5 31.5t30 48t12 65q0 62 -39.5 96.5t-116.5 34.5v107q129 -3 201.5 -55t72.5 -162q0 -37 -15.5 -87.5t-61.5 -97.5h540z" />
    <glyph glyph-name="maitrithai.alt5" horiz-adv-x="-8" 
d="M31 2572v-94h-355v237q0 48 -12 81t-29 54.5t-36 33t-33 16.5l-144 -156q-41 -49 -90 0l-176 160q-56 -22 -83 -69t-27 -103q0 -32 10.5 -62.5t30.5 -54t50 -37.5t68 -14v-98h-4q-62 0 -111.5 22.5t-85 58t-54.5 80t-19 88.5q0 57 16 101t41 77t55.5 56.5t59.5 40.5
q7 4 20 8.5t28.5 5t32.5 -5t34 -20.5l155 -140l135 144q12 14 27 18.5t29.5 4t28 -5.5t22.5 -9q32 -15 63.5 -38t56.5 -56t40.5 -78t15.5 -103v-143h240z" />
    <glyph glyph-name="maichattawathai.alt5" 
d="M-614 2699v103h249v229h119v-229h250v-103h-250v-221h-119v221h-249z" />
    <glyph glyph-name="maiekupperleftthai.alt9" 
d="M-907 2980h127v-297h-127v297z" />
    <glyph glyph-name="maichattawaupperleftthai.alt9" 
d="M-1153 2900v102h250v230h119v-230h249v-102h-249v-221h-119v221h-250z" />
    <glyph glyph-name="saraileftthai" 
d="M-1655 2138h1045v-115h-1045v115z" />
    <glyph glyph-name="saraileftthai" unicode="&#xf701;" 
d="M-1655 2138h1045v-115h-1045v115z" />
    <glyph glyph-name="saraiileftthai" 
d="M-1655 2138h918v311h127v-426h-1045v115z" />
    <glyph glyph-name="saraiileftthai" unicode="&#xf702;" 
d="M-1655 2138h918v311h127v-426h-1045v115z" />
    <glyph glyph-name="saraueleftthai" 
d="M-1655 2023v115h639q-8 9 -16.5 24t-15.5 32.5t-12 37t-5 37.5q0 52 19.5 97.5t53 79.5t78 53.5t95.5 19.5q52 0 97.5 -19.5t79.5 -53.5t53.5 -79.5t19.5 -97.5q0 -51 -19.5 -95.5t-53.5 -78t-79.5 -53t-97.5 -19.5h-836zM-950 2269q0 -28 10.5 -52t28.5 -41.5t42 -27.5
t50 -10q29 0 54.5 10t44 27.5t29.5 41.5t11 52q0 29 -11 54t-29.5 43t-44 28t-54.5 10q-26 0 -50 -10t-42 -28t-28.5 -43t-10.5 -54z" />
    <glyph glyph-name="saraueleftthai" unicode="&#xf703;" 
d="M-1655 2023v115h639q-8 9 -16.5 24t-15.5 32.5t-12 37t-5 37.5q0 52 19.5 97.5t53 79.5t78 53.5t95.5 19.5q52 0 97.5 -19.5t79.5 -53.5t53.5 -79.5t19.5 -97.5q0 -51 -19.5 -95.5t-53.5 -78t-79.5 -53t-97.5 -19.5h-836zM-950 2269q0 -28 10.5 -52t28.5 -41.5t42 -27.5
t50 -10q29 0 54.5 10t44 27.5t29.5 41.5t11 52q0 29 -11 54t-29.5 43t-44 28t-54.5 10q-26 0 -50 -10t-42 -28t-28.5 -43t-10.5 -54z" />
    <glyph glyph-name="saraueeleftthai" 
d="M-1655 2138h586v311h127v-311h205v311h127v-426h-1045v115z" />
    <glyph glyph-name="saraueeleftthai" unicode="&#xf704;" 
d="M-1655 2138h586v311h127v-311h205v311h127v-426h-1045v115z" />
    <glyph glyph-name="maieklowleftthai" 
d="M-918 2531h132v-487h-132v487z" />
    <glyph glyph-name="maieklowleftthai" unicode="&#xf705;" 
d="M-918 2531h132v-487h-132v487z" />
    <glyph glyph-name="maitholowleftthai" 
d="M-565 2146v-102h-848v90l98 16q20 3 41.5 16t39.5 34.5t30 51t12 66.5q0 123 -156 123v107q129 -3 202 -57t73 -164q0 -38 -16 -86t-62 -95h586z" />
    <glyph glyph-name="maitholowleftthai" unicode="&#xf706;" 
d="M-565 2146v-102h-848v90l98 16q20 3 41.5 16t39.5 34.5t30 51t12 66.5q0 123 -156 123v107q129 -3 202 -57t73 -164q0 -38 -16 -86t-62 -95h586z" />
    <glyph glyph-name="maitrilowleftthai" 
d="M-377 2138v-94h-393v237q0 48 -12 81t-29.5 54.5t-36.5 33t-33 16.5l-143 -156q-42 -48 -90 0l-176 160q-56 -25 -87 -75t-28 -105q1 -31 13.5 -59.5t33.5 -51t50.5 -36t66.5 -13.5v-98q-63 0 -114 22.5t-86.5 58t-55 80t-19.5 88.5q0 57 16 101t41 77t56 56.5t60 40.5
q7 4 19.5 8.5t28 5t32.5 -5t34 -20.5l156 -140l135 144q12 14 27 19t29.5 5t28 -4t22.5 -8q32 -15 63.5 -39t56.5 -57.5t40.5 -79t15.5 -103.5v-143h278z" />
    <glyph glyph-name="maitrilowleftthai" unicode="&#xf707;" 
d="M-377 2138v-94h-393v237q0 48 -12 81t-29.5 54.5t-36.5 33t-33 16.5l-143 -156q-42 -48 -90 0l-176 160q-56 -25 -87 -75t-28 -105q1 -31 13.5 -59.5t33.5 -51t50.5 -36t66.5 -13.5v-98q-63 0 -114 22.5t-86.5 58t-55 80t-19.5 88.5q0 57 16 101t41 77t56 56.5t60 40.5
q7 4 19.5 8.5t28 5t32.5 -5t34 -20.5l156 -140l135 144q12 14 27 19t29.5 5t28 -4t22.5 -8q32 -15 63.5 -39t56.5 -57.5t40.5 -79t15.5 -103.5v-143h278z" />
    <glyph glyph-name="maichattawalowleftthai" 
d="M-1229 2261v102h250v230h119v-230h250v-102h-250v-221h-119v221h-250z" />
    <glyph glyph-name="maichattawalowleftthai" unicode="&#xf708;" 
d="M-1229 2261v102h250v230h119v-230h250v-102h-250v-221h-119v221h-250z" />
    <glyph glyph-name="thanthakhatlowleftthai" 
d="M-1069 2044q1 80 22.5 128.5t54 74.5t72.5 34.5t80 8.5h258v-107h-258q-35 0 -57.5 -8.5t-35 -26t-17 -43.5t-4.5 -61h-115z" />
    <glyph glyph-name="thanthakhatlowleftthai" unicode="&#xf709;" 
d="M-1069 2044q1 80 22.5 128.5t54 74.5t72.5 34.5t80 8.5h258v-107h-258q-35 0 -57.5 -8.5t-35 -26t-17 -43.5t-4.5 -61h-115z" />
    <glyph glyph-name="maieklowrightthai" 
d="M-377 2531h131v-487h-131v487z" />
    <glyph glyph-name="maieklowrightthai" unicode="&#xf70a;" 
d="M-377 2531h131v-487h-131v487z" />
    <glyph glyph-name="maitholowrightthai" 
d="M-123 2146v-102h-848v90l99 16q20 3 41.5 16t39.5 34.5t29.5 51t11.5 66.5q0 123 -155 123v107q129 -3 201.5 -57t72.5 -164q0 -19 -3.5 -41t-12.5 -45t-24 -47.5t-38 -47.5h586z" />
    <glyph glyph-name="maitholowrightthai" unicode="&#xf70b;" 
d="M-123 2146v-102h-848v90l99 16q20 3 41.5 16t39.5 34.5t29.5 51t11.5 66.5q0 123 -155 123v107q129 -3 201.5 -57t72.5 -164q0 -19 -3.5 -41t-12.5 -45t-24 -47.5t-38 -47.5h586z" />
    <glyph glyph-name="maitrilowrightthai" 
d="M-106 2138v-94h-431v237q0 48 -12 81t-29 54.5t-36 33t-33 16.5l-144 -156q-41 -49 -90 0l-176 160q-27 -12 -49 -32t-37 -45t-22.5 -52.5t-5.5 -54.5q1 -31 12.5 -59.5t32 -51t50.5 -36t68 -13.5v-94q-66 0 -117 21.5t-86 57t-53 80t-18 90.5q0 57 16 101t41 77
t55.5 56.5t59.5 40.5q7 4 20 8.5t28.5 5t32.5 -5t34 -20.5l155 -140l135 144q12 14 27 18.5t29.5 4t28 -5.5t22.5 -9q32 -15 63.5 -38t56.5 -56t40.5 -78t15.5 -103v-143h316z" />
    <glyph glyph-name="maitrilowrightthai" unicode="&#xf70c;" 
d="M-106 2138v-94h-431v237q0 48 -12 81t-29 54.5t-36 33t-33 16.5l-144 -156q-41 -49 -90 0l-176 160q-27 -12 -49 -32t-37 -45t-22.5 -52.5t-5.5 -54.5q1 -31 12.5 -59.5t32 -51t50.5 -36t68 -13.5v-94q-66 0 -117 21.5t-86 57t-53 80t-18 90.5q0 57 16 101t41 77
t55.5 56.5t59.5 40.5q7 4 20 8.5t28.5 5t32.5 -5t34 -20.5l155 -140l135 144q12 14 27 18.5t29.5 4t28 -5.5t22.5 -9q32 -15 63.5 -38t56.5 -56t40.5 -78t15.5 -103v-143h316z" />
    <glyph glyph-name="maichattawalowrightthai" 
d="M-618 2265v102h249v230h119v-230h250v-102h-250v-221h-119v221h-249z" />
    <glyph glyph-name="maichattawalowrightthai" unicode="&#xf70d;" 
d="M-618 2265v102h249v230h119v-230h250v-102h-250v-221h-119v221h-249z" />
    <glyph glyph-name="thanthakhatlowrightthai" 
d="M-631 2044q1 80 22.5 128.5t54 74.5t73 34.5t80.5 8.5h327v-107h-327q-36 0 -58 -8.5t-35 -26t-17.5 -43.5t-4.5 -61h-115z" />
    <glyph glyph-name="thanthakhatlowrightthai" unicode="&#xf70e;" 
d="M-631 2044q1 80 22.5 128.5t54 74.5t73 34.5t80.5 8.5h327v-107h-327q-36 0 -58 -8.5t-35 -26t-17.5 -43.5t-4.5 -61h-115z" />
    <glyph glyph-name="maihanakatleftthai" 
d="M-999 2281q0 -77 29 -110t81 -33h950v-110h-954q-40 0 -80 11t-72.5 39t-54 77t-22.5 126h123z" />
    <glyph glyph-name="maihanakatleftthai" unicode="&#xf710;" 
d="M-999 2281q0 -77 29 -110t81 -33h950v-110h-954q-40 0 -80 11t-72.5 39t-54 77t-22.5 126h123z" />
    <glyph glyph-name="nikhahitleftthai" 
d="M-1135 2245q0 55 21 103.5t57 84.5t84.5 57t104.5 21q54 0 101.5 -21t83 -57t56.5 -84.5t21 -103.5q0 -54 -21 -102t-56.5 -83.5t-83 -56.5t-101.5 -21q-56 0 -104.5 21t-84.5 56.5t-57 83.5t-21 102zM-1024 2245q0 -34 11.5 -62t32.5 -48t49.5 -31t62.5 -11t62.5 11
t49 31t32 48t11.5 62q0 35 -11.5 63.5t-32 49t-49 31.5t-62.5 11t-62.5 -11t-49.5 -31.5t-32.5 -49t-11.5 -63.5z" />
    <glyph glyph-name="nikhahitleftthai" unicode="&#xf711;" 
d="M-1135 2245q0 55 21 103.5t57 84.5t84.5 57t104.5 21q54 0 101.5 -21t83 -57t56.5 -84.5t21 -103.5q0 -54 -21 -102t-56.5 -83.5t-83 -56.5t-101.5 -21q-56 0 -104.5 21t-84.5 56.5t-57 83.5t-21 102zM-1024 2245q0 -34 11.5 -62t32.5 -48t49.5 -31t62.5 -11t62.5 11
t49 31t32 48t11.5 62q0 35 -11.5 63.5t-32 49t-49 31.5t-62.5 11t-62.5 -11t-49.5 -31.5t-32.5 -49t-11.5 -63.5z" />
    <glyph glyph-name="maitaikhuleftthai" 
d="M-1212 2511q-48 0 -84 -20t-60 -49.5t-36.5 -64t-12.5 -63.5q0 -32 11 -63t29.5 -58.5t43 -50t51.5 -37.5l180 156q22 15 45 17t41 -17l189 -156q26 14 47.5 33t36 44.5t19.5 58t-1 73.5h131q6 -62 -9.5 -118.5t-49.5 -102.5t-84 -78.5t-111 -44.5l-213 189l-208 -185
q-59 17 -109.5 45.5t-88.5 70.5t-59.5 97.5t-21.5 126.5q0 57 22.5 112t64.5 99.5t102 73t135 31.5h704v-119h-704z" />
    <glyph glyph-name="maitaikhuleftthai" unicode="&#xf712;" 
d="M-1212 2511q-48 0 -84 -20t-60 -49.5t-36.5 -64t-12.5 -63.5q0 -32 11 -63t29.5 -58.5t43 -50t51.5 -37.5l180 156q22 15 45 17t41 -17l189 -156q26 14 47.5 33t36 44.5t19.5 58t-1 73.5h131q6 -62 -9.5 -118.5t-49.5 -102.5t-84 -78.5t-111 -44.5l-213 189l-208 -185
q-59 17 -109.5 45.5t-88.5 70.5t-59.5 97.5t-21.5 126.5q0 57 22.5 112t64.5 99.5t102 73t135 31.5h704v-119h-704z" />
    <glyph glyph-name="maiekupperleftthai" 
d="M-737 2980h127v-297h-127v297z" />
    <glyph glyph-name="maiekupperleftthai" unicode="&#xf713;" 
d="M-737 2980h127v-297h-127v297z" />
    <glyph glyph-name="maithoupperleftthai" 
d="M-246 2785v-102h-827v90l98 16q20 3 41.5 16t39.5 34.5t30 51t12 66.5q0 123 -156 123v107q129 -3 202 -59t73 -167q0 -37 -16 -83t-62 -93h565z" />
    <glyph glyph-name="maithoupperleftthai" unicode="&#xf714;" 
d="M-246 2785v-102h-827v90l98 16q20 3 41.5 16t39.5 34.5t30 51t12 66.5q0 123 -156 123v107q129 -3 202 -59t73 -167q0 -37 -16 -83t-62 -93h565z" />
    <glyph glyph-name="maitriupperleftthai" 
d="M-393 2777v-94h-344v238q0 48 -12 81t-29.5 54.5t-36.5 32.5t-33 16l-143 -156q-42 -46 -90 0l-176 160q-56 -22 -83.5 -69t-27.5 -103q0 -32 10.5 -62.5t31 -54t50 -37.5t68.5 -14v-98h-4q-62 0 -112 22.5t-85 58t-54.5 80t-19.5 89.5q0 57 16 100.5t41 76.5t55.5 56.5
t59.5 40.5q8 4 20.5 8.5t28 5t32.5 -5t34 -20.5l156 -139l135 143q12 14 27 18.5t29.5 4t27.5 -5.5t22 -9q32 -15 64 -38t57 -56t40.5 -77.5t15.5 -102.5v-144h229z" />
    <glyph glyph-name="maitriupperleftthai" unicode="&#xf715;" 
d="M-393 2777v-94h-344v238q0 48 -12 81t-29.5 54.5t-36.5 32.5t-33 16l-143 -156q-42 -46 -90 0l-176 160q-56 -22 -83.5 -69t-27.5 -103q0 -32 10.5 -62.5t31 -54t50 -37.5t68.5 -14v-98h-4q-62 0 -112 22.5t-85 58t-54.5 80t-19.5 89.5q0 57 16 100.5t41 76.5t55.5 56.5
t59.5 40.5q8 4 20.5 8.5t28 5t32.5 -5t34 -20.5l156 -139l135 143q12 14 27 18.5t29.5 4t27.5 -5.5t22 -9q32 -15 64 -38t57 -56t40.5 -77.5t15.5 -102.5v-144h229z" />
    <glyph glyph-name="maichattawaupperleftthai" 
d="M-983 2900v102h250v230h119v-230h249v-102h-249v-221h-119v221h-250z" />
    <glyph glyph-name="maichattawaupperleftthai" unicode="&#xf716;" 
d="M-983 2900v102h250v230h119v-230h249v-102h-249v-221h-119v221h-250z" />
    <glyph glyph-name="thanthakhatupperleftthai" 
d="M-758 2441q1 80 22.5 128.5t54 74.5t73 34.5t80.5 8.5h266v-107h-262q-37 0 -59.5 -8.5t-35 -26t-16.5 -43.5t-4 -61h-119z" />
    <glyph glyph-name="thanthakhatupperleftthai" unicode="&#xf717;" 
d="M-758 2441q1 80 22.5 128.5t54 74.5t73 34.5t80.5 8.5h266v-107h-262q-37 0 -59.5 -8.5t-35 -26t-16.5 -43.5t-4 -61h-119z" />
    </font>
</defs>
</svg>
